<svg width="333" height="94" viewBox="0 0 333 94" fill="none" xmlns="http://www.w3.org/2000/svg">
<mask id="path-1-outside-1_5_4" maskUnits="userSpaceOnUse" x="0" y="0.431999" width="333" height="94" fill="black">
<rect fill="white" y="0.431999" width="333" height="94"/>
<path fill-rule="evenodd" clip-rule="evenodd" d="M125.56 20.624V30.512C125.526 30.9531 125.54 31.694 125.555 32.5058C125.584 33.9909 125.616 35.7134 125.368 36.272L109.72 36.368C109.413 36.368 109.535 27.1715 109.597 22.5464C109.612 21.384 109.624 20.5103 109.624 20.144V19.952L109.618 19.8417C109.524 18.1426 109.42 16.2673 108.856 14.576C107.896 11.792 105.88 10.448 102.616 10.448C98.104 10.448 96.472 16.016 96.472 19.664V69.872C96.472 69.9314 96.4702 70.0157 96.4679 70.122C96.4369 71.5631 96.3189 77.0515 99.448 79.376C101.752 81.2 104.536 81.488 107.608 81.488H127.768C127.837 81.4804 127.922 81.4722 128.022 81.4625C129.186 81.3506 132.336 81.0476 134.104 79.28C134.488 78.896 135.544 77.744 135.928 76.88C137.974 73.1591 137.948 63.7598 137.944 62.4814C137.944 62.4404 137.944 62.4078 137.944 62.384V27.152C138.136 23.024 138.232 13.328 135.16 11.312C134.2 10.64 132.856 10.256 131.608 10.256C125.56 10.256 125.56 18.032 125.56 20.624ZM165.208 37.712H165.016C164.577 37.7999 164.218 37.7269 163.792 37.6402C163.752 37.6322 163.713 37.6241 163.672 37.616C163.576 37.616 161.656 37.616 161.656 37.52C161.464 36.848 161.464 36.08 161.464 35.408V30.032C161.464 29.8114 161.454 29.5909 161.443 29.3669C161.422 28.9085 161.4 28.4359 161.464 27.92C161.464 27.2 161.44 26.528 161.416 25.856C161.392 25.184 161.368 24.512 161.368 23.792C161.344 23.216 161.326 22.6339 161.308 22.0519C161.254 20.3059 161.2 18.56 160.984 16.976C160.984 16.592 160.984 16.208 160.888 15.824C160.878 15.7176 160.869 15.6115 160.859 15.5056C160.682 13.5094 160.513 11.6041 158.872 9.872C158.008 9.008 156.76 8.432 155.32 8.432C153.88 8.432 151.864 8.912 151 9.776C148.943 11.8326 148.98 16.438 148.984 16.8555C148.984 16.8668 148.984 16.875 148.984 16.88V73.904C148.984 77.936 149.656 85.424 155.896 85.616C155.992 85.616 156.088 85.712 156.088 85.712C157.336 85.712 158.392 85.232 159.16 84.368C161.464 82.064 161.464 77.168 161.464 73.808V72.464C161.56 69.296 161.56 65.936 161.464 62.672C161.464 61.6581 161.455 60.4126 161.445 59.0823C161.423 56.13 161.398 52.7599 161.464 50.576C161.464 50.192 161.56 50.192 161.56 50.192C161.56 50.192 161.656 50.096 161.848 50.096C162.641 50.0583 163.656 50.0799 164.719 50.1025C166.359 50.1374 168.113 50.1748 169.336 50C170.296 49.808 171.16 49.328 171.928 48.752C172.792 48.08 173.08 46.736 173.272 45.776C173.56 44.816 173.56 43.952 173.56 42.992C173.56 42.128 173.368 41.264 172.888 40.496C172.216 39.056 170.68 38.48 169.24 38.192C168.472 38.096 167.704 38 167.032 37.904C166.683 37.904 166.36 37.8522 166.049 37.8025C165.762 37.7564 165.485 37.712 165.208 37.712ZM125.56 69.776L108.856 69.872C108.856 69.3738 108.863 68.5534 108.872 67.5847C108.894 65.0069 108.926 61.3796 108.856 59.984C108.856 59.1932 108.848 58.0868 108.838 56.8503C108.816 53.8838 108.788 50.1692 108.856 48.272L125.464 48.176L125.56 69.776ZM221.568 73.712C221.088 69.584 217.632 68.72 213.887 68.72C205.439 68.72 195.551 68.144 194.88 68.048C191.904 68.048 190.943 66.224 190.943 63.728L190.559 30.512V30.416C190.367 28.976 190.271 24.752 192.096 23.984C192.96 23.6 195.167 23.504 196.896 23.504C205.503 23.504 208.499 23.555 210.123 23.5827C210.727 23.5929 211.141 23.6 211.583 23.6C214.079 23.6 215.904 23.408 217.055 23.12C218.111 22.832 218.975 22.256 219.456 21.392C220.031 20.336 220.128 16.88 219.647 15.44C218.446 11.5595 210.932 11.6804 210.027 11.695C209.991 11.6956 209.966 11.696 209.952 11.696H187.488C186.816 11.696 179.52 11.792 177.887 14.48C175.967 17.648 176.639 24.464 176.736 25.136V65.936C176.736 65.9576 176.734 66.0108 176.731 66.0922C176.701 67.0972 176.541 72.3844 177.695 74.96C178.656 77.168 180.671 78.992 182.688 79.568C185.247 80.3358 188.185 80.4213 190.829 80.4982C191.16 80.5078 191.487 80.5173 191.807 80.528H192.576C194.553 80.528 197.195 80.5376 199.968 80.5478C205.946 80.5696 212.531 80.5936 214.368 80.528C217.824 80.336 222.048 77.84 221.568 73.712ZM247.008 38.384L239.424 37.712C239.424 30.416 239.232 22.832 238.656 15.824C238.646 15.7176 238.636 15.6115 238.627 15.5056C238.45 13.5094 238.28 11.6041 236.639 9.872C235.775 9.008 234.527 8.432 233.088 8.432C231.647 8.432 229.632 8.912 228.768 9.776C226.711 11.8326 226.748 16.438 226.751 16.8555C226.751 16.8668 226.751 16.875 226.751 16.88V75.824C226.751 79.856 227.232 86 233.471 85.616C239.135 85.232 239.232 78.128 239.232 74.768C239.232 72.1432 239.211 69.2789 239.19 66.3809C239.147 60.4813 239.103 54.442 239.232 50L247.104 49.904C249.504 49.904 250.656 48.08 251.04 45.968C251.327 45.008 251.327 44.144 251.327 43.184C251.327 40.4 249.311 38.864 247.008 38.384ZM282.001 84.7199C293.003 84.8422 309.943 85.0305 312.295 84.56C312.838 84.525 313.457 84.5155 314.119 84.5054C317.088 84.46 320.919 84.4014 322.567 81.968C323.527 80.528 324.103 79.472 324.199 77.744C324.551 74.1679 324.509 70.6992 324.466 67.2068C324.439 64.9802 324.412 62.7439 324.487 60.464C324.487 60.2232 324.494 59.9777 324.501 59.7304C324.54 58.4004 324.579 57.0194 323.527 56.048C322.087 54.8 318.919 54.8 317.095 55.184C314.791 55.568 314.119 57.008 314.023 59.312V62.192H275.047C274.705 62.1706 274.41 62.1826 274.157 62.1929C273.273 62.2288 272.892 62.2443 272.743 60.752V58.256C272.263 55.664 269.575 55.088 267.367 55.184L267.281 55.1918C266.249 55.2854 265.136 55.3864 264.295 55.76C262.567 56.528 261.991 58.256 261.991 60.08C261.991 60.464 261.895 74.864 261.895 74.864C261.908 74.9038 261.922 75.0423 261.942 75.2574C262.071 76.6005 262.485 80.9288 264.967 82.832C267.175 84.464 270.151 84.656 272.743 84.656C273.664 84.6272 277.288 84.6675 282.001 84.7199ZM291.943 42.512L292.135 23.888C292.135 23.2864 292.161 22.6508 292.188 21.9981C292.324 18.693 292.478 14.9482 289.351 12.944C286.951 11.408 283.687 11.12 280.903 11.12H265.927C265.927 11.12 261.991 11.312 260.551 11.504C258.631 11.888 257.575 12.56 256.423 14.384C255.463 15.92 255.463 19.664 255.463 20.432C255.463 20.432 255.463 23.216 255.367 27.824C255.271 32.144 255.271 37.232 255.271 37.232C255.271 37.2511 255.269 37.3025 255.266 37.3826C255.219 38.5091 254.938 45.3272 256.999 48.464C258.954 51.3499 263.527 51.347 267.917 51.3442C268.054 51.3441 268.19 51.344 268.327 51.344H268.423C269.346 51.302 270.948 51.3335 272.612 51.3661C274.753 51.4081 276.996 51.4521 278.023 51.344C278.65 51.344 279.28 51.3566 279.912 51.3693C282.761 51.4265 285.641 51.4842 288.391 50.384C291.463 49.232 291.943 45.2 291.943 42.512ZM308.263 50.768C309.031 49.328 309.223 47.792 309.319 46.448V35.792H313.639V41.744C313.639 41.981 313.637 42.2425 313.635 42.5233C313.616 44.9718 313.585 48.893 314.791 50.96C315.175 51.728 315.751 52.4 316.423 52.88C317.287 53.552 318.439 53.84 319.591 53.84C320.455 53.84 321.031 53.648 321.799 53.168C324.391 51.632 324.487 48.176 324.487 47.984V15.824C324.583 15.344 324.487 12.56 323.719 11.024C323.143 9.776 322.087 8.816 320.263 8.528C318.151 8.23999 316.711 8.816 315.751 10.064C314.887 11.024 314.311 11.984 314.023 12.944C313.639 14.288 313.639 15.728 313.735 17.072L313.639 25.328C313.351 25.312 313.055 25.296 312.759 25.28C311.279 25.2 309.799 25.12 309.319 25.04C309.319 23.312 309.319 17.36 309.415 17.36C309.415 16.016 309.415 14.48 309.031 13.232C308.979 13.0419 308.934 12.855 308.889 12.6706C308.684 11.8304 308.491 11.0432 307.783 10.256C306.727 9.10399 305.383 8.528 303.271 8.816C301.447 9.008 299.911 9.872 299.335 11.12C298.567 12.656 298.471 15.536 298.567 16.112V47.696C298.567 47.888 298.951 51.344 301.447 52.88C302.311 53.36 303.175 53.648 304.135 53.648C305.274 53.648 305.756 53.2729 306.601 52.6154L306.631 52.592C307.303 52.208 307.879 51.536 308.263 50.768ZM280.684 24.8615C280.679 25.2545 280.675 25.6407 280.711 26C280.626 26.8051 280.598 29.1254 280.567 31.5819C280.529 34.6905 280.488 38.0173 280.327 38.768C280.312 38.87 280.297 38.9693 280.283 39.0659C280.032 40.7873 279.906 41.648 277.543 41.648L271.783 41.552C269.479 41.552 268.807 41.552 267.751 40.304C266.659 38.9394 266.775 35.9368 266.79 35.5444C266.79 35.5227 266.791 35.509 266.791 35.504C266.791 35.504 266.791 30.224 266.887 28.4V25.328C266.887 25.04 266.887 23.408 267.367 22.736C268.039 21.968 268.519 21.68 269.575 21.584C270.343 21.392 271.111 21.392 272.263 21.392L277.543 21.584C278.695 21.584 280.039 21.584 280.519 22.928C280.699 23.5287 280.691 24.2046 280.684 24.8615ZM277.758 70.802C277.978 70.8128 278.195 70.8235 278.407 70.832C278.477 70.832 282.638 70.8449 287.913 70.8612C297.049 70.8894 309.53 70.928 309.895 70.928C311.143 70.832 312.487 70.736 313.351 71.792C313.921 72.4328 313.857 73.0208 313.785 73.6735C313.761 73.9008 313.735 74.136 313.735 74.384C313.735 76.2693 311.823 76.0892 310.456 75.9605C310.292 75.945 310.135 75.9303 309.991 75.92C309.463 75.872 304.399 75.944 299.335 76.016C294.271 76.088 289.207 76.16 288.679 76.112C284.839 76.016 280.327 75.92 276.775 75.92C276.597 75.9304 276.421 75.9443 276.247 75.958C274.82 76.07 273.544 76.1702 273.031 74.288C272.935 73.808 272.935 73.424 272.935 72.752C272.935 70.5638 275.489 70.6899 277.758 70.802ZM59.0469 67.1212L74.0685 23.031L29 49.0592L51.3317 49.5623L59.0469 67.1212Z"/>
</mask>
<path fill-rule="evenodd" clip-rule="evenodd" d="M125.56 20.624V30.512C125.526 30.9531 125.54 31.694 125.555 32.5058C125.584 33.9909 125.616 35.7134 125.368 36.272L109.72 36.368C109.413 36.368 109.535 27.1715 109.597 22.5464C109.612 21.384 109.624 20.5103 109.624 20.144V19.952L109.618 19.8417C109.524 18.1426 109.42 16.2673 108.856 14.576C107.896 11.792 105.88 10.448 102.616 10.448C98.104 10.448 96.472 16.016 96.472 19.664V69.872C96.472 69.9314 96.4702 70.0157 96.4679 70.122C96.4369 71.5631 96.3189 77.0515 99.448 79.376C101.752 81.2 104.536 81.488 107.608 81.488H127.768C127.837 81.4804 127.922 81.4722 128.022 81.4625C129.186 81.3506 132.336 81.0476 134.104 79.28C134.488 78.896 135.544 77.744 135.928 76.88C137.974 73.1591 137.948 63.7598 137.944 62.4814C137.944 62.4404 137.944 62.4078 137.944 62.384V27.152C138.136 23.024 138.232 13.328 135.16 11.312C134.2 10.64 132.856 10.256 131.608 10.256C125.56 10.256 125.56 18.032 125.56 20.624ZM165.208 37.712H165.016C164.577 37.7999 164.218 37.7269 163.792 37.6402C163.752 37.6322 163.713 37.6241 163.672 37.616C163.576 37.616 161.656 37.616 161.656 37.52C161.464 36.848 161.464 36.08 161.464 35.408V30.032C161.464 29.8114 161.454 29.5909 161.443 29.3669C161.422 28.9085 161.4 28.4359 161.464 27.92C161.464 27.2 161.44 26.528 161.416 25.856C161.392 25.184 161.368 24.512 161.368 23.792C161.344 23.216 161.326 22.6339 161.308 22.0519C161.254 20.3059 161.2 18.56 160.984 16.976C160.984 16.592 160.984 16.208 160.888 15.824C160.878 15.7176 160.869 15.6115 160.859 15.5056C160.682 13.5094 160.513 11.6041 158.872 9.872C158.008 9.008 156.76 8.432 155.32 8.432C153.88 8.432 151.864 8.912 151 9.776C148.943 11.8326 148.98 16.438 148.984 16.8555C148.984 16.8668 148.984 16.875 148.984 16.88V73.904C148.984 77.936 149.656 85.424 155.896 85.616C155.992 85.616 156.088 85.712 156.088 85.712C157.336 85.712 158.392 85.232 159.16 84.368C161.464 82.064 161.464 77.168 161.464 73.808V72.464C161.56 69.296 161.56 65.936 161.464 62.672C161.464 61.6581 161.455 60.4126 161.445 59.0823C161.423 56.13 161.398 52.7599 161.464 50.576C161.464 50.192 161.56 50.192 161.56 50.192C161.56 50.192 161.656 50.096 161.848 50.096C162.641 50.0583 163.656 50.0799 164.719 50.1025C166.359 50.1374 168.113 50.1748 169.336 50C170.296 49.808 171.16 49.328 171.928 48.752C172.792 48.08 173.08 46.736 173.272 45.776C173.56 44.816 173.56 43.952 173.56 42.992C173.56 42.128 173.368 41.264 172.888 40.496C172.216 39.056 170.68 38.48 169.24 38.192C168.472 38.096 167.704 38 167.032 37.904C166.683 37.904 166.36 37.8522 166.049 37.8025C165.762 37.7564 165.485 37.712 165.208 37.712ZM125.56 69.776L108.856 69.872C108.856 69.3738 108.863 68.5534 108.872 67.5847C108.894 65.0069 108.926 61.3796 108.856 59.984C108.856 59.1932 108.848 58.0868 108.838 56.8503C108.816 53.8838 108.788 50.1692 108.856 48.272L125.464 48.176L125.56 69.776ZM221.568 73.712C221.088 69.584 217.632 68.72 213.887 68.72C205.439 68.72 195.551 68.144 194.88 68.048C191.904 68.048 190.943 66.224 190.943 63.728L190.559 30.512V30.416C190.367 28.976 190.271 24.752 192.096 23.984C192.96 23.6 195.167 23.504 196.896 23.504C205.503 23.504 208.499 23.555 210.123 23.5827C210.727 23.5929 211.141 23.6 211.583 23.6C214.079 23.6 215.904 23.408 217.055 23.12C218.111 22.832 218.975 22.256 219.456 21.392C220.031 20.336 220.128 16.88 219.647 15.44C218.446 11.5595 210.932 11.6804 210.027 11.695C209.991 11.6956 209.966 11.696 209.952 11.696H187.488C186.816 11.696 179.52 11.792 177.887 14.48C175.967 17.648 176.639 24.464 176.736 25.136V65.936C176.736 65.9576 176.734 66.0108 176.731 66.0922C176.701 67.0972 176.541 72.3844 177.695 74.96C178.656 77.168 180.671 78.992 182.688 79.568C185.247 80.3358 188.185 80.4213 190.829 80.4982C191.16 80.5078 191.487 80.5173 191.807 80.528H192.576C194.553 80.528 197.195 80.5376 199.968 80.5478C205.946 80.5696 212.531 80.5936 214.368 80.528C217.824 80.336 222.048 77.84 221.568 73.712ZM247.008 38.384L239.424 37.712C239.424 30.416 239.232 22.832 238.656 15.824C238.646 15.7176 238.636 15.6115 238.627 15.5056C238.45 13.5094 238.28 11.6041 236.639 9.872C235.775 9.008 234.527 8.432 233.088 8.432C231.647 8.432 229.632 8.912 228.768 9.776C226.711 11.8326 226.748 16.438 226.751 16.8555C226.751 16.8668 226.751 16.875 226.751 16.88V75.824C226.751 79.856 227.232 86 233.471 85.616C239.135 85.232 239.232 78.128 239.232 74.768C239.232 72.1432 239.211 69.2789 239.19 66.3809C239.147 60.4813 239.103 54.442 239.232 50L247.104 49.904C249.504 49.904 250.656 48.08 251.04 45.968C251.327 45.008 251.327 44.144 251.327 43.184C251.327 40.4 249.311 38.864 247.008 38.384ZM282.001 84.7199C293.003 84.8422 309.943 85.0305 312.295 84.56C312.838 84.525 313.457 84.5155 314.119 84.5054C317.088 84.46 320.919 84.4014 322.567 81.968C323.527 80.528 324.103 79.472 324.199 77.744C324.551 74.1679 324.509 70.6992 324.466 67.2068C324.439 64.9802 324.412 62.7439 324.487 60.464C324.487 60.2232 324.494 59.9777 324.501 59.7304C324.54 58.4004 324.579 57.0194 323.527 56.048C322.087 54.8 318.919 54.8 317.095 55.184C314.791 55.568 314.119 57.008 314.023 59.312V62.192H275.047C274.705 62.1706 274.41 62.1826 274.157 62.1929C273.273 62.2288 272.892 62.2443 272.743 60.752V58.256C272.263 55.664 269.575 55.088 267.367 55.184L267.281 55.1918C266.249 55.2854 265.136 55.3864 264.295 55.76C262.567 56.528 261.991 58.256 261.991 60.08C261.991 60.464 261.895 74.864 261.895 74.864C261.908 74.9038 261.922 75.0423 261.942 75.2574C262.071 76.6005 262.485 80.9288 264.967 82.832C267.175 84.464 270.151 84.656 272.743 84.656C273.664 84.6272 277.288 84.6675 282.001 84.7199ZM291.943 42.512L292.135 23.888C292.135 23.2864 292.161 22.6508 292.188 21.9981C292.324 18.693 292.478 14.9482 289.351 12.944C286.951 11.408 283.687 11.12 280.903 11.12H265.927C265.927 11.12 261.991 11.312 260.551 11.504C258.631 11.888 257.575 12.56 256.423 14.384C255.463 15.92 255.463 19.664 255.463 20.432C255.463 20.432 255.463 23.216 255.367 27.824C255.271 32.144 255.271 37.232 255.271 37.232C255.271 37.2511 255.269 37.3025 255.266 37.3826C255.219 38.5091 254.938 45.3272 256.999 48.464C258.954 51.3499 263.527 51.347 267.917 51.3442C268.054 51.3441 268.19 51.344 268.327 51.344H268.423C269.346 51.302 270.948 51.3335 272.612 51.3661C274.753 51.4081 276.996 51.4521 278.023 51.344C278.65 51.344 279.28 51.3566 279.912 51.3693C282.761 51.4265 285.641 51.4842 288.391 50.384C291.463 49.232 291.943 45.2 291.943 42.512ZM308.263 50.768C309.031 49.328 309.223 47.792 309.319 46.448V35.792H313.639V41.744C313.639 41.981 313.637 42.2425 313.635 42.5233C313.616 44.9718 313.585 48.893 314.791 50.96C315.175 51.728 315.751 52.4 316.423 52.88C317.287 53.552 318.439 53.84 319.591 53.84C320.455 53.84 321.031 53.648 321.799 53.168C324.391 51.632 324.487 48.176 324.487 47.984V15.824C324.583 15.344 324.487 12.56 323.719 11.024C323.143 9.776 322.087 8.816 320.263 8.528C318.151 8.23999 316.711 8.816 315.751 10.064C314.887 11.024 314.311 11.984 314.023 12.944C313.639 14.288 313.639 15.728 313.735 17.072L313.639 25.328C313.351 25.312 313.055 25.296 312.759 25.28C311.279 25.2 309.799 25.12 309.319 25.04C309.319 23.312 309.319 17.36 309.415 17.36C309.415 16.016 309.415 14.48 309.031 13.232C308.979 13.0419 308.934 12.855 308.889 12.6706C308.684 11.8304 308.491 11.0432 307.783 10.256C306.727 9.10399 305.383 8.528 303.271 8.816C301.447 9.008 299.911 9.872 299.335 11.12C298.567 12.656 298.471 15.536 298.567 16.112V47.696C298.567 47.888 298.951 51.344 301.447 52.88C302.311 53.36 303.175 53.648 304.135 53.648C305.274 53.648 305.756 53.2729 306.601 52.6154L306.631 52.592C307.303 52.208 307.879 51.536 308.263 50.768ZM280.684 24.8615C280.679 25.2545 280.675 25.6407 280.711 26C280.626 26.8051 280.598 29.1254 280.567 31.5819C280.529 34.6905 280.488 38.0173 280.327 38.768C280.312 38.87 280.297 38.9693 280.283 39.0659C280.032 40.7873 279.906 41.648 277.543 41.648L271.783 41.552C269.479 41.552 268.807 41.552 267.751 40.304C266.659 38.9394 266.775 35.9368 266.79 35.5444C266.79 35.5227 266.791 35.509 266.791 35.504C266.791 35.504 266.791 30.224 266.887 28.4V25.328C266.887 25.04 266.887 23.408 267.367 22.736C268.039 21.968 268.519 21.68 269.575 21.584C270.343 21.392 271.111 21.392 272.263 21.392L277.543 21.584C278.695 21.584 280.039 21.584 280.519 22.928C280.699 23.5287 280.691 24.2046 280.684 24.8615ZM277.758 70.802C277.978 70.8128 278.195 70.8235 278.407 70.832C278.477 70.832 282.638 70.8449 287.913 70.8612C297.049 70.8894 309.53 70.928 309.895 70.928C311.143 70.832 312.487 70.736 313.351 71.792C313.921 72.4328 313.857 73.0208 313.785 73.6735C313.761 73.9008 313.735 74.136 313.735 74.384C313.735 76.2693 311.823 76.0892 310.456 75.9605C310.292 75.945 310.135 75.9303 309.991 75.92C309.463 75.872 304.399 75.944 299.335 76.016C294.271 76.088 289.207 76.16 288.679 76.112C284.839 76.016 280.327 75.92 276.775 75.92C276.597 75.9304 276.421 75.9443 276.247 75.958C274.82 76.07 273.544 76.1702 273.031 74.288C272.935 73.808 272.935 73.424 272.935 72.752C272.935 70.5638 275.489 70.6899 277.758 70.802ZM59.0469 67.1212L74.0685 23.031L29 49.0592L51.3317 49.5623L59.0469 67.1212Z" fill="#ADFF2F"/>
<path d="M125.56 30.512L133.536 31.1255L133.56 30.8192V30.512H125.56ZM125.555 32.5058L133.554 32.3543L133.554 32.3542L125.555 32.5058ZM125.368 36.272L125.417 44.2718L130.581 44.2402L132.679 39.5211L125.368 36.272ZM109.72 36.368V44.368H109.745L109.769 44.3678L109.72 36.368ZM109.597 22.5464L117.596 22.6528L117.596 22.6528L109.597 22.5464ZM109.624 19.952H117.624V19.7303L117.612 19.5089L109.624 19.952ZM109.618 19.8417L101.63 20.2844L101.63 20.2848L109.618 19.8417ZM108.856 14.576L116.445 12.0462L116.432 12.0071L116.419 11.9681L108.856 14.576ZM96.4679 70.122L88.4697 69.9498L88.4697 69.95L96.4679 70.122ZM99.448 79.376L104.414 73.1036L104.317 73.0273L104.219 72.954L99.448 79.376ZM127.768 81.488V89.488H128.211L128.652 89.439L127.768 81.488ZM128.022 81.4625L128.788 89.4258L128.788 89.4258L128.022 81.4625ZM135.928 76.88L128.918 73.0246L128.755 73.3214L128.618 73.6309L135.928 76.88ZM137.944 62.4814L129.944 62.5037L129.944 62.5041L137.944 62.4814ZM137.944 27.152L129.953 26.7803L129.944 26.966V27.152H137.944ZM135.16 11.312L130.572 17.8659L130.671 17.9346L130.771 18.0004L135.16 11.312ZM165.016 37.712V29.712H164.224L163.447 29.8674L165.016 37.712ZM163.792 37.6402L162.197 45.4797L162.197 45.4797L163.792 37.6402ZM163.672 37.616L165.241 29.7714L164.464 29.616H163.672V37.616ZM161.656 37.52H169.656V36.3995L169.348 35.3222L161.656 37.52ZM161.443 29.3669L153.452 29.7415L153.452 29.7415L161.443 29.3669ZM161.464 27.92L169.402 28.9121L169.464 28.418V27.92H161.464ZM161.368 23.792H169.368V23.6254L169.361 23.459L161.368 23.792ZM161.308 22.0519L153.312 22.2992L153.312 22.2992L161.308 22.0519ZM160.984 16.976H152.984V17.5189L153.057 18.0569L160.984 16.976ZM160.888 15.824L152.921 16.5484L152.977 17.1644L153.127 17.7645L160.888 15.824ZM160.859 15.5056L168.828 14.7983L168.828 14.7978L160.859 15.5056ZM158.872 9.872L164.68 4.37004L164.605 4.29155L164.529 4.2151L158.872 9.872ZM151 9.776L156.657 15.4328L156.657 15.4328L151 9.776ZM148.984 16.8555L140.984 16.9198L140.984 16.9206L148.984 16.8555ZM155.896 85.616L155.65 93.6122L155.773 93.616H155.896V85.616ZM156.088 85.712L150.431 91.3689L152.774 93.712H156.088V85.712ZM159.16 84.368L153.503 78.7111L153.337 78.8774L153.181 79.0531L159.16 84.368ZM161.464 72.464L153.468 72.2217L153.464 72.3428V72.464H161.464ZM161.464 62.672H153.464V62.7896L153.467 62.9072L161.464 62.672ZM161.445 59.0823L169.445 59.0229L169.445 59.0228L161.445 59.0823ZM161.464 50.576L169.46 50.8183L169.464 50.6972V50.576H161.464ZM161.56 50.192V58.192H164.873L167.217 55.8492L161.56 50.192ZM161.848 50.096V58.096H162.038L162.229 58.0869L161.848 50.096ZM164.719 50.1025L164.889 42.1043L164.889 42.1043L164.719 50.1025ZM169.336 50L170.467 57.9196L170.687 57.8882L170.905 57.8446L169.336 50ZM171.928 48.752L176.728 55.152L176.784 55.1099L176.84 55.0668L171.928 48.752ZM173.272 45.776L165.609 43.4773L165.501 43.8379L165.427 44.2071L173.272 45.776ZM172.888 40.496L165.639 43.8791L165.845 44.3218L166.104 44.7361L172.888 40.496ZM169.24 38.192L170.809 30.3474L170.522 30.29L170.232 30.2538L169.24 38.192ZM167.032 37.904L168.163 29.9844L167.601 29.904H167.032V37.904ZM166.049 37.8025L164.784 45.7017L164.784 45.7017L166.049 37.8025ZM108.856 69.872H100.856V77.9181L108.902 77.8719L108.856 69.872ZM125.56 69.776L125.606 77.7759L133.595 77.73L133.56 69.7404L125.56 69.776ZM108.872 67.5847L100.872 67.5149L100.872 67.5149L108.872 67.5847ZM108.856 59.984H100.856V60.1839L100.866 60.3835L108.856 59.984ZM108.838 56.8503L116.838 56.7903L116.838 56.7903L108.838 56.8503ZM108.856 48.272L108.81 40.2721L101.135 40.3165L100.861 47.9865L108.856 48.272ZM125.464 48.176L133.464 48.1404L133.428 40.1298L125.418 40.1761L125.464 48.176ZM221.568 73.712L229.514 72.788L229.514 72.788L221.568 73.712ZM194.88 68.048L196.011 60.1284L195.448 60.048H194.88V68.048ZM190.943 63.728H198.943V63.6818L198.943 63.6355L190.943 63.728ZM190.559 30.512H182.559V30.5582L182.56 30.6045L190.559 30.512ZM190.559 30.416H198.559V29.885L198.489 29.3587L190.559 30.416ZM192.096 23.984L195.2 31.3571L195.273 31.3265L195.345 31.2945L192.096 23.984ZM210.123 23.5827L209.987 31.5815L209.987 31.5815L210.123 23.5827ZM217.055 23.12L218.996 30.8811L219.078 30.8605L219.16 30.8381L217.055 23.12ZM219.456 21.392L226.449 25.2772L226.464 25.25L226.479 25.2228L219.456 21.392ZM219.647 15.44L212.005 17.8054L212.031 17.8879L212.058 17.9699L219.647 15.44ZM210.027 11.695L210.155 19.694L210.155 19.694L210.027 11.695ZM177.887 14.48L171.049 10.3282L171.046 10.3336L177.887 14.48ZM176.736 25.136H184.736V24.5674L184.655 24.0045L176.736 25.136ZM176.731 66.0922L184.728 66.3343L184.728 66.3337L176.731 66.0922ZM177.695 74.96L185.032 71.7702L185.014 71.7288L184.996 71.6876L177.695 74.96ZM182.688 79.568L184.986 71.9054L184.936 71.8903L184.885 71.8758L182.688 79.568ZM190.829 80.4982L190.597 88.4948L190.597 88.4948L190.829 80.4982ZM191.807 80.528L191.541 88.5236L191.674 88.528H191.807V80.528ZM199.968 80.5478L199.939 88.5477L199.939 88.5477L199.968 80.5478ZM214.368 80.528L214.653 88.5229L214.732 88.5201L214.811 88.5157L214.368 80.528ZM239.424 37.712H231.424V45.0345L238.717 45.6808L239.424 37.712ZM247.008 38.384L248.639 30.5522L248.18 30.4566L247.714 30.4152L247.008 38.384ZM238.656 15.824L246.629 15.1687L246.626 15.1341L246.623 15.0996L238.656 15.824ZM238.627 15.5056L246.596 14.7982L246.596 14.7978L238.627 15.5056ZM236.639 9.872L242.447 4.37002L242.373 4.29156L242.296 4.21515L236.639 9.872ZM228.768 9.776L234.424 15.4329L234.424 15.4328L228.768 9.776ZM226.751 16.8555L218.752 16.9198L218.752 16.9206L226.751 16.8555ZM233.471 85.616L233.963 93.6009L233.988 93.5994L234.013 93.5977L233.471 85.616ZM239.19 66.3809L231.19 66.439L231.19 66.4391L239.19 66.3809ZM239.232 50L239.134 42.0006L231.457 42.0942L231.235 49.7682L239.232 50ZM247.104 49.904V41.904H247.055L247.006 41.9046L247.104 49.904ZM251.04 45.968L243.377 43.6693L243.248 44.0973L243.169 44.5369L251.04 45.968ZM312.295 84.56L311.78 76.5766L311.248 76.6109L310.726 76.7154L312.295 84.56ZM282.001 84.7199L281.912 92.7194L281.912 92.7194L282.001 84.7199ZM314.119 84.5054L313.997 76.5063L313.997 76.5063L314.119 84.5054ZM322.567 81.968L329.19 86.4548L329.207 86.4302L329.223 86.4056L322.567 81.968ZM324.199 77.744L316.237 76.9609L316.221 77.1303L316.211 77.3002L324.199 77.744ZM324.466 67.2068L332.466 67.1098L332.466 67.1098L324.466 67.2068ZM324.487 60.464L332.483 60.7261L332.487 60.5951V60.464H324.487ZM324.501 59.7304L332.498 59.9614L332.498 59.9609L324.501 59.7304ZM323.527 56.048L328.953 50.1696L328.861 50.0846L328.766 50.0025L323.527 56.048ZM317.095 55.184L318.41 63.0751L318.577 63.0473L318.743 63.0124L317.095 55.184ZM314.023 59.312L306.03 58.9789L306.023 59.1454V59.312H314.023ZM314.023 62.192V70.192H322.023V62.192H314.023ZM275.047 62.192L274.548 70.1764L274.797 70.192H275.047V62.192ZM274.157 62.1929L273.832 54.1995L273.832 54.1995L274.157 62.1929ZM272.743 60.752H264.743V61.151L264.783 61.5481L272.743 60.752ZM272.743 58.256H280.743V57.5215L280.609 56.7993L272.743 58.256ZM267.367 55.184L267.02 47.1915L266.831 47.1997L266.644 47.2168L267.367 55.184ZM267.281 55.1918L268.004 63.1591L268.005 63.159L267.281 55.1918ZM264.295 55.76L261.046 48.4495L261.046 48.4495L264.295 55.76ZM261.895 74.864L253.895 74.8107L253.886 76.1355L254.305 77.3925L261.895 74.864ZM261.942 75.2574L253.978 76.0189L253.978 76.0192L261.942 75.2574ZM264.967 82.832L260.1 89.1808L260.155 89.2236L260.212 89.2654L264.967 82.832ZM272.743 84.656V92.656H272.868L272.993 92.6521L272.743 84.656ZM292.135 23.888L300.135 23.9705L300.135 23.9292V23.888H292.135ZM291.943 42.512L283.943 42.4295L283.943 42.4708V42.512H291.943ZM292.188 21.9981L300.181 22.3266L300.181 22.3264L292.188 21.9981ZM289.351 12.944L293.668 6.20898L293.663 6.2058L289.351 12.944ZM265.927 11.12V3.12H265.732L265.537 3.1295L265.927 11.12ZM260.551 11.504L259.494 3.57418L259.236 3.60847L258.982 3.65935L260.551 11.504ZM256.423 14.384L249.659 10.1121L249.649 10.128L249.639 10.144L256.423 14.384ZM255.367 27.824L263.365 28.0017L263.365 27.9906L255.367 27.824ZM255.266 37.3826L247.272 37.0525L247.272 37.0528L255.266 37.3826ZM256.999 48.464L250.313 52.8574L250.344 52.9043L250.376 52.9508L256.999 48.464ZM267.917 51.3442L267.912 43.3442L267.911 43.3442L267.917 51.3442ZM268.423 51.344V59.344H268.605L268.786 59.3357L268.423 51.344ZM272.612 51.3661L272.455 59.3645L272.455 59.3645L272.612 51.3661ZM278.023 51.344V43.344H277.603L277.186 43.388L278.023 51.344ZM279.912 51.3693L280.072 43.3709L280.072 43.3709L279.912 51.3693ZM288.391 50.384L285.582 42.8934L285.501 42.9239L285.42 42.9562L288.391 50.384ZM309.319 46.448L317.299 47.018L317.319 46.7334V46.448H309.319ZM308.263 50.768L301.204 47.0033L301.155 47.0961L301.108 47.1903L308.263 50.768ZM309.319 35.792V27.792H301.319V35.792H309.319ZM313.639 35.792H321.639V27.792H313.639V35.792ZM313.635 42.5233L305.635 42.4607L305.635 42.4612L313.635 42.5233ZM314.791 50.96L321.947 47.3825L321.831 47.1518L321.701 46.929L314.791 50.96ZM316.423 52.88L321.335 46.5652L321.206 46.465L321.073 46.3701L316.423 52.88ZM321.799 53.168L317.721 46.2857L317.639 46.3339L317.559 46.384L321.799 53.168ZM324.487 15.824L316.642 14.2549L316.487 15.0318V15.824H324.487ZM323.719 11.024L316.455 14.3764L316.508 14.4899L316.564 14.6017L323.719 11.024ZM320.263 8.528L321.511 0.625893L321.427 0.612746L321.344 0.601356L320.263 8.528ZM315.751 10.064L321.697 15.4158L321.904 15.1863L322.092 14.9417L315.751 10.064ZM314.023 12.944L306.36 10.6453L306.345 10.6956L306.331 10.7462L314.023 12.944ZM313.735 17.072L321.734 17.165L321.738 16.8331L321.715 16.502L313.735 17.072ZM313.639 25.328L313.195 33.3157L321.541 33.7793L321.638 25.421L313.639 25.328ZM312.759 25.28L313.191 17.2917L313.191 17.2917L312.759 25.28ZM309.319 25.04H301.319V31.8169L308.004 32.9311L309.319 25.04ZM309.415 17.36V25.36H317.415V17.36H309.415ZM309.031 13.232L301.313 15.3364L301.347 15.4611L301.385 15.5847L309.031 13.232ZM308.889 12.6706L316.661 10.7746L316.661 10.7741L308.889 12.6706ZM307.783 10.256L313.729 4.90429L313.705 4.87713L313.68 4.85021L307.783 10.256ZM303.271 8.816L304.108 16.772L304.23 16.7592L304.352 16.7426L303.271 8.816ZM299.335 11.12L306.49 14.6977L306.546 14.586L306.599 14.4726L299.335 11.12ZM298.567 16.112H306.567V15.45L306.458 14.7971L298.567 16.112ZM301.447 52.88L297.254 59.6933L297.406 59.7867L297.562 59.8733L301.447 52.88ZM306.601 52.6154L311.513 58.9299L311.513 58.9296L306.601 52.6154ZM306.631 52.592L302.662 45.6461L302.168 45.9284L301.719 46.2778L306.631 52.592ZM280.711 26L288.667 26.8374L288.753 26.0209L288.671 25.2039L280.711 26ZM280.684 24.8615L288.683 24.9532L288.683 24.953L280.684 24.8615ZM280.567 31.5819L272.568 31.4831L272.568 31.4831L280.567 31.5819ZM280.327 38.768L272.505 37.0918L272.452 37.3351L272.416 37.5811L280.327 38.768ZM280.283 39.0659L272.367 37.9105L272.367 37.911L280.283 39.0659ZM277.543 41.648L277.41 49.6469L277.476 49.648H277.543V41.648ZM271.783 41.552L271.916 33.5531L271.85 33.552H271.783V41.552ZM267.751 40.304L261.504 45.3016L261.573 45.3875L261.644 45.4715L267.751 40.304ZM266.79 35.5444L258.796 35.2349L258.796 35.2379L266.79 35.5444ZM266.887 28.4L274.876 28.8204L274.887 28.6104V28.4H266.887ZM267.367 22.736L261.346 17.468L261.087 17.7649L260.857 18.086L267.367 22.736ZM269.575 21.584L270.299 29.5511L270.915 29.4951L271.515 29.3451L269.575 21.584ZM272.263 21.392L272.554 13.3973L272.408 13.392H272.263V21.392ZM277.543 21.584L277.252 29.5787L277.398 29.584H277.543V21.584ZM280.519 22.928L288.182 20.6291L288.122 20.4315L288.053 20.2373L280.519 22.928ZM278.407 70.832L278.087 78.8256L278.247 78.832H278.407V70.832ZM277.758 70.802L278.153 62.8117L278.153 62.8117L277.758 70.802ZM287.913 70.8612L287.937 62.8612L287.937 62.8612L287.913 70.8612ZM309.895 70.928V78.928H310.202L310.509 78.9044L309.895 70.928ZM313.351 71.792L307.159 76.858L307.263 76.9846L307.372 77.107L313.351 71.792ZM313.785 73.6735L321.738 74.5403L321.738 74.5399L313.785 73.6735ZM310.456 75.9605L309.706 83.9253L309.706 83.9253L310.456 75.9605ZM309.991 75.92L309.267 83.8871L309.344 83.8942L309.421 83.8997L309.991 75.92ZM288.679 76.112L289.403 68.1449L289.142 68.1211L288.879 68.1145L288.679 76.112ZM276.775 75.92V67.92H276.54L276.305 67.9338L276.775 75.92ZM276.247 75.958L275.62 67.9825L275.62 67.9825L276.247 75.958ZM273.031 74.288L265.186 75.8571L265.24 76.1272L265.313 76.3929L273.031 74.288ZM74.0685 23.031L81.6411 25.611L88.509 5.453L70.0676 16.1033L74.0685 23.031ZM59.0469 67.1212L51.7228 70.3394L59.9909 89.1568L66.6195 69.7012L59.0469 67.1212ZM29 49.0592L24.9991 42.1315L0.268651 56.414L28.8198 57.0572L29 49.0592ZM51.3317 49.5623L58.6559 46.3441L56.6061 41.6791L51.5119 41.5643L51.3317 49.5623ZM133.56 30.512V20.624H117.56V30.512H133.56ZM133.554 32.3542C133.546 31.9316 133.54 31.6097 133.539 31.342C133.539 31.2132 133.54 31.127 133.541 31.0738C133.542 31.0124 133.543 31.0398 133.536 31.1255L117.584 29.8985C117.512 30.8223 117.545 32.0531 117.557 32.6575L133.554 32.3542ZM132.679 39.5211C133.252 38.2298 133.4 37.0172 133.45 36.6047C133.522 36.0023 133.549 35.42 133.562 34.962C133.588 34.0502 133.567 33.0472 133.554 32.3543L117.557 32.6574C117.564 33.036 117.571 33.3793 117.573 33.7085C117.576 34.0387 117.574 34.3036 117.569 34.5107C117.566 34.6116 117.562 34.6812 117.56 34.7237C117.557 34.7692 117.556 34.7602 117.562 34.7087C117.567 34.6664 117.587 34.5133 117.636 34.2881C117.662 34.171 117.702 34.0065 117.763 33.8081C117.823 33.6138 117.916 33.3418 118.058 33.0229L132.679 39.5211ZM109.769 44.3678L125.417 44.2718L125.319 28.2721L109.671 28.3681L109.769 44.3678ZM101.598 22.44C101.567 24.7411 101.52 28.2516 101.52 31.1919C101.52 32.6483 101.532 34.0503 101.567 35.1217C101.584 35.6285 101.61 36.2216 101.663 36.7555C101.685 36.97 101.739 37.489 101.876 38.0778C101.929 38.305 102.105 39.0551 102.536 39.9178C102.746 40.3381 103.232 41.2287 104.143 42.111C105.11 43.046 107.003 44.368 109.72 44.368V28.368C112.427 28.368 114.311 29.6855 115.268 30.6117C116.171 31.485 116.647 32.3624 116.849 32.7651C117.262 33.5928 117.422 34.2906 117.459 34.4494C117.521 34.7158 117.551 34.9166 117.563 34.9974C117.577 35.0931 117.583 35.156 117.585 35.1722C117.586 35.185 117.572 35.0235 117.558 34.5958C117.532 33.7984 117.52 32.6122 117.52 31.1914C117.52 28.3772 117.565 24.9769 117.596 22.6528L101.598 22.44ZM101.624 20.144C101.624 20.4412 101.614 21.2366 101.598 22.4401L117.596 22.6528C117.611 21.5314 117.624 20.5795 117.624 20.144H101.624ZM101.624 19.952V20.144H117.624V19.952H101.624ZM101.63 20.2848L101.636 20.3951L117.612 19.5089L117.606 19.3986L101.63 20.2848ZM101.267 17.1058C101.433 17.6051 101.525 18.3817 101.63 20.2844L117.606 19.399C117.523 17.9034 117.407 14.9295 116.445 12.0462L101.267 17.1058ZM102.616 18.448C103.181 18.448 102.824 18.5631 102.18 18.1363C101.868 17.9293 101.623 17.6801 101.457 17.4507C101.301 17.2357 101.269 17.1142 101.293 17.1839L116.419 11.9681C115.488 9.26723 113.801 6.64297 111.02 4.79969C108.312 3.00486 105.315 2.44799 102.616 2.44799V18.448ZM104.472 19.664C104.472 19.318 104.514 18.8521 104.617 18.3736C104.723 17.8858 104.853 17.5627 104.932 17.4121C105.018 17.2501 104.929 17.4989 104.491 17.8204C104.26 17.9907 103.957 18.1598 103.594 18.2811C103.229 18.4035 102.889 18.448 102.616 18.448V2.44799C96.3452 2.44799 92.5618 6.56035 90.7717 9.96392C89.0541 13.2294 88.472 16.885 88.472 19.664H104.472ZM104.472 69.872V19.664H88.472V69.872H104.472ZM104.466 70.2942C104.467 70.2285 104.472 70.039 104.472 69.872H88.472C88.472 69.8477 88.4722 69.8321 88.4722 69.8292C88.4723 69.8256 88.4722 69.8276 88.4721 69.8377C88.4719 69.8476 88.4716 69.8613 88.4712 69.8809C88.4708 69.9007 88.4703 69.9225 88.4697 69.9498L104.466 70.2942ZM104.219 72.954C104.683 73.2992 104.837 73.6222 104.825 73.5975C104.805 73.5577 104.713 73.3412 104.626 72.8931C104.444 71.9563 104.452 70.9654 104.466 70.294L88.4697 69.95C88.4532 70.7197 88.3859 73.1935 88.9195 75.9424C89.4082 78.4594 90.702 82.8448 94.6774 85.7979L104.219 72.954ZM107.608 73.488C106.255 73.488 105.473 73.4157 104.954 73.3017C104.53 73.2088 104.435 73.1209 104.414 73.1036L94.4824 85.6484C99.0706 89.2807 104.303 89.488 107.608 89.488V73.488ZM127.768 73.488H107.608V89.488H127.768V73.488ZM127.257 73.4992C127.178 73.5068 127.025 73.5213 126.884 73.537L128.652 89.439C128.641 89.4402 128.644 89.4398 128.673 89.437C128.701 89.4342 128.735 89.4309 128.788 89.4258L127.257 73.4992ZM128.447 73.6231C128.757 73.3135 128.997 73.1941 129.018 73.1837C129.041 73.1721 128.965 73.2113 128.757 73.2672C128.557 73.3209 128.317 73.3687 128.048 73.4085C127.778 73.4482 127.539 73.4721 127.256 73.4993L128.788 89.4258C129.393 89.3676 131.058 89.2174 132.916 88.7171C134.661 88.2473 137.448 87.2502 139.761 84.9369L128.447 73.6231ZM128.618 73.6309C128.664 73.5261 128.706 73.4399 128.741 73.3737C128.775 73.3071 128.805 73.2538 128.827 73.2147C128.871 73.1391 128.9 73.0964 128.905 73.089C128.911 73.08 128.905 73.0891 128.885 73.1162C128.865 73.1426 128.837 73.178 128.802 73.2216C128.729 73.3114 128.647 73.4066 128.568 73.4932C128.53 73.535 128.498 73.5696 128.474 73.5949C128.449 73.6217 128.439 73.6311 128.447 73.6231L139.761 84.9369C140.128 84.5699 140.677 83.9804 141.23 83.2984C141.684 82.7385 142.601 81.5643 143.238 80.1291L128.618 73.6309ZM129.944 62.5041C129.946 63.0927 129.952 65.4804 129.733 68.0983C129.623 69.4108 129.467 70.6482 129.263 71.6695C129.033 72.8169 128.843 73.1607 128.918 73.0246L142.938 80.7354C144.036 78.7389 144.61 76.5125 144.951 74.811C145.317 72.9835 145.538 71.0935 145.677 69.4313C145.956 66.0996 145.946 63.1484 145.944 62.4587L129.944 62.5041ZM129.944 62.384C129.944 62.4218 129.944 62.4679 129.944 62.5037L145.944 62.459C145.944 62.413 145.944 62.3939 145.944 62.384H129.944ZM129.944 27.152V62.384H145.944V27.152H129.944ZM130.771 18.0004C129.242 16.9974 129.079 15.8415 129.33 16.5922C129.491 17.0718 129.681 17.9596 129.82 19.2775C130.093 21.8731 130.042 24.86 129.953 26.7803L145.935 27.5237C146.038 25.316 146.131 21.3909 145.732 17.6025C145.535 15.7284 145.185 13.5562 144.506 11.5217C143.917 9.7585 142.614 6.63456 139.549 4.62361L130.771 18.0004ZM131.608 18.256C131.437 18.256 131.326 18.2338 131.235 18.2069C131.154 18.1831 130.913 18.1045 130.572 17.8659L139.748 4.75813C137.272 3.02482 134.275 2.256 131.608 2.256V18.256ZM133.56 20.624C133.56 19.9817 133.563 19.3156 133.625 18.5993C133.689 17.8577 133.798 17.3207 133.905 16.9978C134.023 16.6459 133.993 16.9783 133.479 17.4438C133.197 17.6987 132.837 17.9294 132.428 18.0831C132.025 18.2348 131.723 18.256 131.608 18.256V2.256C128.205 2.256 125.133 3.41826 122.744 5.57921C120.529 7.58369 119.365 10.0221 118.727 11.9382C117.502 15.6107 117.56 19.4598 117.56 20.624H133.56ZM165.016 45.712H165.208V29.712H165.016V45.712ZM162.197 45.4797C162.501 45.5415 164.359 46.0019 166.585 45.5566L163.447 29.8674C164.794 29.5979 165.934 29.9122 165.387 29.8008L162.197 45.4797ZM162.103 45.4606C162.128 45.4657 162.155 45.4712 162.197 45.4797L165.387 29.8008C165.349 29.7933 165.297 29.7825 165.241 29.7714L162.103 45.4606ZM153.656 37.52C153.656 41.1548 155.949 43.2235 156.763 43.8539C157.69 44.5719 158.555 44.9101 158.873 45.029C159.595 45.2996 160.202 45.4045 160.364 45.4328C160.818 45.5118 161.212 45.5421 161.364 45.5535C161.752 45.5823 162.157 45.5949 162.433 45.6016C163.029 45.6162 163.615 45.616 163.672 45.616V29.616C163.633 29.616 163.211 29.6158 162.823 29.6064C162.607 29.6011 162.526 29.5957 162.551 29.5975C162.567 29.5987 162.617 29.6026 162.691 29.6105C162.753 29.6172 162.907 29.6347 163.113 29.6706C163.222 29.6897 163.788 29.7847 164.483 30.0448C164.786 30.1584 165.64 30.4912 166.56 31.2036C167.366 31.8283 169.656 33.8912 169.656 37.52H153.656ZM153.464 35.408C153.464 35.8398 153.409 37.7747 153.964 39.7178L169.348 35.3222C169.41 35.5368 169.439 35.7011 169.454 35.7946C169.468 35.8885 169.471 35.9396 169.47 35.9318C169.47 35.9241 169.467 35.8837 169.466 35.7914C169.465 35.7465 169.465 35.6941 169.464 35.6295C169.464 35.563 169.464 35.4946 169.464 35.408H153.464ZM153.464 30.032V35.408H169.464V30.032H153.464ZM153.452 29.7415C153.458 29.8616 153.46 29.926 153.462 29.9823C153.464 30.0332 153.464 30.0443 153.464 30.032H169.464C169.464 29.5924 169.443 29.1839 169.434 28.9923L153.452 29.7415ZM153.526 26.9279C153.364 28.2196 153.433 29.3454 153.452 29.7415L169.434 28.9924C169.432 28.9332 169.429 28.8875 169.428 28.8437C169.426 28.8011 169.424 28.7679 169.423 28.7401C169.421 28.6839 169.421 28.6617 169.421 28.6596C169.421 28.6595 169.422 28.7578 169.402 28.9121L153.526 26.9279ZM153.421 26.1416C153.446 26.83 153.464 27.3641 153.464 27.92H169.464C169.464 27.0359 169.434 26.226 169.411 25.5704L153.421 26.1416ZM153.368 23.792C153.368 24.676 153.398 25.4858 153.421 26.1416L169.411 25.5704C169.386 24.8822 169.368 24.348 169.368 23.792H153.368ZM153.312 22.2992C153.33 22.8738 153.349 23.4989 153.375 24.125L169.361 23.459C169.339 22.933 169.322 22.394 169.304 21.8045L153.312 22.2992ZM153.057 18.0569C153.206 19.148 153.255 20.4554 153.312 22.2992L169.304 21.8046C169.253 20.1564 169.194 17.9719 168.911 15.8951L153.057 18.0569ZM153.127 17.7645C153.023 17.3495 152.996 17.0323 152.988 16.8991C152.983 16.8326 152.983 16.797 152.983 16.813C152.984 16.8361 152.984 16.8696 152.984 16.976H168.984C168.984 16.7406 169.022 15.3754 168.649 13.8835L153.127 17.7645ZM152.891 16.2129C152.9 16.3179 152.91 16.4322 152.921 16.5484L168.855 15.0996C168.846 15.003 168.838 14.905 168.828 14.7983L152.891 16.2129ZM153.064 15.3739C153.008 15.3142 152.921 15.2054 152.84 15.058C152.762 14.9152 152.729 14.8102 152.723 14.7901C152.721 14.7837 152.745 14.8657 152.779 15.1095C152.815 15.3771 152.844 15.6811 152.891 16.2134L168.828 14.7978C168.666 12.9679 168.448 8.34775 164.68 4.37004L153.064 15.3739ZM155.32 16.432C154.582 16.432 153.811 16.1246 153.215 15.5289L164.529 4.2151C162.205 1.89134 158.938 0.431997 155.32 0.431997V16.432ZM156.657 15.4328C156.079 16.0104 155.575 16.277 155.415 16.3569C155.22 16.454 155.124 16.4773 155.157 16.4678C155.179 16.4614 155.234 16.4482 155.303 16.4383C155.375 16.4279 155.387 16.432 155.32 16.432V0.431997C153.816 0.431997 152.208 0.667053 150.731 1.09222C149.468 1.45584 147.199 2.26325 145.343 4.11915L156.657 15.4328ZM156.984 16.7912C156.983 16.7323 156.978 16.0305 157.107 15.2663C157.171 14.8898 157.239 14.6776 157.263 14.6152C157.271 14.5948 157.246 14.6645 157.167 14.7953C157.088 14.9263 156.928 15.1612 156.657 15.4328L145.343 4.11915C142.462 7.00064 141.635 10.8066 141.332 12.5945C140.966 14.7515 140.981 16.5612 140.984 16.9198L156.984 16.7912ZM156.984 16.88C156.984 16.8478 156.984 16.821 156.984 16.8141C156.984 16.8043 156.984 16.7937 156.984 16.7904L140.984 16.9206C140.984 16.924 140.984 16.9255 140.984 16.9269C140.984 16.9283 140.984 16.9277 140.984 16.9261C140.984 16.9246 140.984 16.9201 140.984 16.9137C140.984 16.9078 140.984 16.8957 140.984 16.88H156.984ZM156.984 73.904V16.88H140.984V73.904H156.984ZM156.142 77.6198C156.17 77.6206 156.35 77.6325 156.618 77.733C156.89 77.8349 157.138 77.9855 157.337 78.1527C157.707 78.4646 157.693 78.6472 157.541 78.261C157.391 77.8816 157.232 77.2655 157.124 76.4065C157.019 75.5739 156.984 74.7062 156.984 73.904H140.984C140.984 76.1354 141.133 80.2755 142.659 84.139C143.455 86.1528 144.779 88.4954 147.03 90.3913C149.403 92.3891 152.362 93.511 155.65 93.6122L156.142 77.6198ZM156.088 85.712C161.745 80.0551 161.743 80.0538 161.742 80.0524C161.742 80.0519 161.74 80.0505 161.739 80.0496C161.737 80.0477 161.736 80.0459 161.734 80.044C161.73 80.0403 161.726 80.0365 161.722 80.0328C161.715 80.0252 161.707 80.0175 161.699 80.0098C161.683 79.9943 161.667 79.9784 161.65 79.9621C161.617 79.9296 161.581 79.8953 161.542 79.8594C161.466 79.7883 161.378 79.7085 161.278 79.6229C161.087 79.459 160.813 79.2392 160.466 79.0076C160.031 78.718 158.349 77.616 155.896 77.616V93.616C154.616 93.616 153.61 93.3047 152.995 93.0588C152.364 92.8064 151.889 92.5193 151.59 92.3204C151.279 92.1128 151.035 91.917 150.865 91.7711C150.776 91.6945 150.696 91.6222 150.625 91.5563C150.59 91.5231 150.556 91.4909 150.524 91.4597C150.507 91.4442 150.492 91.4288 150.476 91.4136C150.469 91.4061 150.461 91.3986 150.453 91.3911C150.45 91.3874 150.446 91.3836 150.442 91.3799C150.44 91.3781 150.439 91.3762 150.437 91.3744C150.436 91.3735 150.434 91.3721 150.434 91.3716C150.433 91.3702 150.431 91.3689 156.088 85.712ZM153.181 79.0531C153.53 78.6597 154.001 78.2982 154.571 78.0465C155.138 77.7958 155.672 77.712 156.088 77.712V93.712C159.55 93.712 162.807 92.307 165.139 89.6829L153.181 79.0531ZM153.464 73.808C153.464 75.5844 153.45 77.0555 153.263 78.3045C153.175 78.8948 153.078 79.2112 153.033 79.326C152.988 79.4429 153.083 79.1313 153.503 78.7111L164.817 90.0249C167.836 87.006 168.731 83.0605 169.089 80.6635C169.478 78.0485 169.464 75.3916 169.464 73.808H153.464ZM153.464 72.464V73.808H169.464V72.464H153.464ZM153.467 62.9072C153.559 66.0168 153.559 69.2175 153.468 72.2217L169.46 72.7063C169.561 69.3745 169.561 65.8552 169.461 62.4368L153.467 62.9072ZM153.445 59.1418C153.455 60.482 153.464 61.6943 153.464 62.672H169.464C169.464 61.6219 169.454 60.3433 169.445 59.0229L153.445 59.1418ZM153.468 50.3337C153.396 52.7052 153.424 56.2563 153.445 59.1418L169.445 59.0228C169.422 56.0037 169.4 52.8147 169.46 50.8183L153.468 50.3337ZM161.56 50.192C161.56 42.192 161.544 42.192 161.529 42.1921C161.523 42.1921 161.508 42.1922 161.497 42.1922C161.476 42.1924 161.455 42.1927 161.434 42.193C161.392 42.1937 161.349 42.1947 161.306 42.196C161.22 42.1988 161.133 42.2029 161.045 42.2086C160.868 42.22 160.687 42.2376 160.502 42.2623C160.13 42.3118 159.748 42.3893 159.358 42.5006C158.567 42.7265 157.807 43.0752 157.107 43.5417C155.692 44.4851 154.843 45.6895 154.356 46.6625C153.497 48.3821 153.464 49.9754 153.464 50.576H169.464C169.464 50.7925 169.479 52.1939 168.668 53.8175C168.205 54.7425 167.38 55.9229 165.983 56.8543C165.292 57.3148 164.539 57.6605 163.754 57.8849C163.367 57.9955 162.986 58.0726 162.616 58.1219C162.432 58.1465 162.251 58.164 162.075 58.1754C161.987 58.1811 161.9 58.1852 161.814 58.188C161.771 58.1893 161.728 58.1903 161.686 58.191C161.665 58.1913 161.644 58.1916 161.623 58.1918C161.612 58.1918 161.597 58.1919 161.591 58.1919C161.576 58.192 161.56 58.192 161.56 50.192ZM161.848 42.096C160.37 42.096 159.081 42.4754 158.055 42.9885C157.554 43.2385 157.13 43.513 156.778 43.7768C156.602 43.909 156.442 44.0403 156.297 44.167C156.224 44.2304 156.155 44.293 156.09 44.3543C156.057 44.385 156.025 44.4154 155.994 44.4455C155.979 44.4605 155.963 44.4755 155.948 44.4904C155.941 44.4978 155.933 44.5052 155.926 44.5127C155.922 44.5164 155.918 44.5201 155.915 44.5237C155.913 44.5256 155.91 44.5284 155.909 44.5293C155.906 44.532 155.903 44.5348 161.56 50.192C167.217 55.8492 167.214 55.852 167.211 55.8547C167.21 55.8556 167.207 55.8584 167.205 55.8602C167.202 55.8639 167.198 55.8676 167.194 55.8713C167.187 55.8787 167.179 55.8861 167.172 55.8935C167.157 55.9083 167.142 55.9231 167.126 55.938C167.096 55.9677 167.064 55.9976 167.032 56.0275C166.968 56.0875 166.902 56.148 166.832 56.2088C166.693 56.3302 166.542 56.4539 166.378 56.5772C166.05 56.823 165.662 57.0735 165.209 57.2995C164.279 57.7646 163.134 58.096 161.848 58.096V42.096ZM164.889 42.1043C163.924 42.0838 162.597 42.0513 161.467 42.1051L162.229 58.0869C162.685 58.0652 163.387 58.076 164.548 58.1007L164.889 42.1043ZM168.205 42.0804C167.78 42.141 166.794 42.1449 164.889 42.1043L164.548 58.1007C165.924 58.13 168.445 58.2085 170.467 57.9196L168.205 42.0804ZM167.128 42.352C167.035 42.422 167.036 42.4097 167.126 42.3646C167.222 42.3168 167.44 42.2207 167.767 42.1554L170.905 57.8446C173.455 57.3346 175.418 56.1343 176.728 55.152L167.128 42.352ZM165.427 44.2071C165.382 44.4349 165.358 44.5431 165.339 44.6213C165.32 44.6964 165.326 44.6563 165.368 44.5448C165.408 44.4384 165.519 44.1647 165.747 43.8103C165.98 43.4494 166.38 42.9321 167.016 42.4372L176.84 55.0668C178.928 53.4424 179.89 51.3801 180.336 50.1992C180.8 48.9711 181.026 47.7986 181.117 47.3449L165.427 44.2071ZM165.56 42.992C165.56 43.2462 165.56 43.4015 165.557 43.5412C165.554 43.6706 165.551 43.7319 165.549 43.7544C165.547 43.7729 165.549 43.7462 165.559 43.6895C165.569 43.6307 165.585 43.5572 165.609 43.4773L180.935 48.0747C181.606 45.8358 181.56 43.8449 181.56 42.992H165.56ZM166.104 44.7361C165.635 43.9852 165.56 43.3062 165.56 42.992H181.56C181.56 40.9498 181.101 38.5428 179.672 36.2559L166.104 44.7361ZM167.671 46.0366C167.999 46.1022 167.839 46.1123 167.467 45.9053C167.005 45.6487 166.173 45.0254 165.639 43.8791L180.137 37.1129C177.716 31.9241 172.601 30.7057 170.809 30.3474L167.671 46.0366ZM165.901 45.8236C166.656 45.9315 167.498 46.0365 168.248 46.1302L170.232 30.2538C169.446 30.1555 168.752 30.0685 168.163 29.9844L165.901 45.8236ZM164.784 45.7017C165.024 45.7403 165.953 45.904 167.032 45.904V29.904C167.252 29.904 167.407 29.9204 167.459 29.9265C167.485 29.9294 167.491 29.9307 167.466 29.927C167.436 29.9225 167.399 29.9167 167.315 29.9032L164.784 45.7017ZM165.208 45.712C164.927 45.712 164.727 45.6897 164.667 45.6824C164.635 45.6785 164.623 45.6765 164.645 45.6798C164.672 45.6838 164.705 45.6891 164.784 45.7017L167.315 29.9032C167.146 29.8762 166.232 29.712 165.208 29.712V45.712ZM108.902 77.8719L125.606 77.7759L125.514 61.7761L108.81 61.8721L108.902 77.8719ZM100.872 67.5149C100.864 68.4644 100.856 69.3297 100.856 69.872H116.856C116.856 69.418 116.863 68.6423 116.871 67.6545L100.872 67.5149ZM100.866 60.3835C100.921 61.4761 100.896 64.77 100.872 67.5149L116.871 67.6545C116.892 65.2437 116.931 61.2831 116.846 59.5845L100.866 60.3835ZM100.839 56.9104C100.848 58.1598 100.856 59.2305 100.856 59.984H116.856C116.856 59.156 116.847 58.0137 116.838 56.7903L100.839 56.9104ZM100.861 47.9865C100.786 50.1031 100.817 54.043 100.839 56.9104L116.838 56.7903C116.815 53.7246 116.791 50.2354 116.851 48.5575L100.861 47.9865ZM125.418 40.1761L108.81 40.2721L108.902 56.2719L125.51 56.1759L125.418 40.1761ZM133.56 69.7404L133.464 48.1404L117.464 48.2116L117.56 69.8116L133.56 69.7404ZM213.887 76.72C214.541 76.72 214.984 76.7597 215.262 76.8069C215.548 76.8554 215.482 76.8825 215.228 76.7487C214.924 76.5887 214.46 76.2536 214.077 75.6902C213.698 75.133 213.627 74.6903 213.621 74.636L229.514 72.788C228.974 68.1468 226.446 64.5702 222.675 62.5873C219.523 60.9298 216.122 60.72 213.887 60.72V76.72ZM193.748 75.9676C194.581 76.0866 197.736 76.2663 201.122 76.4126C204.796 76.5712 209.505 76.72 213.887 76.72V60.72C209.822 60.72 205.363 60.5808 201.813 60.4275C197.975 60.2617 195.85 60.1055 196.011 60.1284L193.748 75.9676ZM182.943 63.728C182.943 65.772 183.296 68.9953 185.539 71.8096C188.067 74.9815 191.675 76.048 194.88 76.048V60.048C194.936 60.048 195.398 60.055 196.063 60.3297C196.782 60.6267 197.494 61.1381 198.052 61.8384C199.071 63.1167 198.943 64.18 198.943 63.728H182.943ZM182.56 30.6045L182.944 63.8205L198.943 63.6355L198.559 30.4195L182.56 30.6045ZM182.559 30.416V30.512H198.559V30.416H182.559ZM188.991 16.6109C185.999 17.8708 184.497 20.2478 183.803 21.741C183.09 23.2757 182.79 24.7939 182.644 25.8766C182.35 28.0485 182.459 30.1942 182.63 31.4733L198.489 29.3587C198.492 29.3761 198.485 29.3257 198.477 29.2115C198.469 29.1032 198.463 28.9665 198.461 28.8132C198.457 28.4849 198.475 28.203 198.499 28.0194C198.533 27.7701 198.539 27.9983 198.315 28.48C198.11 28.9202 197.28 30.4812 195.2 31.3571L188.991 16.6109ZM196.896 15.504C195.915 15.504 194.693 15.5302 193.516 15.6269C192.727 15.6918 190.675 15.8607 188.846 16.6735L195.345 31.2945C194.961 31.4648 194.672 31.5477 194.556 31.5787C194.487 31.5974 194.436 31.6091 194.407 31.6154C194.392 31.6187 194.38 31.6209 194.373 31.6223C194.37 31.623 194.367 31.6235 194.366 31.6238C194.365 31.6239 194.364 31.6241 194.364 31.6241C194.363 31.6242 194.363 31.6243 194.363 31.6243C194.363 31.6243 194.364 31.6241 194.365 31.6239C194.367 31.6236 194.369 31.6232 194.372 31.6227C194.379 31.6217 194.388 31.6203 194.399 31.6186C194.423 31.6152 194.455 31.6108 194.497 31.6057C194.582 31.5955 194.691 31.5842 194.827 31.5731C195.402 31.5258 196.148 31.504 196.896 31.504V15.504ZM210.26 15.5838C208.585 15.5553 205.543 15.504 196.896 15.504V31.504C205.464 31.504 208.414 31.5547 209.987 31.5815L210.26 15.5838ZM211.583 15.6C211.222 15.6 210.879 15.5944 210.26 15.5838L209.987 31.5815C210.576 31.5915 211.061 31.6 211.583 31.6V15.6ZM215.115 15.3589C215.054 15.3741 214.738 15.442 214.09 15.5017C213.465 15.5593 212.634 15.6 211.583 15.6V31.6C214.363 31.6 216.93 31.3977 218.996 30.8811L215.115 15.3589ZM212.462 17.5068C213.295 16.0085 214.522 15.5186 214.951 15.4019L219.16 30.8381C221.701 30.1453 224.656 28.5035 226.449 25.2772L212.462 17.5068ZM212.058 17.9699C212.007 17.8178 211.976 17.7003 211.959 17.6278C211.94 17.5535 211.931 17.5038 211.927 17.4831C211.921 17.4464 211.926 17.4683 211.934 17.5553C211.951 17.7365 211.961 18.0096 211.951 18.3152C211.947 18.4607 211.939 18.5922 211.929 18.7025C211.918 18.8155 211.908 18.8826 211.905 18.9038C211.9 18.9346 211.911 18.8537 211.958 18.6896C211.983 18.6034 212.025 18.4662 212.092 18.2917C212.158 18.1219 212.266 17.8666 212.432 17.5612L226.479 25.2228C227.283 23.7485 227.568 22.2517 227.687 21.5342C227.841 20.6103 227.917 19.6667 227.944 18.8048C227.988 17.3697 227.933 14.9992 227.237 12.9101L212.058 17.9699ZM210.155 19.694C210.311 19.6915 210.73 19.6844 211.299 19.716C211.893 19.749 212.524 19.8181 213.071 19.9337C213.68 20.0625 213.807 20.1706 213.64 20.0702C213.414 19.9342 212.457 19.2642 212.005 17.8054L227.29 13.0746C226.238 9.67557 223.891 7.56555 221.89 6.36128C219.948 5.19256 217.914 4.6042 216.382 4.28001C213.303 3.62896 210.435 3.68742 209.898 3.69606L210.155 19.694ZM209.952 19.696C210.018 19.696 210.075 19.6952 210.091 19.695C210.115 19.6946 210.141 19.6942 210.155 19.694L209.898 3.69606C209.889 3.6962 209.882 3.6963 209.877 3.69639C209.872 3.69647 209.87 3.69649 209.871 3.69648C209.871 3.69648 209.878 3.69638 209.888 3.69628C209.894 3.69623 209.902 3.69616 209.912 3.69611C209.921 3.69605 209.935 3.696 209.952 3.696V19.696ZM187.488 19.696H209.952V3.696H187.488V19.696ZM184.726 18.6318C184.251 19.4133 183.722 19.8577 183.449 20.0565C183.177 20.2549 183.016 20.3133 183.072 20.2899C183.216 20.2298 183.643 20.0938 184.392 19.9663C185.089 19.8474 185.82 19.7763 186.44 19.7369C186.741 19.7178 186.997 19.7074 187.185 19.7019C187.278 19.6991 187.353 19.6976 187.407 19.6968C187.462 19.696 187.489 19.696 187.488 19.696V3.696C186.955 3.696 184.454 3.72487 181.703 4.19374C180.34 4.42618 178.595 4.81819 176.891 5.53207C175.358 6.1741 172.749 7.52793 171.049 10.3282L184.726 18.6318ZM184.655 24.0045C184.668 24.0934 184.506 22.6738 184.552 20.9637C184.575 20.1346 184.644 19.412 184.747 18.8626C184.865 18.2315 184.95 18.2626 184.729 18.6264L171.046 10.3336C168.902 13.8718 168.62 18.2726 168.559 20.5243C168.485 23.1822 168.707 25.5066 168.816 26.2675L184.655 24.0045ZM184.736 65.936V25.136H168.736V65.936H184.736ZM184.728 66.3337C184.729 66.2984 184.73 66.2502 184.731 66.209C184.732 66.2019 184.736 66.0739 184.736 65.936H168.736C168.736 65.892 168.736 65.8576 168.736 65.839C168.736 65.8188 168.737 65.8032 168.737 65.7946C168.737 65.7783 168.737 65.7695 168.737 65.7744C168.737 65.7778 168.737 65.7853 168.737 65.7994C168.736 65.8134 168.736 65.8294 168.735 65.8506L184.728 66.3337ZM184.996 71.6876C185.103 71.9276 185.037 71.866 184.943 71.3027C184.86 70.8095 184.796 70.1857 184.756 69.4835C184.676 68.0786 184.714 66.7936 184.728 66.3343L168.735 65.85C168.719 66.3958 168.661 68.2569 168.782 70.3908C168.884 72.1951 169.161 75.4788 170.395 78.2324L184.996 71.6876ZM184.885 71.8758C184.999 71.9083 185.083 71.9411 185.139 71.9656C185.195 71.9901 185.23 72.0094 185.245 72.0184C185.272 72.0341 185.252 72.0255 185.205 71.9821C185.159 71.9397 185.112 71.8878 185.075 71.8357C185.037 71.7834 185.026 71.757 185.032 71.7702L170.359 78.1498C172.161 82.2956 175.918 85.9541 180.49 87.2602L184.885 71.8758ZM191.062 72.5016C188.185 72.4179 186.351 72.3147 184.986 71.9054L180.389 87.2306C184.143 88.357 188.186 88.4247 190.597 88.4948L191.062 72.5016ZM192.074 72.5324C191.734 72.5211 191.39 72.5111 191.062 72.5016L190.597 88.4948C190.931 88.5045 191.24 88.5135 191.541 88.5236L192.074 72.5324ZM192.576 72.528H191.807V88.528H192.576V72.528ZM199.997 72.5478C197.23 72.5377 194.571 72.528 192.576 72.528V88.528C194.535 88.528 197.16 88.5376 199.939 88.5477L199.997 72.5478ZM214.082 72.5331C212.452 72.5913 206.115 72.5701 199.997 72.5478L199.939 88.5477C205.777 88.569 212.61 88.5959 214.653 88.5229L214.082 72.5331ZM213.621 74.636C213.567 74.1688 213.648 73.6069 213.885 73.1011C214.097 72.6471 214.34 72.4353 214.389 72.3951C214.435 72.3579 214.385 72.4062 214.227 72.465C214.158 72.491 214.088 72.5109 214.025 72.5243C213.995 72.5307 213.97 72.5348 213.951 72.5373C213.933 72.5398 213.923 72.5403 213.924 72.5403L214.811 88.5157C218.073 88.3344 221.647 87.1213 224.498 84.7969C227.529 82.3262 230.139 78.1638 229.514 72.788L213.621 74.636ZM238.717 45.6808L246.301 46.3528L247.714 30.4152L240.13 29.7432L238.717 45.6808ZM230.682 16.4793C231.234 23.1888 231.424 30.5353 231.424 37.712H247.424C247.424 30.2967 247.229 22.4752 246.629 15.1687L230.682 16.4793ZM230.658 16.2129C230.668 16.3179 230.678 16.4323 230.688 16.5484L246.623 15.0996C246.614 15.003 246.605 14.905 246.596 14.7982L230.658 16.2129ZM230.832 15.374C230.775 15.3143 230.689 15.2054 230.608 15.058C230.529 14.9152 230.496 14.8102 230.491 14.7901C230.489 14.7837 230.513 14.8657 230.546 15.1095C230.583 15.3771 230.611 15.6811 230.658 16.2134L246.596 14.7978C246.433 12.9679 246.215 8.34773 242.447 4.37002L230.832 15.374ZM233.088 16.432C232.349 16.432 231.578 16.1247 230.983 15.5288L242.296 4.21515C239.973 1.89133 236.706 0.431997 233.088 0.431997V16.432ZM234.424 15.4328C233.847 16.0104 233.342 16.277 233.182 16.3569C232.988 16.454 232.892 16.4773 232.925 16.4678C232.947 16.4614 233.002 16.4482 233.07 16.4383C233.143 16.4279 233.154 16.432 233.088 16.432V0.431997C231.584 0.431997 229.975 0.66705 228.498 1.09222C227.235 1.45584 224.967 2.26326 223.111 4.11915L234.424 15.4328ZM234.751 16.7912C234.751 16.7323 234.745 16.0305 234.875 15.2663C234.938 14.8898 235.006 14.6776 235.031 14.6152C235.039 14.5948 235.014 14.6645 234.935 14.7953C234.855 14.9263 234.696 15.1612 234.424 15.4329L223.111 4.11914C220.229 7.00064 219.402 10.8066 219.099 12.5945C218.734 14.7515 218.749 16.5612 218.752 16.9198L234.751 16.7912ZM234.751 16.88C234.751 16.8506 234.751 16.8262 234.751 16.8178C234.751 16.8067 234.751 16.7963 234.751 16.7904L218.752 16.9206C218.752 16.926 218.752 16.9252 218.752 16.9223C218.752 16.9206 218.752 16.9162 218.752 16.9102C218.752 16.9047 218.751 16.8939 218.751 16.88H234.751ZM234.751 75.824V16.88H218.751V75.824H234.751ZM232.98 77.6311C232.778 77.6435 233.322 77.5824 234.073 78.0589C234.785 78.5099 235.042 79.0389 235.062 79.0821C235.069 79.0982 235.038 79.031 234.993 78.8514C234.948 78.6737 234.902 78.4308 234.862 78.1141C234.78 77.4598 234.751 76.7005 234.751 75.824H218.751C218.751 77.8286 218.801 81.9504 220.481 85.6699C221.401 87.7051 222.948 89.9501 225.505 91.5711C228.101 93.2176 231.045 93.7805 233.963 93.6009L232.98 77.6311ZM231.232 74.768C231.232 75.5843 231.223 76.367 231.157 77.1474C231.089 77.9479 230.977 78.4999 230.87 78.827C230.757 79.1722 230.775 78.8879 231.224 78.4576C231.467 78.2243 231.782 78.0037 232.147 77.8445C232.509 77.6867 232.795 77.6435 232.93 77.6343L234.013 93.5977C237.247 93.3784 240.099 92.1148 242.298 90.0054C244.358 88.0301 245.462 85.6878 246.081 83.789C247.262 80.1688 247.232 76.327 247.232 74.768H231.232ZM231.19 66.4391C231.211 69.3439 231.232 72.1778 231.232 74.768H247.232C247.232 72.1087 247.21 69.2139 247.189 66.3227L231.19 66.4391ZM231.235 49.7682C231.101 54.3883 231.147 60.5947 231.19 66.439L247.189 66.3227C247.146 60.3678 247.105 54.4957 247.228 50.2318L231.235 49.7682ZM247.006 41.9046L239.134 42.0006L239.329 57.9994L247.201 57.9034L247.006 41.9046ZM243.169 44.5369C243.133 44.7348 243.176 44.174 243.832 43.4317C244.196 43.0193 244.715 42.5977 245.383 42.2956C246.053 41.9928 246.666 41.904 247.104 41.904V57.904C250.606 57.904 253.674 56.4569 255.823 54.0243C257.751 51.842 258.562 49.3132 258.91 47.3991L243.169 44.5369ZM243.327 43.184C243.327 43.4382 243.327 43.5935 243.325 43.7332C243.322 43.8626 243.318 43.9239 243.316 43.9464C243.315 43.9649 243.316 43.9382 243.326 43.8815C243.337 43.8227 243.353 43.7492 243.377 43.6693L258.702 48.2667C259.374 46.0278 259.327 44.0369 259.327 43.184H243.327ZM245.376 46.2158C245.355 46.2116 245.255 46.1892 245.094 46.1088C244.93 46.0273 244.664 45.8667 244.375 45.5769C244.074 45.2761 243.787 44.8748 243.586 44.3894C243.384 43.902 243.327 43.4724 243.327 43.184H259.327C259.327 39.6688 257.98 36.5544 255.688 34.2631C253.542 32.1168 250.923 31.028 248.639 30.5522L245.376 46.2158ZM310.726 76.7154C310.989 76.6628 310.318 76.7496 307.938 76.8026C305.939 76.8472 303.328 76.864 300.396 76.8622C294.542 76.8587 287.601 76.7816 282.09 76.7204L281.912 92.7194C287.403 92.7804 294.433 92.8586 300.387 92.8622C303.359 92.864 306.113 92.8473 308.295 92.7987C310.096 92.7585 312.425 92.6924 313.864 92.4046L310.726 76.7154ZM313.997 76.5063C313.389 76.5156 312.558 76.5264 311.78 76.5766L312.81 92.5434C313.117 92.5236 313.524 92.5154 314.241 92.5044L313.997 76.5063ZM315.944 77.4812C316.36 76.8664 316.846 76.521 317.132 76.365C317.375 76.2319 317.443 76.2502 317.183 76.3052C316.933 76.3582 316.543 76.4113 315.963 76.4474C315.377 76.4838 314.766 76.4946 313.997 76.5063L314.241 92.5044C315.572 92.4841 318.067 92.4721 320.493 91.9591C322.908 91.4486 326.682 90.1581 329.19 86.4548L315.944 77.4812ZM316.211 77.3002C316.21 77.3287 316.211 77.2737 316.236 77.1645C316.261 77.0512 316.296 76.9491 316.326 76.8776C316.352 76.8158 316.355 76.8228 316.293 76.9303C316.224 77.0485 316.113 77.2261 315.911 77.5304L329.223 86.4056C330.458 84.5533 331.972 82.05 332.187 78.1878L316.211 77.3002ZM316.467 67.3038C316.51 70.8594 316.539 73.8933 316.237 76.9609L332.161 78.5271C332.562 74.4425 332.507 70.5391 332.466 67.1098L316.467 67.3038ZM316.491 60.2019C316.41 62.6903 316.44 65.1042 316.467 67.3038L332.466 67.1098C332.438 64.8561 332.415 62.7976 332.483 60.7261L316.491 60.2019ZM316.505 59.4995C316.498 59.7259 316.487 60.0879 316.487 60.464H332.487C332.487 60.3585 332.49 60.2295 332.498 59.9614L316.505 59.4995ZM318.101 61.9264C317.627 61.4891 317.247 60.971 316.975 60.4284C316.715 59.9077 316.604 59.4661 316.556 59.2066C316.511 58.961 316.513 58.8308 316.515 58.9071C316.517 59.0009 316.515 59.1321 316.505 59.5L332.498 59.9609C332.513 59.424 333.11 54.0069 328.953 50.1696L318.101 61.9264ZM318.743 63.0124C318.743 63.0124 318.746 63.0118 318.752 63.0107C318.758 63.0095 318.766 63.008 318.777 63.0062C318.8 63.0024 318.83 62.9978 318.867 62.993C318.943 62.983 319.038 62.9736 319.145 62.9672C319.371 62.9537 319.58 62.9576 319.738 62.9718C319.912 62.9875 319.895 63.004 319.726 62.9496C319.632 62.9195 319.453 62.8552 319.218 62.7329C318.984 62.6109 318.652 62.4096 318.288 62.0935L328.766 50.0025C326.115 47.7047 322.882 47.1901 321.172 47.0362C319.171 46.8561 317.126 47.0021 315.447 47.3556L318.743 63.0124ZM322.016 59.6451C322.044 58.9663 322.148 59.8353 321.37 60.992C320.926 61.6519 320.33 62.2051 319.666 62.5898C319.046 62.9485 318.56 63.0501 318.41 63.0751L315.78 47.2928C313.026 47.7519 310.076 49.1137 308.092 52.064C306.379 54.6127 306.098 57.3537 306.03 58.9789L322.016 59.6451ZM322.023 62.192V59.312H306.023V62.192H322.023ZM275.047 70.192H314.023V54.192H275.047V70.192ZM274.482 70.1863C274.515 70.1849 274.539 70.184 274.562 70.1831C274.584 70.1822 274.601 70.1816 274.615 70.1811C274.643 70.1802 274.654 70.1801 274.655 70.1801C274.656 70.1801 274.645 70.1802 274.626 70.1798C274.607 70.1794 274.58 70.1784 274.548 70.1764L275.546 54.2076C274.747 54.1576 274.079 54.1894 273.832 54.1995L274.482 70.1863ZM264.783 61.5481C264.844 62.1657 264.972 63.1363 265.327 64.1825C265.702 65.2867 266.492 66.9548 268.2 68.3107C269.932 69.6859 271.732 70.0437 272.76 70.1501C273.617 70.2389 274.444 70.1878 274.482 70.1863L273.832 54.1995C273.428 54.2159 273.876 54.1802 274.409 54.2353C275.112 54.3081 276.642 54.5833 278.149 55.7803C279.633 56.958 280.245 58.3524 280.478 59.041C280.692 59.6715 280.716 60.0844 280.703 59.9559L264.783 61.5481ZM264.743 58.256V60.752H280.743V58.256H264.743ZM267.715 63.1764C268.164 63.1569 267.984 63.2625 267.406 63.0009C267.046 62.8382 266.464 62.4959 265.912 61.8464C265.33 61.1603 265.002 60.3875 264.877 59.7127L280.609 56.7993C279.81 52.4809 276.947 49.756 274 48.4231C271.406 47.2495 268.778 47.1151 267.02 47.1915L267.715 63.1764ZM268.005 63.159L268.09 63.1512L266.644 47.2168L266.558 47.2245L268.005 63.159ZM267.544 63.0705C267.287 63.185 267.1 63.2387 267.027 63.2582C266.951 63.2782 266.936 63.2777 267.005 63.2664C267.073 63.2553 267.183 63.24 267.359 63.2209C267.541 63.2013 267.735 63.1835 268.004 63.1591L266.559 47.2245C265.928 47.2817 263.344 47.4279 261.046 48.4495L267.544 63.0705ZM269.991 60.08C269.991 59.9301 270.026 60.3161 269.718 60.9635C269.55 61.316 269.282 61.7378 268.877 62.1451C268.465 62.5595 268 62.8679 267.544 63.0705L261.046 48.4495C255.056 51.1118 253.991 56.9371 253.991 60.08H269.991ZM261.895 74.864C269.895 74.9173 269.895 74.9173 269.895 74.9172C269.895 74.9171 269.895 74.9169 269.895 74.9167C269.895 74.9162 269.895 74.9156 269.895 74.9147C269.895 74.913 269.895 74.9103 269.895 74.9069C269.895 74.9 269.895 74.8896 269.895 74.876C269.895 74.8487 269.896 74.8083 269.896 74.7555C269.897 74.6499 269.898 74.495 269.899 74.2977C269.902 73.9032 269.905 73.3391 269.91 72.6611C269.919 71.305 269.931 69.4928 269.943 67.6686C269.967 64.0522 269.991 60.307 269.991 60.08H253.991C253.991 60.0757 253.991 60.1252 253.99 60.2649C253.989 60.3893 253.988 60.562 253.987 60.7767C253.984 61.206 253.981 61.799 253.976 62.5007C253.967 63.904 253.955 65.7395 253.943 67.5634C253.931 69.3872 253.919 71.199 253.91 72.5549C253.906 73.2329 253.902 73.7968 253.899 74.1913C253.898 74.3885 253.897 74.5434 253.896 74.6489C253.896 74.7017 253.896 74.7421 253.895 74.7694C253.895 74.783 253.895 74.7933 253.895 74.8002C253.895 74.8037 253.895 74.8063 253.895 74.8081C253.895 74.8089 253.895 74.8096 253.895 74.81C253.895 74.8102 253.895 74.8104 253.895 74.8105C253.895 74.8106 253.895 74.8107 261.895 74.864ZM269.906 74.4958C269.898 74.4172 269.882 74.2463 269.865 74.0933C269.856 74.0169 269.838 73.8616 269.809 73.6773C269.802 73.6305 269.718 73.0346 269.485 72.3355L254.305 77.3925C254.168 76.9815 254.097 76.6513 254.068 76.516C254.034 76.3502 254.012 76.2187 254.001 76.1467C253.979 76.0063 253.968 75.9065 253.967 75.8966C253.964 75.8765 253.965 75.8824 253.978 76.0189L269.906 74.4958ZM269.834 76.4832C270.063 76.6587 270.218 76.8232 270.31 76.9353C270.4 77.0455 270.439 77.1148 270.441 77.1176C270.442 77.1207 270.42 77.0809 270.383 76.9877C270.346 76.8955 270.303 76.7715 270.257 76.6142C270.052 75.9035 269.967 75.1354 269.906 74.4956L253.978 76.0192C254.046 76.7225 254.232 78.7901 254.886 81.0552C255.482 83.1187 256.828 86.6727 260.1 89.1808L269.834 76.4832ZM272.743 76.656C271.588 76.656 270.788 76.6061 270.185 76.493C269.604 76.384 269.558 76.2774 269.722 76.3986L260.212 89.2654C264.752 92.6208 270.228 92.656 272.743 92.656V76.656ZM282.09 76.7204C277.54 76.6698 273.638 76.6241 272.493 76.6599L272.993 92.6521C273.691 92.6303 277.035 92.6652 281.912 92.7194L282.09 76.7204ZM284.135 23.8055L283.943 42.4295L299.943 42.5945L300.135 23.9705L284.135 23.8055ZM284.195 21.6696C284.169 22.287 284.135 23.0921 284.135 23.888H300.135C300.135 23.4807 300.153 23.0147 300.181 22.3266L284.195 21.6696ZM285.034 19.679C284.791 19.5238 284.524 19.2635 284.327 18.9456C284.154 18.6657 284.138 18.506 284.163 18.6246C284.191 18.7601 284.233 19.0585 284.243 19.6157C284.253 20.187 284.23 20.8044 284.195 21.6698L300.181 22.3264C300.24 20.8878 300.399 18.0923 299.823 15.3418C299.173 12.2422 297.497 8.66295 293.668 6.20898L285.034 19.679ZM280.903 19.12C282.056 19.12 283.042 19.1832 283.851 19.329C284.68 19.4784 285.003 19.6595 285.039 19.6822L293.663 6.2058C289.164 3.32602 283.823 3.12 280.903 3.12V19.12ZM265.927 19.12H280.903V3.12H265.927V19.12ZM261.608 19.4338C261.996 19.3821 263.047 19.3005 264.273 19.2247C264.827 19.1905 265.341 19.1617 265.718 19.1415C265.906 19.1314 266.058 19.1236 266.162 19.1183C266.214 19.1156 266.254 19.1136 266.28 19.1123C266.294 19.1116 266.303 19.1112 266.309 19.1109C266.312 19.1107 266.315 19.1106 266.316 19.1105C266.316 19.1105 266.317 19.1105 266.317 19.1105C266.317 19.1105 266.317 19.1105 266.317 19.1105C266.317 19.1105 266.317 19.1105 266.317 19.1105C266.317 19.1105 266.317 19.1105 265.927 11.12C265.537 3.1295 265.537 3.1295 265.537 3.12951C265.537 3.12952 265.537 3.12952 265.537 3.12953C265.536 3.12954 265.536 3.12956 265.536 3.12958C265.535 3.12962 265.534 3.12967 265.532 3.12973C265.53 3.12986 265.526 3.13003 265.522 3.13025C265.513 3.13068 265.501 3.1313 265.485 3.1321C265.453 3.1337 265.407 3.136 265.348 3.13898C265.231 3.14492 265.065 3.15355 264.861 3.16448C264.455 3.18628 263.895 3.21754 263.285 3.25526C262.183 3.32345 260.546 3.43389 259.494 3.57418L261.608 19.4338ZM263.187 18.6559C263.418 18.2908 263.275 18.6239 262.721 19.0035C262.159 19.3887 261.757 19.4213 262.12 19.3486L258.982 3.65935C257.425 3.9707 255.535 4.53134 253.677 5.80454C251.827 7.0721 250.58 8.65318 249.659 10.1121L263.187 18.6559ZM263.463 20.432C263.463 20.0837 263.465 19.2863 263.545 18.4766C263.585 18.0701 263.631 17.8072 263.659 17.6856C263.672 17.6317 263.664 17.6804 263.618 17.8045C263.578 17.9151 263.458 18.2218 263.207 18.624L249.639 10.144C248.719 11.6166 248.293 13.124 248.077 14.0524C247.835 15.0888 247.701 16.0979 247.621 16.9154C247.461 18.5537 247.463 20.0123 247.463 20.432H263.463ZM263.365 27.9906C263.414 25.6533 263.438 23.7748 263.451 22.4755C263.457 21.8257 263.46 21.3206 263.461 20.975C263.462 20.8023 263.463 20.6694 263.463 20.5782C263.463 20.5327 263.463 20.4976 263.463 20.4731C263.463 20.4609 263.463 20.4513 263.463 20.4445C263.463 20.441 263.463 20.4383 263.463 20.4362C263.463 20.4352 263.463 20.4343 263.463 20.4336C263.463 20.4332 263.463 20.4329 263.463 20.4327C263.463 20.4325 263.463 20.4324 263.463 20.4323C263.463 20.4321 263.463 20.432 255.463 20.432C247.463 20.432 247.463 20.4319 247.463 20.4318C247.463 20.4317 247.463 20.4316 247.463 20.4316C247.463 20.4315 247.463 20.4314 247.463 20.4314C247.463 20.4314 247.463 20.4316 247.463 20.4319C247.463 20.4325 247.463 20.4338 247.463 20.4358C247.463 20.4397 247.463 20.4464 247.463 20.4557C247.463 20.4743 247.463 20.5034 247.463 20.543C247.463 20.6221 247.462 20.7427 247.462 20.903C247.46 21.2234 247.457 21.7023 247.451 22.3245C247.44 23.5692 247.416 25.3867 247.369 27.6574L263.365 27.9906ZM255.271 37.232C263.271 37.232 263.271 37.2321 263.271 37.2321C263.271 37.2321 263.271 37.2321 263.271 37.2321C263.271 37.232 263.271 37.2319 263.271 37.2317C263.271 37.2312 263.271 37.2305 263.271 37.2295C263.271 37.2274 263.271 37.2241 263.271 37.2197C263.271 37.2107 263.271 37.197 263.271 37.1787C263.271 37.1421 263.271 37.0871 263.271 37.0151C263.271 36.8712 263.272 36.6595 263.272 36.3915C263.274 35.8554 263.277 35.0949 263.283 34.201C263.295 32.4069 263.318 30.1018 263.365 28.0017L247.369 27.6462C247.32 29.8662 247.295 32.2651 247.283 34.095C247.277 35.0131 247.274 35.7946 247.273 36.3475C247.272 36.624 247.271 36.8436 247.271 36.9948C247.271 37.0704 247.271 37.1289 247.271 37.1689C247.271 37.1889 247.271 37.2043 247.271 37.2149C247.271 37.2202 247.271 37.2242 247.271 37.2271C247.271 37.2285 247.271 37.2297 247.271 37.2305C247.271 37.2309 247.271 37.2312 247.271 37.2315C247.271 37.2316 247.271 37.2317 247.271 37.2318C247.271 37.2319 247.271 37.232 255.271 37.232ZM263.259 37.7128C263.26 37.679 263.262 37.6279 263.264 37.5834C263.265 37.5605 263.266 37.5235 263.267 37.4812C263.268 37.4545 263.271 37.355 263.271 37.232H247.271C247.271 37.1664 247.272 37.115 247.272 37.0887C247.273 37.0594 247.274 37.0365 247.274 37.0235C247.274 37.0097 247.275 36.9995 247.275 36.9943C247.275 36.9889 247.275 36.9856 247.275 36.9855C247.275 36.9852 247.275 36.9865 247.275 36.9899C247.275 36.9932 247.275 36.9977 247.274 37.0038C247.274 37.0166 247.273 37.0316 247.272 37.0525L263.259 37.7128ZM263.685 44.0706C263.881 44.3694 263.787 44.3506 263.632 43.7056C263.496 43.1341 263.386 42.3866 263.316 41.5226C263.175 39.7931 263.238 38.2083 263.259 37.7124L247.272 37.0528C247.246 37.6834 247.145 40.0709 247.368 42.8163C247.556 45.1376 248.074 49.4504 250.313 52.8574L263.685 44.0706ZM267.911 43.3442C266.783 43.3449 265.844 43.3443 264.964 43.308C264.087 43.2718 263.458 43.2059 263.006 43.1219C261.958 42.9274 262.85 42.8372 263.622 43.9772L250.376 52.9508C253.103 56.9767 257.259 58.3281 260.084 58.8528C262.889 59.3739 265.92 59.3455 267.922 59.3442L267.911 43.3442ZM268.327 43.344C268.187 43.344 268.048 43.3441 267.912 43.3442L267.922 59.3442C268.059 59.3441 268.193 59.344 268.327 59.344V43.344ZM268.423 43.344H268.327V59.344H268.423V43.344ZM272.769 43.3676C271.249 43.3378 269.312 43.2953 268.06 43.3522L268.786 59.3357C269.381 59.3087 270.648 59.3291 272.455 59.3645L272.769 43.3676ZM277.186 43.388C277.233 43.3829 277.139 43.3935 276.831 43.4018C276.551 43.4093 276.193 43.4126 275.758 43.4113C274.882 43.4088 273.857 43.389 272.769 43.3676L272.455 59.3645C274.265 59.4 277.197 59.4752 278.86 59.3L277.186 43.388ZM280.072 43.3709C279.454 43.3585 278.744 43.344 278.023 43.344V59.344C278.556 59.344 279.106 59.3548 279.751 59.3677L280.072 43.3709ZM285.42 42.9562C284.418 43.3568 283.184 43.4333 280.072 43.3709L279.751 59.3677C282.339 59.4196 286.863 59.6116 291.362 57.8118L285.42 42.9562ZM283.943 42.512C283.943 42.9576 283.922 43.3826 283.877 43.7596C283.83 44.1486 283.771 44.3727 283.742 44.4576C283.711 44.549 283.769 44.3231 284.055 43.9749C284.382 43.5749 284.906 43.147 285.582 42.8934L291.2 57.8746C295.817 56.1431 297.962 52.3475 298.896 49.5904C299.812 46.8877 299.943 44.1938 299.943 42.512H283.943ZM301.339 45.878C301.301 46.4098 301.261 46.7049 301.219 46.9045C301.181 47.0835 301.16 47.0868 301.204 47.0033L315.322 54.5327C316.919 51.5377 317.187 48.5839 317.299 47.018L301.339 45.878ZM301.319 35.792V46.448H317.319V35.792H301.319ZM313.639 27.792H309.319V43.792H313.639V27.792ZM321.639 41.744V35.792H305.639V41.744H321.639ZM321.635 42.5859C321.637 42.3131 321.639 42.0184 321.639 41.744H305.639C305.639 41.9436 305.637 42.1719 305.635 42.4607L321.635 42.5859ZM321.701 46.929C321.929 47.3199 321.939 47.5007 321.88 47.2552C321.83 47.0455 321.769 46.6877 321.721 46.159C321.621 45.0674 321.625 43.8599 321.635 42.5854L305.635 42.4612C305.626 43.6352 305.605 45.6125 305.787 47.6105C305.947 49.3686 306.345 52.3589 307.881 54.991L321.701 46.929ZM321.073 46.3701C321.476 46.6582 321.754 46.9982 321.947 47.3825L307.635 54.5375C308.596 56.4578 310.026 58.1418 311.773 59.3899L321.073 46.3701ZM319.591 45.84C319.665 45.84 319.846 45.8475 320.119 45.9263C320.395 46.0059 320.843 46.1827 321.335 46.5652L311.511 59.1948C314.187 61.2756 317.256 61.84 319.591 61.84V45.84ZM317.559 46.384C317.524 46.406 317.83 46.2078 318.36 46.0435C318.929 45.8668 319.392 45.84 319.591 45.84V61.84C322.185 61.84 324.211 61.0947 326.039 59.952L317.559 46.384ZM316.487 47.984C316.487 47.7938 316.494 47.6877 316.495 47.6693C316.497 47.6481 316.498 47.6337 316.499 47.6252C316.5 47.6167 316.5 47.6126 316.5 47.6121C316.5 47.6116 316.5 47.6134 316.5 47.6168C316.499 47.6203 316.498 47.624 316.498 47.6274C316.496 47.636 316.496 47.6334 316.501 47.6185C316.504 47.6064 316.555 47.4444 316.721 47.2032C316.903 46.9386 317.227 46.5784 317.721 46.2857L325.877 60.0503C329.486 57.9119 331.055 54.6181 331.729 52.5255C332.408 50.4196 332.487 48.6263 332.487 47.984H316.487ZM316.487 15.824V47.984H332.487V15.824H316.487ZM316.564 14.6017C316.464 14.4018 316.415 14.2644 316.4 14.2194C316.383 14.1698 316.384 14.1639 316.395 14.2097C316.405 14.2531 316.42 14.3225 316.435 14.4171C316.451 14.5107 316.466 14.615 316.478 14.7255C316.491 14.8358 316.5 14.9424 316.507 15.0389C316.513 15.1363 316.516 15.2114 316.517 15.2577C316.518 15.3117 316.516 15.2963 316.52 15.2193C316.521 15.1805 316.525 15.092 316.537 14.9671C316.543 14.9029 316.552 14.8136 316.567 14.705C316.581 14.6005 316.604 14.4449 316.642 14.2549L332.332 17.3931C332.549 16.3085 332.52 15.2322 332.514 14.9173C332.501 14.3175 332.457 13.6311 332.376 12.9144C332.239 11.713 331.9 9.4983 330.874 7.44626L316.564 14.6017ZM319.015 16.4301C318.776 16.3923 318.213 16.2408 317.594 15.767C316.982 15.2981 316.63 14.7542 316.455 14.3764L330.983 7.67159C329.318 4.06531 326.047 1.34214 321.511 0.625893L319.015 16.4301ZM322.092 14.9417C321.706 15.4436 321.069 15.9688 320.25 16.2594C319.509 16.5226 319.057 16.4375 319.182 16.4546L321.344 0.601356C317.011 0.0105494 312.47 1.20843 309.41 5.18634L322.092 14.9417ZM321.686 15.2427C321.618 15.4687 321.546 15.5954 321.531 15.6199C321.518 15.6412 321.558 15.5709 321.697 15.4158L309.805 4.71223C308.37 6.30641 307.071 8.27589 306.36 10.6453L321.686 15.2427ZM321.715 16.502C321.68 16.0178 321.675 15.6747 321.688 15.4212C321.701 15.1704 321.728 15.0967 321.715 15.1418L306.331 10.7462C305.559 13.4492 305.639 16.0074 305.755 17.642L321.715 16.502ZM321.638 25.421L321.734 17.165L305.736 16.979L305.64 25.235L321.638 25.421ZM312.327 33.2683C312.624 33.2844 312.914 33.3001 313.195 33.3157L314.083 17.3403C313.788 17.3239 313.486 17.3076 313.191 17.2917L312.327 33.2683ZM308.004 32.9311C309.058 33.1068 311.218 33.2084 312.327 33.2683L313.191 17.2917C312.438 17.2509 311.745 17.2134 311.183 17.1769C310.903 17.1586 310.692 17.143 310.546 17.1302C310.341 17.1124 310.424 17.1138 310.634 17.1489L308.004 32.9311ZM309.415 9.36C306.628 9.36 304.731 10.7506 303.821 11.64C302.943 12.4982 302.474 13.3555 302.275 13.747C301.864 14.5588 301.69 15.2551 301.643 15.4452C301.516 15.9545 301.467 16.3719 301.455 16.4755C301.418 16.7827 301.402 17.0554 301.396 17.1773C301.379 17.4767 301.369 17.8208 301.362 18.1324C301.347 18.7841 301.337 19.6345 301.331 20.4957C301.319 22.2319 301.319 24.1789 301.319 25.04H317.319C317.319 24.1731 317.319 22.2801 317.331 20.6083C317.337 19.7655 317.345 19.0199 317.357 18.5016C317.36 18.3752 317.363 18.272 317.366 18.191C317.367 18.151 317.368 18.1196 317.369 18.0961C317.37 18.0845 317.37 18.0757 317.371 18.0695C317.371 18.0632 317.371 18.0605 317.371 18.0609C317.371 18.0612 317.371 18.0663 317.37 18.0754C317.37 18.0843 317.369 18.1 317.367 18.1212C317.365 18.1531 317.357 18.248 317.341 18.379C317.334 18.4386 317.291 18.8224 317.17 19.3091C317.125 19.4878 316.955 20.1755 316.546 20.9816C316.349 21.3703 315.881 22.2254 315.005 23.0822C314.096 23.9702 312.201 25.36 309.415 25.36V9.36ZM301.385 15.5847C301.323 15.3844 301.358 15.4006 301.385 15.8011C301.412 16.1944 301.415 16.6443 301.415 17.36H317.415C317.415 16.3357 317.484 13.5015 316.677 10.8793L301.385 15.5847ZM301.116 14.5666C301.158 14.7365 301.228 15.0261 301.313 15.3364L316.749 11.1276C316.73 11.0577 316.709 10.9735 316.661 10.7746L301.116 14.5666ZM301.837 15.6077C301.685 15.4391 301.536 15.2414 301.401 15.0205C301.266 14.8012 301.173 14.602 301.11 14.4484C301.051 14.3027 301.027 14.2136 301.032 14.2317C301.043 14.2699 301.059 14.3323 301.117 14.5671L316.661 10.7741C316.458 9.94297 315.916 7.33366 313.729 4.90429L301.837 15.6077ZM304.352 16.7426C304.472 16.7263 304.029 16.8048 303.319 16.5603C302.569 16.302 302.085 15.8796 301.886 15.6618L313.68 4.85021C312.425 3.48036 310.741 2.19395 308.527 1.4317C306.353 0.683213 304.182 0.617676 302.19 0.889358L304.352 16.7426ZM306.599 14.4726C306.043 15.6772 305.234 16.269 304.843 16.4954C304.436 16.7314 304.169 16.7657 304.108 16.772L302.434 0.859953C299.086 1.2123 294.283 2.97481 292.071 7.76744L306.599 14.4726ZM306.458 14.7971C306.47 14.8673 306.479 14.9297 306.487 14.9829C306.494 15.0364 306.5 15.0841 306.505 15.1251C306.514 15.206 306.52 15.2722 306.524 15.3201C306.528 15.3688 306.531 15.408 306.532 15.4359C306.534 15.4641 306.535 15.4856 306.535 15.4995C306.536 15.5263 306.536 15.5355 306.536 15.5256C306.536 15.5167 306.536 15.4964 306.537 15.465C306.538 15.4009 306.542 15.3101 306.549 15.1992C306.556 15.0891 306.566 14.9701 306.579 14.8488C306.593 14.7271 306.608 14.6131 306.625 14.5113C306.642 14.4083 306.657 14.3327 306.668 14.2848C306.674 14.2619 306.677 14.2505 306.677 14.2497C306.677 14.2487 306.673 14.263 306.664 14.2911C306.655 14.3188 306.638 14.3667 306.611 14.4317C306.585 14.4962 306.546 14.5867 306.49 14.6977L292.18 7.54226C291.139 9.62353 290.808 11.8924 290.675 13.1032C290.553 14.2144 290.437 15.9956 290.676 17.4269L306.458 14.7971ZM306.567 47.696V16.112H290.567V47.696H306.567ZM305.64 46.0667C306.091 46.3443 306.347 46.649 306.459 46.8059C306.562 46.9509 306.577 47.0165 306.555 46.9568C306.535 46.9043 306.518 46.8397 306.511 46.8021C306.508 46.7879 306.512 46.8035 306.519 46.8586C306.522 46.8849 306.529 46.9383 306.536 47.0168C306.54 47.0552 306.546 47.118 306.551 47.1989C306.554 47.2441 306.567 47.4395 306.567 47.696H290.567C290.567 48.5671 290.725 49.456 290.821 49.9399C290.964 50.6523 291.199 51.5837 291.587 52.6112C292.309 54.5221 293.888 57.622 297.254 59.6933L305.64 46.0667ZM304.135 45.648C304.477 45.648 304.788 45.7025 305.035 45.7757C305.264 45.8439 305.372 45.909 305.332 45.8867L297.562 59.8733C299.25 60.811 301.452 61.648 304.135 61.648V45.648ZM301.689 46.301C301.439 46.4955 301.413 46.5131 301.423 46.5059C301.465 46.4765 301.685 46.3241 302.031 46.159C302.404 45.981 302.819 45.8369 303.253 45.7467C303.666 45.6608 303.98 45.648 304.135 45.648V61.648C305.696 61.648 307.312 61.3677 308.925 60.5975C310.227 59.976 311.267 59.1214 311.513 58.9299L301.689 46.301ZM301.719 46.2778L301.689 46.3013L311.513 58.9296L311.543 58.9062L301.719 46.2778ZM301.108 47.1903C301.207 46.9909 301.35 46.7644 301.563 46.5234C301.771 46.2881 302.122 45.9544 302.662 45.6461L310.6 59.5379C312.949 58.1959 314.504 56.1751 315.418 54.3457L301.108 47.1903ZM288.671 25.2039C288.678 25.2699 288.68 25.3148 288.681 25.3327C288.682 25.3504 288.682 25.35 288.681 25.3248C288.681 25.2992 288.681 25.2589 288.681 25.1946C288.681 25.1277 288.682 25.0558 288.683 24.9532L272.685 24.7699C272.681 25.0642 272.662 25.9126 272.751 26.7961L288.671 25.2039ZM288.567 31.6806C288.582 30.4405 288.596 29.288 288.617 28.3461C288.627 27.876 288.638 27.4901 288.65 27.1929C288.664 26.8526 288.674 26.77 288.667 26.8374L272.755 25.1626C272.62 26.4485 272.594 29.3288 272.568 31.4831L288.567 31.6806ZM288.149 40.4442C288.338 39.5657 288.391 38.6189 288.414 38.2295C288.448 37.6415 288.472 36.9627 288.49 36.2731C288.527 34.8893 288.548 33.2172 288.567 31.6806L272.568 31.4831C272.549 33.0551 272.529 34.6007 272.496 35.8451C272.479 36.4697 272.46 36.9576 272.44 37.3017C272.43 37.4745 272.423 37.5636 272.42 37.5889C272.412 37.6729 272.428 37.448 272.505 37.0918L288.149 40.4442ZM288.199 40.2213C288.214 40.1226 288.226 40.0387 288.238 39.9549L272.416 37.5811C272.397 37.7013 272.381 37.816 272.367 37.9105L288.199 40.2213ZM277.543 49.648C279.233 49.648 283.089 49.4419 285.854 46.1205C287.083 44.644 287.588 43.116 287.823 42.2109C288.041 41.3748 288.155 40.5213 288.199 40.2209L272.367 37.911C272.285 38.4712 272.29 38.3708 272.339 38.1803C272.407 37.9207 272.686 36.9306 273.556 35.8845C274.524 34.7216 275.69 34.1155 276.57 33.8435C277.295 33.6195 277.735 33.648 277.543 33.648V49.648ZM271.65 49.5509L277.41 49.6469L277.676 33.6491L271.916 33.5531L271.65 49.5509ZM261.644 45.4715C262.816 46.8564 264.554 48.4139 267.248 49.1285C269.086 49.6163 271.086 49.552 271.783 49.552V33.552C271.143 33.552 270.884 33.55 270.716 33.5418C270.565 33.5345 270.865 33.5347 271.35 33.6635C271.939 33.8195 272.563 34.0978 273.13 34.4996C273.381 34.6778 273.566 34.8415 273.684 34.9555C273.743 35.0121 273.787 35.0576 273.814 35.0877C273.842 35.1177 273.857 35.1353 273.858 35.1365L261.644 45.4715ZM258.796 35.2379C258.784 35.5334 258.731 36.8562 258.902 38.4265C259.027 39.5735 259.422 42.6994 261.504 45.3016L273.998 35.3064C274.323 35.7124 274.516 36.0686 274.623 36.2941C274.732 36.5228 274.785 36.689 274.807 36.7613C274.829 36.8372 274.834 36.8675 274.829 36.8423C274.825 36.8195 274.817 36.7698 274.808 36.6927C274.791 36.5311 274.781 36.3451 274.779 36.1693C274.778 36.0063 274.782 35.8974 274.784 35.8509L258.796 35.2379ZM258.791 35.504C258.791 35.4396 258.792 35.3886 258.792 35.3616C258.793 35.3318 258.793 35.3076 258.794 35.2926C258.795 35.2637 258.795 35.2421 258.796 35.2362C258.796 35.2257 258.796 35.2176 258.796 35.2349L274.784 35.8539C274.784 35.8495 274.785 35.8238 274.786 35.7997C274.786 35.787 274.787 35.7597 274.788 35.7262C274.788 35.7088 274.789 35.6826 274.79 35.6509C274.79 35.6222 274.791 35.5696 274.791 35.504H258.791ZM258.898 27.9796C258.839 29.1056 258.815 31.0721 258.803 32.574C258.797 33.3646 258.794 34.0952 258.793 34.6276C258.792 34.8941 258.791 35.1118 258.791 35.2634C258.791 35.3393 258.791 35.3987 258.791 35.4395C258.791 35.4599 258.791 35.4756 258.791 35.4865C258.791 35.4919 258.791 35.4961 258.791 35.499C258.791 35.5005 258.791 35.5016 258.791 35.5025C258.791 35.5029 258.791 35.5032 258.791 35.5035C258.791 35.5036 258.791 35.5037 258.791 35.5038C258.791 35.5039 258.791 35.504 266.791 35.504C274.791 35.504 274.791 35.504 274.791 35.5041C274.791 35.5041 274.791 35.5041 274.791 35.504C274.791 35.504 274.791 35.5038 274.791 35.5036C274.791 35.5032 274.791 35.5024 274.791 35.5013C274.791 35.4992 274.791 35.4958 274.791 35.4911C274.791 35.4819 274.791 35.4678 274.791 35.449C274.791 35.4116 274.791 35.3558 274.791 35.2837C274.791 35.1395 274.792 34.9304 274.792 34.6734C274.794 34.1587 274.797 33.4554 274.803 32.698C274.815 31.1039 274.839 29.5184 274.876 28.8204L258.898 27.9796ZM258.887 25.328V28.4H274.887V25.328H258.887ZM260.857 18.086C259.938 19.3734 259.54 20.6494 259.362 21.3141C259.158 22.0769 259.055 22.7731 258.998 23.2727C258.884 24.2742 258.887 25.1311 258.887 25.328H274.887C274.887 25.2849 274.887 25.2452 274.889 25.1899C274.89 25.1618 274.892 25.1355 274.893 25.1127C274.895 25.0893 274.896 25.0781 274.896 25.0793C274.896 25.0805 274.895 25.0873 274.893 25.0996C274.891 25.1116 274.888 25.1316 274.884 25.1589C274.875 25.2082 274.855 25.3107 274.817 25.4539C274.78 25.5915 274.71 25.8268 274.586 26.1234C274.466 26.4097 274.248 26.8668 273.877 27.386L260.857 18.086ZM268.851 13.6169C267.722 13.7195 266.172 13.9867 264.549 14.8562C262.974 15.7002 261.938 16.7915 261.346 17.468L273.388 28.004C273.468 27.9125 273.008 28.4758 272.105 28.9598C271.154 29.4693 270.372 29.5445 270.299 29.5511L268.851 13.6169ZM272.263 13.392C271.372 13.392 269.545 13.3452 267.635 13.8229L271.515 29.3451C271.268 29.407 271.122 29.409 271.219 29.4037C271.277 29.4004 271.38 29.3966 271.563 29.3944C271.75 29.3921 271.963 29.392 272.263 29.392V13.392ZM277.834 13.5893L272.554 13.3973L271.972 29.3867L277.252 29.5787L277.834 13.5893ZM288.053 20.2373C286.83 16.8135 284.183 14.8984 281.66 14.1131C279.744 13.5173 277.838 13.584 277.543 13.584V29.584C277.878 29.584 277.894 29.5874 277.859 29.5849C277.812 29.5815 277.437 29.556 276.906 29.3909C276.341 29.2148 275.505 28.8512 274.683 28.1163C273.828 27.3525 273.282 26.4498 272.985 25.6187L288.053 20.2373ZM288.683 24.953C288.688 24.5724 288.777 22.6135 288.182 20.6291L272.856 25.2269C272.779 24.9688 272.738 24.7581 272.716 24.6163C272.694 24.4755 272.688 24.3818 272.686 24.3549C272.685 24.3289 272.686 24.3412 272.687 24.4169C272.687 24.4994 272.687 24.5941 272.684 24.7701L288.683 24.953ZM278.727 62.8384C278.559 62.8317 278.38 62.8229 278.153 62.8117L277.364 78.7922C277.577 78.8027 277.832 78.8154 278.087 78.8256L278.727 62.8384ZM287.937 62.8612C282.678 62.8449 278.494 62.832 278.407 62.832V78.832C278.4 78.832 278.453 78.8321 278.596 78.8326C278.726 78.8329 278.915 78.8335 279.156 78.8342C279.638 78.8357 280.329 78.8378 281.183 78.8404C282.892 78.8457 285.25 78.853 287.888 78.8611L287.937 62.8612ZM309.895 62.928C309.896 62.928 309.893 62.928 309.882 62.928C309.872 62.928 309.859 62.9279 309.843 62.9279C309.81 62.9278 309.765 62.9277 309.709 62.9276C309.596 62.9273 309.44 62.9269 309.243 62.9263C308.849 62.9252 308.297 62.9236 307.615 62.9216C306.251 62.9175 304.371 62.9118 302.218 62.9052C297.91 62.892 292.506 62.8753 287.937 62.8612L287.888 78.8611C297.009 78.8893 309.513 78.928 309.895 78.928V62.928ZM319.543 66.726C317.566 64.3098 315.03 63.3484 313.031 63.0285C311.336 62.7572 309.727 62.9173 309.281 62.9516L310.509 78.9044C310.849 78.8783 310.943 78.8735 310.992 78.8725C311.027 78.8719 310.83 78.8799 310.503 78.8275C310.16 78.7726 309.596 78.6396 308.949 78.3049C308.271 77.9545 307.652 77.4605 307.159 76.858L319.543 66.726ZM321.738 74.5399C321.753 74.4062 321.946 73.0498 321.72 71.5418C321.442 69.6852 320.637 67.9468 319.33 66.477L307.372 77.107C307.053 76.7479 306.711 76.2685 306.428 75.6647C306.141 75.0547 305.978 74.4538 305.897 73.9147C305.763 73.0242 305.889 72.288 305.832 72.807L321.738 74.5399ZM321.735 74.384C321.735 74.5331 321.727 74.6356 321.725 74.6622C321.724 74.6757 321.724 74.6761 321.726 74.6549C321.729 74.6305 321.732 74.6017 321.738 74.5403L305.833 72.8066C305.814 72.9804 305.735 73.6354 305.735 74.384H321.735ZM309.706 83.9253C309.974 83.9505 312.365 84.2773 314.686 83.6529C316.079 83.2783 318.044 82.4275 319.617 80.4973C321.237 78.5083 321.735 76.2438 321.735 74.384H305.735C305.735 73.4668 305.994 71.8868 307.213 70.3902C308.385 68.9525 309.786 68.4021 310.53 68.2021C310.907 68.1007 311.201 68.0636 311.367 68.0484C311.537 68.0329 311.644 68.0342 311.664 68.0345C311.685 68.0348 311.665 68.0352 311.58 68.0289C311.489 68.0222 311.388 68.0129 311.206 67.9958L309.706 83.9253ZM309.421 83.8997C309.458 83.9023 309.52 83.9078 309.706 83.9253L311.206 67.9958C311.063 67.9823 310.813 67.9583 310.561 67.9403L309.421 83.8997ZM299.449 84.0152C301.986 83.9791 304.502 83.9434 306.449 83.9225C307.425 83.9121 308.238 83.9057 308.83 83.9046C309.128 83.9041 309.346 83.905 309.489 83.9068C309.756 83.9101 309.569 83.9146 309.267 83.8871L310.715 67.9528C310.115 67.8983 309.217 67.9039 308.801 67.9046C308.137 67.9058 307.268 67.9129 306.279 67.9235C304.296 67.9446 301.748 67.9809 299.221 68.0168L299.449 84.0152ZM287.955 84.0791C288.555 84.1337 289.453 84.1281 289.869 84.1274C290.533 84.1262 291.402 84.1191 292.391 84.1085C294.374 84.0874 296.922 84.0511 299.449 84.0152L299.221 68.0168C296.684 68.0529 294.168 68.0886 292.22 68.1095C291.245 68.1199 290.432 68.1263 289.84 68.1274C289.542 68.1279 289.324 68.127 289.181 68.1252C288.914 68.1219 289.101 68.1174 289.403 68.1449L287.955 84.0791ZM276.775 83.92C280.217 83.92 284.641 84.0135 288.479 84.1095L288.879 68.1145C285.037 68.0184 280.437 67.92 276.775 67.92V83.92ZM276.873 83.9334C277.06 83.9188 277.158 83.9113 277.245 83.9062L276.305 67.9338C276.036 67.9496 275.782 67.9698 275.62 67.9825L276.873 83.9334ZM265.313 76.3929C266.099 79.2766 268.076 82.1713 271.657 83.4229C274.128 84.2864 276.658 83.9503 276.873 83.9334L275.62 67.9825C275.184 68.0168 275.214 68.0083 275.318 68.0097C275.451 68.0114 276.092 68.0238 276.936 68.3188C277.894 68.6538 278.88 69.2711 279.662 70.1976C280.385 71.0541 280.657 71.8462 280.749 72.1831L265.313 76.3929ZM264.935 72.752C264.935 73.3 264.91 74.4744 265.186 75.8571L280.876 72.719C280.884 72.7601 280.892 72.8057 280.9 72.8547C280.908 72.9039 280.914 72.9523 280.92 72.9991C280.926 73.0458 280.929 73.0869 280.932 73.121C280.935 73.1547 280.936 73.1793 280.937 73.1925C280.938 73.2052 280.938 73.2072 280.937 73.195C280.937 73.1825 280.936 73.1594 280.936 73.121C280.936 73.0824 280.935 73.0345 280.935 72.9714C280.935 72.9074 280.935 72.8381 280.935 72.752H264.935ZM278.153 62.8117C277.413 62.7752 274.884 62.5775 272.575 63.1482C271.269 63.4713 269.24 64.21 267.524 66.0463C265.643 68.0593 264.935 70.5265 264.935 72.752H280.935C280.935 73.8834 280.546 75.5459 279.215 76.9706C278.048 78.2185 276.8 78.5855 276.416 78.6805C276.014 78.7799 275.847 78.7546 276.142 78.7511C276.413 78.7479 276.749 78.7619 277.364 78.7922L278.153 62.8117ZM66.496 20.451L51.4744 64.5412L66.6195 69.7012L81.6411 25.611L66.496 20.451ZM33.0009 55.9869L78.0694 29.9587L70.0676 16.1033L24.9991 42.1315L33.0009 55.9869ZM51.5119 41.5643L29.1802 41.0612L28.8198 57.0572L51.1515 57.5603L51.5119 41.5643ZM66.3711 63.9031L58.6559 46.3441L44.0076 52.7805L51.7228 70.3394L66.3711 63.9031Z" fill="#0C0C32" mask="url(#path-1-outside-1_5_4)"/>
</svg>
