<svg width="319" height="88" viewBox="0 0 319 88" fill="none" xmlns="http://www.w3.org/2000/svg">
<mask id="path-1-outside-1_5_4" maskUnits="userSpaceOnUse" x="0" y="0.431999" width="319" height="88" fill="black">
<rect fill="white" y="0.431999" width="319" height="88"/>
<path fill-rule="evenodd" clip-rule="evenodd" d="M114.56 17.624V27.512C114.526 27.9531 114.54 28.694 114.555 29.5058C114.584 30.9909 114.616 32.7134 114.368 33.272L98.72 33.368C98.4131 33.368 98.5354 24.1715 98.5969 19.5464C98.6124 18.384 98.624 17.5103 98.624 17.144V16.952L98.6179 16.8417C98.5237 15.1426 98.4198 13.2673 97.856 11.576C96.896 8.792 94.88 7.44799 91.616 7.44799C87.104 7.44799 85.472 13.016 85.472 16.664V66.872C85.472 66.9314 85.4702 67.0157 85.4679 67.122C85.4369 68.5631 85.3189 74.0515 88.448 76.376C90.752 78.2 93.536 78.488 96.608 78.488H116.768C116.837 78.4804 116.922 78.4722 117.022 78.4625C118.186 78.3506 121.336 78.0476 123.104 76.28C123.488 75.896 124.544 74.744 124.928 73.88C126.974 70.1591 126.948 60.7598 126.944 59.4814C126.944 59.4404 126.944 59.4078 126.944 59.384V24.152C127.136 20.024 127.232 10.328 124.16 8.31199C123.2 7.64 121.856 7.256 120.608 7.256C114.56 7.256 114.56 15.032 114.56 17.624ZM154.208 34.712H154.016C153.577 34.7999 153.218 34.7269 152.792 34.6402C152.752 34.6322 152.713 34.6241 152.672 34.616C152.576 34.616 150.656 34.616 150.656 34.52C150.464 33.848 150.464 33.08 150.464 32.408V27.032C150.464 26.8114 150.454 26.5909 150.443 26.3669C150.422 25.9085 150.4 25.4359 150.464 24.92C150.464 24.2 150.44 23.528 150.416 22.856C150.392 22.184 150.368 21.512 150.368 20.792C150.344 20.216 150.326 19.6339 150.308 19.0519C150.254 17.3059 150.2 15.56 149.984 13.976C149.984 13.592 149.984 13.208 149.888 12.824C149.878 12.7176 149.869 12.6115 149.859 12.5056C149.682 10.5094 149.513 8.60411 147.872 6.872C147.008 6.008 145.76 5.432 144.32 5.432C142.88 5.432 140.864 5.912 140 6.776C137.943 8.83259 137.98 13.438 137.984 13.8555C137.984 13.8668 137.984 13.875 137.984 13.88V70.904C137.984 74.936 138.656 82.424 144.896 82.616C144.992 82.616 145.088 82.712 145.088 82.712C146.336 82.712 147.392 82.232 148.16 81.368C150.464 79.064 150.464 74.168 150.464 70.808V69.464C150.56 66.296 150.56 62.936 150.464 59.672C150.464 58.6581 150.455 57.4126 150.445 56.0823C150.423 53.13 150.398 49.7599 150.464 47.576C150.464 47.192 150.56 47.192 150.56 47.192C150.56 47.192 150.656 47.096 150.848 47.096C151.641 47.0583 152.656 47.0799 153.719 47.1025C155.359 47.1374 157.113 47.1748 158.336 47C159.296 46.808 160.16 46.328 160.928 45.752C161.792 45.08 162.08 43.736 162.272 42.776C162.56 41.816 162.56 40.952 162.56 39.992C162.56 39.128 162.368 38.264 161.888 37.496C161.216 36.056 159.68 35.48 158.24 35.192C157.472 35.096 156.704 35 156.032 34.904C155.683 34.904 155.36 34.8522 155.049 34.8025C154.762 34.7564 154.485 34.712 154.208 34.712ZM114.56 66.776L97.856 66.872C97.856 66.3738 97.8632 65.5534 97.8716 64.5847C97.8941 62.0069 97.9258 58.3796 97.856 56.984C97.856 56.1932 97.8477 55.0868 97.8384 53.8503C97.8161 50.8838 97.7882 47.1692 97.856 45.272L114.464 45.176L114.56 66.776ZM210.568 70.712C210.088 66.584 206.632 65.72 202.887 65.72C194.439 65.72 184.551 65.144 183.88 65.048C180.904 65.048 179.943 63.224 179.943 60.728L179.559 27.512V27.416C179.367 25.976 179.271 21.752 181.096 20.984C181.96 20.6 184.167 20.504 185.896 20.504C194.503 20.504 197.499 20.555 199.123 20.5827C199.727 20.5929 200.141 20.6 200.583 20.6C203.079 20.6 204.904 20.408 206.055 20.12C207.111 19.832 207.975 19.256 208.456 18.392C209.031 17.336 209.128 13.88 208.647 12.44C207.446 8.55953 199.932 8.68045 199.027 8.69502C198.991 8.69559 198.966 8.696 198.952 8.696H176.488C175.816 8.696 168.52 8.792 166.887 11.48C164.967 14.648 165.639 21.464 165.736 22.136V62.936C165.736 62.9576 165.734 63.0108 165.731 63.0922C165.701 64.0972 165.541 69.3844 166.695 71.96C167.656 74.168 169.671 75.992 171.688 76.568C174.247 77.3358 177.185 77.4213 179.829 77.4982C180.16 77.5078 180.487 77.5173 180.807 77.528H181.576C183.553 77.528 186.195 77.5376 188.968 77.5478C194.946 77.5696 201.531 77.5936 203.368 77.528C206.824 77.336 211.048 74.84 210.568 70.712ZM236.008 35.384L228.424 34.712C228.424 27.416 228.232 19.832 227.656 12.824C227.646 12.7176 227.636 12.6115 227.627 12.5056C227.45 10.5094 227.28 8.60411 225.639 6.872C224.775 6.008 223.527 5.432 222.088 5.432C220.647 5.432 218.632 5.912 217.768 6.776C215.711 8.83259 215.748 13.438 215.751 13.8555C215.751 13.8668 215.751 13.875 215.751 13.88V72.824C215.751 76.856 216.232 83 222.471 82.616C228.135 82.232 228.232 75.128 228.232 71.768C228.232 69.1432 228.211 66.2789 228.19 63.3809C228.147 57.4813 228.103 51.442 228.232 47L236.104 46.904C238.504 46.904 239.656 45.08 240.04 42.968C240.327 42.008 240.327 41.144 240.327 40.184C240.327 37.4 238.311 35.864 236.008 35.384ZM271.001 81.7199C282.003 81.8422 298.943 82.0305 301.295 81.56C301.838 81.525 302.457 81.5155 303.119 81.5054C306.088 81.46 309.919 81.4014 311.567 78.968C312.527 77.528 313.103 76.472 313.199 74.744C313.551 71.1679 313.509 67.6992 313.466 64.2068C313.439 61.9802 313.412 59.7439 313.487 57.464C313.487 57.2232 313.494 56.9777 313.501 56.7304C313.54 55.4004 313.579 54.0194 312.527 53.048C311.087 51.8 307.919 51.8 306.095 52.184C303.791 52.568 303.119 54.008 303.023 56.312V59.192H264.047C263.705 59.1706 263.41 59.1826 263.157 59.1929C262.273 59.2288 261.892 59.2443 261.743 57.752V55.256C261.263 52.664 258.575 52.088 256.367 52.184L256.281 52.1918C255.249 52.2854 254.136 52.3864 253.295 52.76C251.567 53.528 250.991 55.256 250.991 57.08C250.991 57.464 250.895 71.864 250.895 71.864C250.908 71.9038 250.922 72.0423 250.942 72.2574C251.071 73.6005 251.485 77.9288 253.967 79.832C256.175 81.464 259.151 81.656 261.743 81.656C262.664 81.6272 266.288 81.6675 271.001 81.7199ZM280.943 39.512L281.135 20.888C281.135 20.2864 281.161 19.6508 281.188 18.9981C281.324 15.693 281.478 11.9482 278.351 9.944C275.951 8.408 272.687 8.12 269.903 8.12H254.927C254.927 8.12 250.991 8.31199 249.551 8.504C247.631 8.888 246.575 9.56 245.423 11.384C244.463 12.92 244.463 16.664 244.463 17.432C244.463 17.432 244.463 20.216 244.367 24.824C244.271 29.144 244.271 34.232 244.271 34.232C244.271 34.2511 244.269 34.3025 244.266 34.3826C244.219 35.5091 243.938 42.3272 245.999 45.464C247.954 48.3499 252.527 48.347 256.917 48.3442C257.054 48.3441 257.19 48.344 257.327 48.344H257.423C258.346 48.302 259.948 48.3335 261.612 48.3661C263.753 48.4081 265.996 48.4521 267.023 48.344C267.65 48.344 268.28 48.3566 268.912 48.3693C271.761 48.4265 274.641 48.4842 277.391 47.384C280.463 46.232 280.943 42.2 280.943 39.512ZM297.263 47.768C298.031 46.328 298.223 44.792 298.319 43.448V32.792H302.639V38.744C302.639 38.981 302.637 39.2425 302.635 39.5233C302.616 41.9718 302.585 45.893 303.791 47.96C304.175 48.728 304.751 49.4 305.423 49.88C306.287 50.552 307.439 50.84 308.591 50.84C309.455 50.84 310.031 50.648 310.799 50.168C313.391 48.632 313.487 45.176 313.487 44.984V12.824C313.583 12.344 313.487 9.56 312.719 8.024C312.143 6.776 311.087 5.816 309.263 5.528C307.151 5.23999 305.711 5.816 304.751 7.064C303.887 8.024 303.311 8.984 303.023 9.944C302.639 11.288 302.639 12.728 302.735 14.072L302.639 22.328C302.351 22.312 302.055 22.296 301.759 22.28C300.279 22.2 298.799 22.12 298.319 22.04C298.319 20.312 298.319 14.36 298.415 14.36C298.415 13.016 298.415 11.48 298.031 10.232C297.979 10.0419 297.934 9.85499 297.889 9.6706C297.684 8.83044 297.491 8.04322 296.783 7.256C295.727 6.10399 294.383 5.528 292.271 5.816C290.447 6.008 288.911 6.872 288.335 8.12C287.567 9.65599 287.471 12.536 287.567 13.112V44.696C287.567 44.888 287.951 48.344 290.447 49.88C291.311 50.36 292.175 50.648 293.135 50.648C294.274 50.648 294.756 50.2729 295.601 49.6154L295.631 49.592C296.303 49.208 296.879 48.536 297.263 47.768ZM269.684 21.8615C269.679 22.2545 269.675 22.6407 269.711 23C269.626 23.8051 269.598 26.1254 269.567 28.5819C269.529 31.6905 269.488 35.0173 269.327 35.768C269.312 35.87 269.297 35.9693 269.283 36.0659C269.032 37.7873 268.906 38.648 266.543 38.648L260.783 38.552C258.479 38.552 257.807 38.552 256.751 37.304C255.659 35.9394 255.775 32.9368 255.79 32.5444C255.79 32.5227 255.791 32.509 255.791 32.504C255.791 32.504 255.791 27.224 255.887 25.4V22.328C255.887 22.04 255.887 20.408 256.367 19.736C257.039 18.968 257.519 18.68 258.575 18.584C259.343 18.392 260.111 18.392 261.263 18.392L266.543 18.584C267.695 18.584 269.039 18.584 269.519 19.928C269.699 20.5287 269.691 21.2046 269.684 21.8615ZM266.758 67.802C266.978 67.8128 267.195 67.8235 267.407 67.832C267.477 67.832 271.638 67.8449 276.913 67.8612C286.049 67.8894 298.53 67.928 298.895 67.928C300.143 67.832 301.487 67.736 302.351 68.792C302.921 69.4328 302.857 70.0208 302.785 70.6735C302.761 70.9008 302.735 71.136 302.735 71.384C302.735 73.2693 300.823 73.0892 299.456 72.9605C299.292 72.945 299.135 72.9303 298.991 72.92C298.463 72.872 293.399 72.944 288.335 73.016C283.271 73.088 278.207 73.16 277.679 73.112C273.839 73.016 269.327 72.92 265.775 72.92C265.597 72.9304 265.421 72.9443 265.247 72.958C263.82 73.07 262.544 73.1702 262.031 71.288C261.935 70.808 261.935 70.424 261.935 69.752C261.935 67.5638 264.489 67.6899 266.758 67.802ZM48.0469 64.1212L63.0685 20.031L18 46.0592L40.3317 46.5623L48.0469 64.1212Z"/>
</mask>
<path fill-rule="evenodd" clip-rule="evenodd" d="M114.56 17.624V27.512C114.526 27.9531 114.54 28.694 114.555 29.5058C114.584 30.9909 114.616 32.7134 114.368 33.272L98.72 33.368C98.4131 33.368 98.5354 24.1715 98.5969 19.5464C98.6124 18.384 98.624 17.5103 98.624 17.144V16.952L98.6179 16.8417C98.5237 15.1426 98.4198 13.2673 97.856 11.576C96.896 8.792 94.88 7.44799 91.616 7.44799C87.104 7.44799 85.472 13.016 85.472 16.664V66.872C85.472 66.9314 85.4702 67.0157 85.4679 67.122C85.4369 68.5631 85.3189 74.0515 88.448 76.376C90.752 78.2 93.536 78.488 96.608 78.488H116.768C116.837 78.4804 116.922 78.4722 117.022 78.4625C118.186 78.3506 121.336 78.0476 123.104 76.28C123.488 75.896 124.544 74.744 124.928 73.88C126.974 70.1591 126.948 60.7598 126.944 59.4814C126.944 59.4404 126.944 59.4078 126.944 59.384V24.152C127.136 20.024 127.232 10.328 124.16 8.31199C123.2 7.64 121.856 7.256 120.608 7.256C114.56 7.256 114.56 15.032 114.56 17.624ZM154.208 34.712H154.016C153.577 34.7999 153.218 34.7269 152.792 34.6402C152.752 34.6322 152.713 34.6241 152.672 34.616C152.576 34.616 150.656 34.616 150.656 34.52C150.464 33.848 150.464 33.08 150.464 32.408V27.032C150.464 26.8114 150.454 26.5909 150.443 26.3669C150.422 25.9085 150.4 25.4359 150.464 24.92C150.464 24.2 150.44 23.528 150.416 22.856C150.392 22.184 150.368 21.512 150.368 20.792C150.344 20.216 150.326 19.6339 150.308 19.0519C150.254 17.3059 150.2 15.56 149.984 13.976C149.984 13.592 149.984 13.208 149.888 12.824C149.878 12.7176 149.869 12.6115 149.859 12.5056C149.682 10.5094 149.513 8.60411 147.872 6.872C147.008 6.008 145.76 5.432 144.32 5.432C142.88 5.432 140.864 5.912 140 6.776C137.943 8.83259 137.98 13.438 137.984 13.8555C137.984 13.8668 137.984 13.875 137.984 13.88V70.904C137.984 74.936 138.656 82.424 144.896 82.616C144.992 82.616 145.088 82.712 145.088 82.712C146.336 82.712 147.392 82.232 148.16 81.368C150.464 79.064 150.464 74.168 150.464 70.808V69.464C150.56 66.296 150.56 62.936 150.464 59.672C150.464 58.6581 150.455 57.4126 150.445 56.0823C150.423 53.13 150.398 49.7599 150.464 47.576C150.464 47.192 150.56 47.192 150.56 47.192C150.56 47.192 150.656 47.096 150.848 47.096C151.641 47.0583 152.656 47.0799 153.719 47.1025C155.359 47.1374 157.113 47.1748 158.336 47C159.296 46.808 160.16 46.328 160.928 45.752C161.792 45.08 162.08 43.736 162.272 42.776C162.56 41.816 162.56 40.952 162.56 39.992C162.56 39.128 162.368 38.264 161.888 37.496C161.216 36.056 159.68 35.48 158.24 35.192C157.472 35.096 156.704 35 156.032 34.904C155.683 34.904 155.36 34.8522 155.049 34.8025C154.762 34.7564 154.485 34.712 154.208 34.712ZM114.56 66.776L97.856 66.872C97.856 66.3738 97.8632 65.5534 97.8716 64.5847C97.8941 62.0069 97.9258 58.3796 97.856 56.984C97.856 56.1932 97.8477 55.0868 97.8384 53.8503C97.8161 50.8838 97.7882 47.1692 97.856 45.272L114.464 45.176L114.56 66.776ZM210.568 70.712C210.088 66.584 206.632 65.72 202.887 65.72C194.439 65.72 184.551 65.144 183.88 65.048C180.904 65.048 179.943 63.224 179.943 60.728L179.559 27.512V27.416C179.367 25.976 179.271 21.752 181.096 20.984C181.96 20.6 184.167 20.504 185.896 20.504C194.503 20.504 197.499 20.555 199.123 20.5827C199.727 20.5929 200.141 20.6 200.583 20.6C203.079 20.6 204.904 20.408 206.055 20.12C207.111 19.832 207.975 19.256 208.456 18.392C209.031 17.336 209.128 13.88 208.647 12.44C207.446 8.55953 199.932 8.68045 199.027 8.69502C198.991 8.69559 198.966 8.696 198.952 8.696H176.488C175.816 8.696 168.52 8.792 166.887 11.48C164.967 14.648 165.639 21.464 165.736 22.136V62.936C165.736 62.9576 165.734 63.0108 165.731 63.0922C165.701 64.0972 165.541 69.3844 166.695 71.96C167.656 74.168 169.671 75.992 171.688 76.568C174.247 77.3358 177.185 77.4213 179.829 77.4982C180.16 77.5078 180.487 77.5173 180.807 77.528H181.576C183.553 77.528 186.195 77.5376 188.968 77.5478C194.946 77.5696 201.531 77.5936 203.368 77.528C206.824 77.336 211.048 74.84 210.568 70.712ZM236.008 35.384L228.424 34.712C228.424 27.416 228.232 19.832 227.656 12.824C227.646 12.7176 227.636 12.6115 227.627 12.5056C227.45 10.5094 227.28 8.60411 225.639 6.872C224.775 6.008 223.527 5.432 222.088 5.432C220.647 5.432 218.632 5.912 217.768 6.776C215.711 8.83259 215.748 13.438 215.751 13.8555C215.751 13.8668 215.751 13.875 215.751 13.88V72.824C215.751 76.856 216.232 83 222.471 82.616C228.135 82.232 228.232 75.128 228.232 71.768C228.232 69.1432 228.211 66.2789 228.19 63.3809C228.147 57.4813 228.103 51.442 228.232 47L236.104 46.904C238.504 46.904 239.656 45.08 240.04 42.968C240.327 42.008 240.327 41.144 240.327 40.184C240.327 37.4 238.311 35.864 236.008 35.384ZM271.001 81.7199C282.003 81.8422 298.943 82.0305 301.295 81.56C301.838 81.525 302.457 81.5155 303.119 81.5054C306.088 81.46 309.919 81.4014 311.567 78.968C312.527 77.528 313.103 76.472 313.199 74.744C313.551 71.1679 313.509 67.6992 313.466 64.2068C313.439 61.9802 313.412 59.7439 313.487 57.464C313.487 57.2232 313.494 56.9777 313.501 56.7304C313.54 55.4004 313.579 54.0194 312.527 53.048C311.087 51.8 307.919 51.8 306.095 52.184C303.791 52.568 303.119 54.008 303.023 56.312V59.192H264.047C263.705 59.1706 263.41 59.1826 263.157 59.1929C262.273 59.2288 261.892 59.2443 261.743 57.752V55.256C261.263 52.664 258.575 52.088 256.367 52.184L256.281 52.1918C255.249 52.2854 254.136 52.3864 253.295 52.76C251.567 53.528 250.991 55.256 250.991 57.08C250.991 57.464 250.895 71.864 250.895 71.864C250.908 71.9038 250.922 72.0423 250.942 72.2574C251.071 73.6005 251.485 77.9288 253.967 79.832C256.175 81.464 259.151 81.656 261.743 81.656C262.664 81.6272 266.288 81.6675 271.001 81.7199ZM280.943 39.512L281.135 20.888C281.135 20.2864 281.161 19.6508 281.188 18.9981C281.324 15.693 281.478 11.9482 278.351 9.944C275.951 8.408 272.687 8.12 269.903 8.12H254.927C254.927 8.12 250.991 8.31199 249.551 8.504C247.631 8.888 246.575 9.56 245.423 11.384C244.463 12.92 244.463 16.664 244.463 17.432C244.463 17.432 244.463 20.216 244.367 24.824C244.271 29.144 244.271 34.232 244.271 34.232C244.271 34.2511 244.269 34.3025 244.266 34.3826C244.219 35.5091 243.938 42.3272 245.999 45.464C247.954 48.3499 252.527 48.347 256.917 48.3442C257.054 48.3441 257.19 48.344 257.327 48.344H257.423C258.346 48.302 259.948 48.3335 261.612 48.3661C263.753 48.4081 265.996 48.4521 267.023 48.344C267.65 48.344 268.28 48.3566 268.912 48.3693C271.761 48.4265 274.641 48.4842 277.391 47.384C280.463 46.232 280.943 42.2 280.943 39.512ZM297.263 47.768C298.031 46.328 298.223 44.792 298.319 43.448V32.792H302.639V38.744C302.639 38.981 302.637 39.2425 302.635 39.5233C302.616 41.9718 302.585 45.893 303.791 47.96C304.175 48.728 304.751 49.4 305.423 49.88C306.287 50.552 307.439 50.84 308.591 50.84C309.455 50.84 310.031 50.648 310.799 50.168C313.391 48.632 313.487 45.176 313.487 44.984V12.824C313.583 12.344 313.487 9.56 312.719 8.024C312.143 6.776 311.087 5.816 309.263 5.528C307.151 5.23999 305.711 5.816 304.751 7.064C303.887 8.024 303.311 8.984 303.023 9.944C302.639 11.288 302.639 12.728 302.735 14.072L302.639 22.328C302.351 22.312 302.055 22.296 301.759 22.28C300.279 22.2 298.799 22.12 298.319 22.04C298.319 20.312 298.319 14.36 298.415 14.36C298.415 13.016 298.415 11.48 298.031 10.232C297.979 10.0419 297.934 9.85499 297.889 9.6706C297.684 8.83044 297.491 8.04322 296.783 7.256C295.727 6.10399 294.383 5.528 292.271 5.816C290.447 6.008 288.911 6.872 288.335 8.12C287.567 9.65599 287.471 12.536 287.567 13.112V44.696C287.567 44.888 287.951 48.344 290.447 49.88C291.311 50.36 292.175 50.648 293.135 50.648C294.274 50.648 294.756 50.2729 295.601 49.6154L295.631 49.592C296.303 49.208 296.879 48.536 297.263 47.768ZM269.684 21.8615C269.679 22.2545 269.675 22.6407 269.711 23C269.626 23.8051 269.598 26.1254 269.567 28.5819C269.529 31.6905 269.488 35.0173 269.327 35.768C269.312 35.87 269.297 35.9693 269.283 36.0659C269.032 37.7873 268.906 38.648 266.543 38.648L260.783 38.552C258.479 38.552 257.807 38.552 256.751 37.304C255.659 35.9394 255.775 32.9368 255.79 32.5444C255.79 32.5227 255.791 32.509 255.791 32.504C255.791 32.504 255.791 27.224 255.887 25.4V22.328C255.887 22.04 255.887 20.408 256.367 19.736C257.039 18.968 257.519 18.68 258.575 18.584C259.343 18.392 260.111 18.392 261.263 18.392L266.543 18.584C267.695 18.584 269.039 18.584 269.519 19.928C269.699 20.5287 269.691 21.2046 269.684 21.8615ZM266.758 67.802C266.978 67.8128 267.195 67.8235 267.407 67.832C267.477 67.832 271.638 67.8449 276.913 67.8612C286.049 67.8894 298.53 67.928 298.895 67.928C300.143 67.832 301.487 67.736 302.351 68.792C302.921 69.4328 302.857 70.0208 302.785 70.6735C302.761 70.9008 302.735 71.136 302.735 71.384C302.735 73.2693 300.823 73.0892 299.456 72.9605C299.292 72.945 299.135 72.9303 298.991 72.92C298.463 72.872 293.399 72.944 288.335 73.016C283.271 73.088 278.207 73.16 277.679 73.112C273.839 73.016 269.327 72.92 265.775 72.92C265.597 72.9304 265.421 72.9443 265.247 72.958C263.82 73.07 262.544 73.1702 262.031 71.288C261.935 70.808 261.935 70.424 261.935 69.752C261.935 67.5638 264.489 67.6899 266.758 67.802ZM48.0469 64.1212L63.0685 20.031L18 46.0592L40.3317 46.5623L48.0469 64.1212Z" fill="#ADFF2F"/>
<path d="M114.56 27.512L119.545 27.8955L119.56 27.704V27.512H114.56ZM114.555 29.5058L119.555 29.4111V29.4111L114.555 29.5058ZM114.368 33.272L114.399 38.2719L117.626 38.2521L118.937 35.3027L114.368 33.272ZM98.72 33.368V38.368H98.7353L98.7507 38.3679L98.72 33.368ZM98.5969 19.5464L103.596 19.6129V19.6129L98.5969 19.5464ZM98.624 16.952H103.624V16.8134L103.616 16.6751L98.624 16.952ZM98.6179 16.8417L93.6255 17.1184L93.6256 17.1186L98.6179 16.8417ZM97.856 11.576L102.599 9.99487L102.591 9.97042L102.583 9.94605L97.856 11.576ZM85.4679 67.122L80.4691 67.0144L80.4691 67.0145L85.4679 67.122ZM88.448 76.376L91.5515 72.4558L91.4913 72.4081L91.4296 72.3623L88.448 76.376ZM116.768 78.488V83.488H117.045L117.32 83.4574L116.768 78.488ZM117.022 78.4625L117.501 83.4396L117.501 83.4395L117.022 78.4625ZM124.928 73.88L120.547 71.4704L120.445 71.6559L120.359 71.8493L124.928 73.88ZM126.944 59.4814L121.944 59.4953V59.4955L126.944 59.4814ZM126.944 24.152L121.949 23.9197L121.944 24.0358V24.152H126.944ZM124.16 8.31199L121.293 12.4082L121.354 12.4511L121.417 12.4922L124.16 8.31199ZM154.016 34.712V29.712H153.521L153.035 29.8091L154.016 34.712ZM152.792 34.6402L151.795 39.5399L151.795 39.5399L152.792 34.6402ZM152.672 34.616L153.653 29.7131L153.167 29.616H152.672V34.616ZM150.656 34.52H155.656V33.8197L155.464 33.1464L150.656 34.52ZM150.443 26.3669L145.449 26.601V26.6011L150.443 26.3669ZM150.464 24.92L155.425 25.5401L155.464 25.2312V24.92H150.464ZM150.368 20.792H155.368V20.6879L155.364 20.5838L150.368 20.792ZM150.308 19.0519L145.31 19.2064V19.2065L150.308 19.0519ZM149.984 13.976H144.984V14.3153L145.03 14.6515L149.984 13.976ZM149.888 12.824L144.909 13.2768L144.944 13.6618L145.037 14.0368L149.888 12.824ZM149.859 12.5056L154.84 12.0635L154.84 12.0632L149.859 12.5056ZM147.872 6.872L151.502 3.43328L151.455 3.38422L151.408 3.33643L147.872 6.872ZM140 6.776L143.536 10.3115V10.3115L140 6.776ZM137.984 13.8555L132.984 13.8957L132.984 13.8962L137.984 13.8555ZM144.896 82.616L144.742 87.6136L144.819 87.616H144.896V82.616ZM145.088 82.712L141.552 86.2475L143.017 87.712H145.088V82.712ZM148.16 81.368L144.624 77.8325L144.521 77.9364L144.423 78.0462L148.16 81.368ZM150.464 69.464L145.466 69.3126L145.464 69.3883V69.464H150.464ZM150.464 59.672H145.464V59.7455L145.466 59.819L150.464 59.672ZM150.445 56.0823L155.445 56.0452V56.0451L150.445 56.0823ZM150.464 47.576L155.462 47.7274L155.464 47.6517V47.576H150.464ZM150.56 47.192V52.192H152.631L154.095 50.7277L150.56 47.192ZM150.848 47.096V52.096H150.967L151.086 52.0903L150.848 47.096ZM153.719 47.1025L153.825 42.1036H153.825L153.719 47.1025ZM158.336 47L159.043 51.9497L159.18 51.9301L159.317 51.9029L158.336 47ZM160.928 45.752L163.928 49.752L163.963 49.7257L163.998 49.6988L160.928 45.752ZM162.272 42.776L157.483 41.3393L157.415 41.5647L157.369 41.7954L162.272 42.776ZM161.888 37.496L157.357 39.6104L157.486 39.8871L157.648 40.146L161.888 37.496ZM158.24 35.192L159.221 30.2891L159.041 30.2533L158.86 30.2306L158.24 35.192ZM156.032 34.904L156.739 29.9542L156.387 29.904H156.032V34.904ZM155.049 34.8025L154.258 39.7395L154.258 39.7395L155.049 34.8025ZM97.856 66.872H92.856V71.9008L97.8847 71.8719L97.856 66.872ZM114.56 66.776L114.589 71.7759L119.582 71.7472L119.56 66.7538L114.56 66.776ZM97.8716 64.5847L92.8718 64.5411V64.5411L97.8716 64.5847ZM97.856 56.984H92.856V57.1089L92.8622 57.2337L97.856 56.984ZM97.8384 53.8503L102.838 53.8128L97.8384 53.8503ZM97.856 45.272L97.8271 40.2721L93.0304 40.2998L92.8592 45.0935L97.856 45.272ZM114.464 45.176L119.464 45.1538L119.442 40.1471L114.435 40.1761L114.464 45.176ZM210.568 70.712L215.534 70.1345L210.568 70.712ZM183.88 65.048L184.587 60.0983L184.235 60.048H183.88V65.048ZM179.943 60.728H184.943V60.6991L184.943 60.6702L179.943 60.728ZM179.559 27.512H174.559V27.5409L174.56 27.5698L179.559 27.512ZM179.559 27.416H184.559V27.0841L184.516 26.7552L179.559 27.416ZM181.096 20.984L183.036 25.5922L183.081 25.5731L183.126 25.5531L181.096 20.984ZM199.123 20.5827L199.038 25.5819L199.123 20.5827ZM206.055 20.12L207.268 24.9707L207.32 24.9578L207.371 24.9438L206.055 20.12ZM208.456 18.392L212.826 20.8203L212.836 20.8033L212.845 20.7862L208.456 18.392ZM208.647 12.44L203.871 13.9184L203.887 13.97L203.904 14.0212L208.647 12.44ZM199.027 8.69502L199.107 13.6944L199.027 8.69502ZM166.887 11.48L162.614 8.8851L162.612 8.88849L166.887 11.48ZM165.736 22.136H170.736V21.7806L170.685 21.4288L165.736 22.136ZM165.731 63.0922L170.729 63.2435L170.729 63.2431L165.731 63.0922ZM166.695 71.96L171.281 69.9664L171.27 69.9405L171.258 69.9147L166.695 71.96ZM171.688 76.568L173.124 71.7789L173.093 71.7694L173.061 71.7604L171.688 76.568ZM179.829 77.4982L179.684 82.4961H179.684L179.829 77.4982ZM180.807 77.528L180.641 82.5252L180.724 82.528H180.807V77.528ZM188.968 77.5478L188.949 82.5477H188.95L188.968 77.5478ZM203.368 77.528L203.546 82.5248L203.595 82.523L203.645 82.5203L203.368 77.528ZM228.424 34.712H223.424V39.2885L227.982 39.6925L228.424 34.712ZM236.008 35.384L237.027 30.4891L236.741 30.4294L236.449 30.4035L236.008 35.384ZM227.656 12.824L232.639 12.4144L232.637 12.3928L232.635 12.3712L227.656 12.824ZM227.627 12.5056L232.607 12.0635L232.607 12.0632L227.627 12.5056ZM225.639 6.872L229.269 3.43326L229.223 3.38423L229.175 3.33647L225.639 6.872ZM217.768 6.776L221.303 10.3115V10.3115L217.768 6.776ZM215.751 13.8555L210.752 13.8957V13.8962L215.751 13.8555ZM222.471 82.616L222.779 87.6066L222.794 87.6056L222.81 87.6045L222.471 82.616ZM228.19 63.3809L223.19 63.4172V63.4172L228.19 63.3809ZM228.232 47L228.171 42.0004L223.373 42.0589L223.234 46.8551L228.232 47ZM236.104 46.904V41.904H236.073L236.043 41.9044L236.104 46.904ZM240.04 42.968L235.25 41.5313L235.17 41.7988L235.12 42.0736L240.04 42.968ZM301.295 81.56L300.973 76.5704L300.641 76.5918L300.314 76.6571L301.295 81.56ZM271.001 81.7199L270.945 86.7196H270.945L271.001 81.7199ZM303.119 81.5054L303.043 76.506H303.042L303.119 81.5054ZM311.567 78.968L315.707 81.7722L315.717 81.7569L315.727 81.7415L311.567 78.968ZM313.199 74.744L308.223 74.2546L308.213 74.3604L308.207 74.4666L313.199 74.744ZM313.466 64.2068L318.466 64.1462V64.1462L313.466 64.2068ZM313.487 57.464L318.484 57.6278L318.487 57.5459V57.464H313.487ZM313.501 56.7304L318.499 56.8748V56.8745L313.501 56.7304ZM312.527 53.048L315.918 49.374L315.861 49.3209L315.802 49.2696L312.527 53.048ZM306.095 52.184L306.917 57.116L307.021 57.0986L307.125 57.0767L306.095 52.184ZM303.023 56.312L298.027 56.1038L298.023 56.2079V56.312H303.023ZM303.023 59.192V64.192H308.023V59.192H303.023ZM264.047 59.192L263.735 64.1823L263.891 64.192H264.047V59.192ZM263.157 59.1929L262.954 54.197L262.954 54.197L263.157 59.1929ZM261.743 57.752H256.743V58.0014L256.768 58.2495L261.743 57.752ZM261.743 55.256H266.743V54.7969L266.659 54.3456L261.743 55.256ZM256.367 52.184L256.15 47.1887L256.032 47.1938L255.915 47.2045L256.367 52.184ZM256.281 52.1918L256.733 57.1713L256.733 57.1713L256.281 52.1918ZM253.295 52.76L251.264 48.1909L251.264 48.1909L253.295 52.76ZM250.895 71.864L245.895 71.8307L245.89 72.6587L246.151 73.4443L250.895 71.864ZM250.942 72.2574L245.965 72.7333L245.965 72.7335L250.942 72.2574ZM253.967 79.832L250.925 83.8L250.96 83.8268L250.995 83.8529L253.967 79.832ZM261.743 81.656V86.656H261.821L261.899 86.6536L261.743 81.656ZM281.135 20.888L286.135 20.9395L286.135 20.9138V20.888H281.135ZM280.943 39.512L275.943 39.4605L275.943 39.4862V39.512H280.943ZM281.188 18.9981L286.184 19.2034V19.2033L281.188 18.9981ZM278.351 9.944L281.049 5.73461L281.046 5.73262L278.351 9.944ZM254.927 8.12V3.12H254.805L254.683 3.12594L254.927 8.12ZM249.551 8.504L248.89 3.54786L248.729 3.56929L248.57 3.60109L249.551 8.504ZM245.423 11.384L241.196 8.71404L241.189 8.724L241.183 8.73399L245.423 11.384ZM244.367 24.824L249.366 24.9351L249.366 24.9281L244.367 24.824ZM244.266 34.3826L239.27 34.1763V34.1765L244.266 34.3826ZM245.999 45.464L241.82 48.2099L241.84 48.2392L241.859 48.2683L245.999 45.464ZM256.917 48.3442L256.913 43.3442H256.913L256.917 48.3442ZM257.423 48.344V53.344H257.537L257.65 53.3388L257.423 48.344ZM261.612 48.3661L261.514 53.3651L261.612 48.3661ZM267.023 48.344V43.344H266.761L266.5 43.3715L267.023 48.344ZM268.912 48.3693L269.012 43.3703L268.912 48.3693ZM277.391 47.384L275.635 42.7024L275.584 42.7214L275.534 42.7416L277.391 47.384ZM298.319 43.448L303.306 43.8043L303.319 43.6264V43.448H298.319ZM297.263 47.768L292.851 45.415L292.82 45.4731L292.791 45.5319L297.263 47.768ZM298.319 32.792V27.792H293.319V32.792H298.319ZM302.639 32.792H307.639V27.792H302.639V32.792ZM302.635 39.5233L297.635 39.4842V39.4845L302.635 39.5233ZM303.791 47.96L308.263 45.7241L308.191 45.5799L308.11 45.4406L303.791 47.96ZM305.423 49.88L308.493 45.9333L308.412 45.8706L308.329 45.8113L305.423 49.88ZM310.799 50.168L308.25 45.8666L308.199 45.8967L308.149 45.928L310.799 50.168ZM313.487 12.824L308.584 11.8433L308.487 12.3289V12.824H313.487ZM312.719 8.024L308.179 10.1193L308.212 10.1902L308.247 10.2601L312.719 8.024ZM309.263 5.528L310.043 0.589182L309.991 0.580965L309.939 0.573846L309.263 5.528ZM304.751 7.064L308.467 10.4089L308.597 10.2655L308.714 10.1125L304.751 7.064ZM303.023 9.944L298.234 8.50728L298.224 8.53877L298.215 8.57038L303.023 9.944ZM302.735 14.072L307.735 14.1301L307.737 13.9227L307.722 13.7157L302.735 14.072ZM302.639 22.328L302.362 27.3203L307.578 27.6101L307.639 22.3861L302.639 22.328ZM301.759 22.28L302.029 17.2873L302.029 17.2873L301.759 22.28ZM298.319 22.04H293.319V26.2756L297.497 26.972L298.319 22.04ZM298.415 14.36V19.36H303.415V14.36H298.415ZM298.031 10.232L293.207 11.5472L293.228 11.6252L293.252 11.7024L298.031 10.232ZM297.889 9.6706L302.746 8.48562L302.746 8.48527L297.889 9.6706ZM296.783 7.256L300.499 3.91118L300.484 3.89421L300.469 3.87738L296.783 7.256ZM292.271 5.816L292.794 10.7885L292.871 10.7805L292.947 10.7701L292.271 5.816ZM288.335 8.12L292.807 10.3561L292.842 10.2862L292.875 10.2153L288.335 8.12ZM287.567 13.112H292.567V12.6983L292.499 12.2902L287.567 13.112ZM290.447 49.88L287.827 54.1383L287.921 54.1967L288.019 54.2508L290.447 49.88ZM295.601 49.6154L298.671 53.562L298.671 53.5618L295.601 49.6154ZM295.631 49.592L293.15 45.2508L292.842 45.4272L292.561 45.6456L295.631 49.592ZM269.711 23L274.684 23.5234L274.737 23.0131L274.686 22.5024L269.711 23ZM269.684 21.8615L274.684 21.9188V21.9187L269.684 21.8615ZM269.567 28.5819L264.568 28.5201V28.5202L269.567 28.5819ZM269.327 35.768L264.438 34.7204L264.405 34.8724L264.382 35.0262L269.327 35.768ZM269.283 36.0659L264.336 35.3438L264.335 35.3441L269.283 36.0659ZM266.543 38.648L266.46 43.6473L266.501 43.648H266.543V38.648ZM260.783 38.552L260.866 33.5527L260.825 33.552H260.783V38.552ZM256.751 37.304L252.847 40.4275L252.89 40.4812L252.934 40.5337L256.751 37.304ZM255.79 32.5444L250.793 32.351L250.793 32.3528L255.79 32.5444ZM255.887 25.4L260.88 25.6628L260.887 25.5315V25.4H255.887ZM256.367 19.736L252.604 16.4435L252.442 16.6291L252.298 16.8298L256.367 19.736ZM258.575 18.584L259.028 23.5635L259.413 23.5285L259.788 23.4347L258.575 18.584ZM261.263 18.392L261.445 13.3953L261.354 13.392H261.263V18.392ZM266.543 18.584L266.361 23.5807L266.452 23.584H266.543V18.584ZM269.519 19.928L274.308 18.4912L274.271 18.3677L274.228 18.2463L269.519 19.928ZM267.407 67.832L267.207 72.828L267.307 72.832H267.407V67.832ZM266.758 67.802L267.005 62.808H267.005L266.758 67.802ZM276.913 67.8612L276.928 62.8612L276.913 67.8612ZM298.895 67.928V72.928H299.087L299.278 72.9133L298.895 67.928ZM302.351 68.792L298.481 71.9582L298.546 72.0374L298.614 72.1139L302.351 68.792ZM302.785 70.6735L307.756 71.2152L307.756 71.215L302.785 70.6735ZM299.456 72.9605L298.987 77.9385L298.987 77.9385L299.456 72.9605ZM298.991 72.92L298.538 77.8995L298.586 77.9038L298.635 77.9073L298.991 72.92ZM277.679 73.112L278.132 68.1325L277.968 68.1177L277.804 68.1136L277.679 73.112ZM265.775 72.92V67.92H265.628L265.481 67.9286L265.775 72.92ZM265.247 72.958L264.855 67.9733L265.247 72.958ZM262.031 71.288L257.128 72.2687L257.162 72.4375L257.207 72.6036L262.031 71.288ZM63.0685 20.031L67.8014 21.6435L72.0938 9.04476L60.568 15.7012L63.0685 20.031ZM48.0469 64.1212L43.4693 66.1326L48.6369 77.8935L52.7798 65.7337L48.0469 64.1212ZM18 46.0592L15.4994 41.7294L0.0429001 50.6559L17.8874 51.0579L18 46.0592ZM40.3317 46.5623L44.9093 44.551L43.6282 41.6353L40.4443 41.5636L40.3317 46.5623ZM119.56 27.512V17.624H109.56V27.512H119.56ZM119.555 29.4111C119.547 28.9947 119.54 28.6479 119.539 28.3525C119.539 28.2079 119.54 28.0942 119.542 28.0069C119.544 27.9145 119.546 27.8832 119.545 27.8955L109.575 27.1285C109.518 27.8714 109.543 28.9185 109.556 29.6006L119.555 29.4111ZM118.937 35.3027C119.319 34.4432 119.428 33.6057 119.471 33.2492C119.527 32.774 119.552 32.2923 119.563 31.8774C119.587 31.0502 119.568 30.1226 119.555 29.4111L109.556 29.6006C109.571 30.3742 109.583 31.0503 109.567 31.5953C109.56 31.8665 109.547 32.013 109.541 32.0642C109.538 32.0871 109.543 32.036 109.566 31.934C109.583 31.8538 109.645 31.5886 109.799 31.2413L118.937 35.3027ZM98.7507 38.3679L114.399 38.2719L114.337 28.2721L98.6893 28.3681L98.7507 38.3679ZM93.5974 19.4799C93.5667 21.7853 93.5202 25.2751 93.5203 28.1918C93.5204 29.6415 93.5318 31.0031 93.5654 32.0231C93.5815 32.5151 93.6057 33.0273 93.6486 33.4586C93.6668 33.6415 93.706 34.0038 93.7976 34.3975C93.8337 34.5523 93.9472 35.0309 94.2199 35.5767C94.3528 35.8427 94.6577 36.4018 95.2294 36.9549C95.8351 37.5409 97.0202 38.368 98.72 38.368V28.368C100.41 28.368 101.586 29.1906 102.182 29.7678C102.745 30.312 103.041 30.8578 103.165 31.1063C103.42 31.617 103.517 32.0433 103.537 32.1297C103.597 32.3864 103.607 32.5466 103.6 32.469C103.591 32.3794 103.575 32.1369 103.56 31.6944C103.532 30.8456 103.52 29.619 103.52 28.1915C103.52 25.3536 103.566 21.9327 103.596 19.6129L93.5974 19.4799ZM93.624 17.144C93.624 17.4671 93.6132 18.2919 93.5974 19.4799L103.596 19.6129C103.612 18.4761 103.624 17.5536 103.624 17.144H93.624ZM93.624 16.952V17.144H103.624V16.952H93.624ZM93.6256 17.1186L93.6317 17.2289L103.616 16.6751L103.61 16.5648L93.6256 17.1186ZM93.1126 13.1571C93.428 14.1034 93.5243 15.2921 93.6255 17.1184L103.61 16.565C103.523 14.9931 103.412 12.4312 102.599 9.99487L93.1126 13.1571ZM91.616 12.448C92.0946 12.448 92.4072 12.4978 92.5946 12.5457C92.7727 12.5912 92.8351 12.634 92.8377 12.6357C92.8419 12.6385 92.8441 12.6403 92.8476 12.6436C92.8513 12.6472 92.8646 12.6605 92.8863 12.6904C92.9295 12.75 93.0241 12.9014 93.1291 13.206L102.583 9.94605C101.821 7.73602 100.487 5.70885 98.3623 4.30031C96.2828 2.92204 93.9149 2.44799 91.616 2.44799V12.448ZM90.472 16.664C90.472 15.4369 90.7712 13.9776 91.2772 13.0155C91.5127 12.5678 91.6923 12.4196 91.7143 12.4034C91.7171 12.4013 91.6908 12.42 91.6427 12.4361C91.5928 12.4528 91.5751 12.448 91.616 12.448V2.44799C86.8508 2.44799 83.9102 5.54021 82.4268 8.36045C80.9888 11.0944 80.472 14.2431 80.472 16.664H90.472ZM90.472 66.872V16.664H80.472V66.872H90.472ZM90.4667 67.2296C90.4685 67.1487 90.472 66.9986 90.472 66.872H80.472C80.472 66.8624 80.4721 66.8588 80.472 66.8637C80.472 66.8682 80.4718 66.8767 80.4716 66.8908C80.4711 66.9211 80.4703 66.9584 80.4691 67.0144L90.4667 67.2296ZM91.4296 72.3623C91.3718 72.3193 90.9572 71.8862 90.6813 70.4648C90.4334 69.1883 90.4519 67.9193 90.4667 67.2295L80.4691 67.0145C80.4529 67.7658 80.3968 69.9615 80.8645 72.3706C81.3041 74.6348 82.3951 78.1082 85.4664 80.3897L91.4296 72.3623ZM96.608 73.488C93.6817 73.488 92.4279 73.1496 91.5515 72.4558L85.3445 80.2962C89.0761 83.2504 93.3903 83.488 96.608 83.488V73.488ZM116.768 73.488H96.608V83.488H116.768V73.488ZM116.544 73.4855C116.457 73.4938 116.329 73.506 116.216 73.5186L117.32 83.4574C117.344 83.4548 117.387 83.4505 117.501 83.4396L116.544 73.4855ZM119.568 72.7445C119.578 72.7348 119.321 72.9528 118.537 73.1641C117.823 73.3562 117.111 73.4309 116.544 73.4855L117.501 83.4395C118.097 83.3822 119.542 83.2495 121.136 82.8202C122.66 82.4101 124.862 81.5928 126.64 79.8155L119.568 72.7445ZM120.359 71.8493C120.425 71.7005 120.459 71.6672 120.391 71.7677C120.335 71.8506 120.248 71.9679 120.132 72.111C119.893 72.4062 119.651 72.6618 119.568 72.7445L126.64 79.8155C126.941 79.5142 127.419 79.0018 127.9 78.409C128.318 77.8926 129.026 76.9697 129.497 75.9107L120.359 71.8493ZM121.944 59.4955C121.946 60.1032 121.952 62.5965 121.722 65.3482C121.607 66.7263 121.439 68.0861 121.204 69.2585C120.954 70.5098 120.692 71.2066 120.547 71.4704L129.309 76.2896C130.187 74.693 130.69 72.8195 131.01 71.222C131.345 69.5456 131.554 67.778 131.688 66.1813C131.955 62.9835 131.946 60.138 131.944 59.4672L121.944 59.4955ZM121.944 59.384C121.944 59.4165 121.944 59.4576 121.944 59.4953L131.944 59.4674C131.944 59.4233 131.944 59.3991 131.944 59.384H121.944ZM121.944 24.152V59.384H131.944V24.152H121.944ZM121.417 12.4922C120.75 12.0544 120.861 11.7009 121.176 12.6415C121.433 13.4126 121.654 14.5412 121.803 15.9634C122.1 18.7827 122.041 21.9455 121.949 23.9197L131.939 24.3843C132.039 22.2305 132.124 18.4813 131.749 14.9166C131.562 13.1468 131.243 11.2154 130.66 9.47246C130.135 7.89906 129.106 5.5776 126.903 4.13176L121.417 12.4922ZM120.608 12.256C120.735 12.256 120.909 12.2781 121.081 12.3288C121.26 12.3814 121.326 12.4313 121.293 12.4082L127.027 4.21583C125.12 2.88051 122.743 2.256 120.608 2.256V12.256ZM119.56 17.624C119.56 16.2456 119.596 14.4393 120.059 13.0491C120.274 12.404 120.469 12.2168 120.466 12.2192C120.355 12.3193 120.278 12.256 120.608 12.256V2.256C117.914 2.256 115.569 3.16466 113.757 4.80382C112.053 6.34518 111.114 8.26403 110.573 9.88686C109.524 13.0327 109.56 16.4104 109.56 17.624H119.56ZM154.016 39.712H154.208V29.712H154.016V39.712ZM151.795 39.5399C152.145 39.611 153.44 39.9261 154.997 39.6149L153.035 29.8091C153.189 29.7784 153.344 29.7604 153.496 29.7542C153.645 29.7481 153.768 29.7545 153.854 29.7623C153.935 29.7698 153.981 29.7784 153.967 29.7759C153.944 29.7718 153.908 29.7648 153.789 29.7406L151.795 39.5399ZM151.691 39.5189C151.722 39.5251 151.754 39.5316 151.795 39.5399L153.789 29.7406C153.751 29.7329 153.703 29.7231 153.653 29.7131L151.691 39.5189ZM145.656 34.52C145.656 36.7929 147.09 38.0869 147.6 38.4819C148.181 38.9318 148.723 39.1442 148.924 39.2195C149.382 39.3906 149.769 39.458 149.88 39.4774C150.183 39.5302 150.457 39.5521 150.587 39.5617C150.897 39.5848 151.241 39.5961 151.506 39.6025C152.063 39.6161 152.618 39.616 152.672 39.616V29.616C152.63 29.616 152.177 29.6159 151.75 29.6055C151.523 29.5999 151.381 29.5932 151.328 29.5893C151.276 29.5854 151.4 29.5915 151.598 29.626C151.656 29.6362 152.002 29.6937 152.431 29.8543C152.618 29.9243 153.149 30.1313 153.723 30.5755C154.226 30.9649 155.656 32.2531 155.656 34.52H145.656ZM145.464 32.408C145.464 32.9299 145.429 34.4272 145.848 35.8936L155.464 33.1464C155.5 33.2723 155.488 33.2938 155.477 33.1314C155.466 32.9642 155.464 32.7687 155.464 32.408H145.464ZM145.464 27.032V32.408H155.464V27.032H145.464ZM145.449 26.6011C145.46 26.8452 145.464 26.9483 145.464 27.032H155.464C155.464 26.6746 155.447 26.3365 155.438 26.1328L145.449 26.6011ZM145.503 24.2999C145.378 25.3007 145.429 26.1816 145.449 26.601L155.438 26.1329C155.426 25.8874 155.421 25.7679 155.421 25.6616C155.421 25.5716 155.425 25.5403 155.425 25.5401L145.503 24.2999ZM145.419 23.0345C145.444 23.7167 145.464 24.3025 145.464 24.92H155.464C155.464 24.0974 155.436 23.3393 155.413 22.6775L145.419 23.0345ZM145.368 20.792C145.368 21.6145 145.396 22.3726 145.419 23.0345L155.413 22.6775C155.388 21.9954 155.368 21.4095 155.368 20.792H145.368ZM145.31 19.2065C145.328 19.7838 145.347 20.3928 145.372 21.0002L155.364 20.5838C155.341 20.0391 155.324 19.484 155.306 18.8973L145.31 19.2065ZM145.03 14.6515C145.204 15.9275 145.254 17.3993 145.31 19.2064L155.306 18.8973C155.253 17.2125 155.196 15.1924 154.938 13.3005L145.03 14.6515ZM145.037 14.0368C144.99 13.8495 144.982 13.7232 144.982 13.7119C144.981 13.7064 144.982 13.7201 144.983 13.7661C144.983 13.7886 144.984 13.816 144.984 13.8515C144.984 13.8881 144.984 13.9264 144.984 13.976H154.984C154.984 13.6849 155.008 12.6876 154.739 11.6112L145.037 14.0368ZM144.879 12.9476C144.888 13.053 144.898 13.1643 144.909 13.2768L154.867 12.3712C154.858 12.271 154.849 12.1699 154.84 12.0635L144.879 12.9476ZM144.242 10.3107C144.439 10.5182 144.528 10.6888 144.607 10.965C144.724 11.3719 144.783 11.8663 144.879 12.9479L154.84 12.0632C154.672 10.171 154.472 6.56888 151.502 3.43328L144.242 10.3107ZM144.32 10.432C144.346 10.432 144.361 10.4345 144.368 10.4358C144.375 10.4373 144.377 10.4384 144.376 10.4379C144.375 10.4375 144.371 10.4358 144.365 10.4317C144.359 10.4277 144.349 10.4204 144.337 10.4076L151.408 3.33643C149.631 1.56009 147.121 0.431997 144.32 0.431997V10.432ZM143.536 10.3115C143.386 10.4614 143.26 10.5543 143.19 10.6023C143.118 10.6514 143.075 10.6727 143.073 10.6736C143.07 10.6752 143.09 10.6649 143.138 10.6469C143.185 10.6291 143.248 10.6076 143.327 10.5849C143.489 10.5381 143.679 10.4972 143.874 10.4691C144.071 10.4407 144.227 10.432 144.32 10.432V0.431997C143.11 0.431997 141.781 0.623907 140.561 0.975134C139.474 1.2879 137.786 1.91853 136.464 3.24047L143.536 10.3115ZM142.984 13.8153C142.983 13.7002 142.976 12.7907 143.149 11.7654C143.235 11.2561 143.348 10.8305 143.471 10.5187C143.601 10.1864 143.665 10.1826 143.536 10.3115L136.464 3.24047C134.278 5.42701 133.572 8.43029 133.29 10.0954C132.969 11.9913 132.982 13.5933 132.984 13.8957L142.984 13.8153ZM142.984 13.88C142.984 13.8589 142.984 13.8409 142.984 13.8351C142.984 13.8274 142.984 13.819 142.984 13.8148L132.984 13.8962C132.984 13.8994 132.984 13.9013 132.984 13.9031C132.984 13.9048 132.984 13.9053 132.984 13.9051C132.984 13.9049 132.984 13.9028 132.984 13.8994C132.984 13.8964 132.984 13.8893 132.984 13.88H142.984ZM142.984 70.904V13.88H132.984V70.904H142.984ZM145.05 77.6184C144.57 77.6036 144.45 77.4858 144.404 77.4474C144.283 77.3454 144.023 77.0545 143.75 76.3631C143.164 74.8778 142.984 72.7854 142.984 70.904H132.984C132.984 73.0546 133.14 76.7222 134.45 80.0369C135.125 81.7455 136.203 83.6146 137.963 85.0966C139.798 86.6422 142.102 87.5324 144.742 87.6136L145.05 77.6184ZM145.088 82.712C148.624 79.1765 148.623 79.1756 148.622 79.1747C148.622 79.1744 148.621 79.1736 148.62 79.173C148.619 79.1718 148.618 79.1707 148.617 79.1695C148.614 79.1672 148.612 79.1648 148.609 79.1624C148.605 79.1577 148.6 79.1529 148.595 79.148C148.585 79.1383 148.575 79.1282 148.564 79.1179C148.543 79.0973 148.52 79.0755 148.495 79.0526C148.447 79.0071 148.39 78.9559 148.325 78.9007C148.202 78.7949 148.025 78.653 147.801 78.5037C147.516 78.3137 146.447 77.616 144.896 77.616V87.616C144.105 87.616 143.485 87.4237 143.11 87.2734C142.724 87.119 142.434 86.9441 142.255 86.8242C142.067 86.699 141.92 86.5811 141.818 86.4933C141.764 86.4471 141.715 86.4034 141.672 86.3632C141.65 86.3429 141.63 86.3231 141.61 86.3039C141.6 86.2943 141.59 86.2848 141.581 86.2754C141.576 86.2707 141.571 86.2661 141.566 86.2614C141.564 86.2591 141.562 86.2568 141.559 86.2545C141.558 86.2533 141.557 86.2521 141.556 86.251C141.555 86.2504 141.554 86.2495 141.554 86.2493C141.553 86.2484 141.552 86.2475 145.088 82.712ZM144.423 78.0462C144.497 77.9623 144.621 77.8624 144.783 77.7906C144.944 77.7194 145.062 77.712 145.088 77.712V87.712C147.72 87.712 150.151 86.6539 151.897 84.6898L144.423 78.0462ZM145.464 70.808C145.464 72.5482 145.455 74.2417 145.231 75.7468C144.986 77.3882 144.61 77.8473 144.624 77.8325L151.696 84.9035C154.014 82.5847 154.79 79.4438 155.121 77.2212C155.473 74.8623 155.464 72.4278 155.464 70.808H145.464ZM145.464 69.464V70.808H155.464V69.464H145.464ZM145.466 59.819C145.559 62.9865 145.559 66.247 145.466 69.3126L155.462 69.6154C155.561 66.345 155.561 62.8855 155.462 59.525L145.466 59.819ZM145.445 56.1195C145.455 57.456 145.464 58.6807 145.464 59.672H155.464C155.464 58.6355 155.455 57.3693 155.445 56.0452L145.445 56.1195ZM145.466 47.4246C145.397 49.7257 145.423 53.209 145.445 56.1195L155.445 56.0451C155.422 53.0511 155.399 49.7941 155.462 47.7274L145.466 47.4246ZM150.56 47.192C150.56 42.192 150.55 42.192 150.54 42.192C150.537 42.1921 150.527 42.1921 150.521 42.1922C150.508 42.1923 150.494 42.1924 150.481 42.1926C150.455 42.193 150.428 42.1937 150.401 42.1945C150.348 42.1962 150.293 42.1988 150.238 42.2024C150.127 42.2095 150.014 42.2205 149.898 42.236C149.666 42.2669 149.426 42.3154 149.182 42.3852C148.687 42.5266 148.21 42.7451 147.771 43.0378C146.884 43.6297 146.348 44.3869 146.04 45.0041C145.493 46.0968 145.464 47.1287 145.464 47.576H155.464C155.464 47.6393 155.483 48.4792 154.984 49.4759C154.7 50.0451 154.188 50.7783 153.319 51.3582C152.889 51.6449 152.419 51.8604 151.93 52.0003C151.688 52.0693 151.451 52.1175 151.22 52.1482C151.105 52.1636 150.992 52.1745 150.882 52.1816C150.827 52.1852 150.772 52.1878 150.719 52.1895C150.692 52.1903 150.665 52.191 150.639 52.1914C150.626 52.1916 150.612 52.1917 150.599 52.1918C150.593 52.1919 150.583 52.1919 150.58 52.192C150.57 52.192 150.56 52.192 150.56 47.192ZM150.848 42.096C149.888 42.096 149.055 42.3421 148.396 42.6718C148.075 42.8325 147.802 43.0086 147.578 43.1769C147.466 43.2612 147.364 43.3446 147.272 43.4248C147.226 43.465 147.183 43.5044 147.142 43.543C147.121 43.5623 147.101 43.5814 147.082 43.6003C147.072 43.6098 147.062 43.6191 147.053 43.6285C147.048 43.6331 147.043 43.6378 147.039 43.6424C147.036 43.6447 147.034 43.647 147.032 43.6493C147.03 43.6505 147.029 43.6522 147.028 43.6528C147.026 43.6545 147.025 43.6563 150.56 47.192C154.095 50.7277 154.094 50.7295 154.092 50.7312C154.091 50.7318 154.09 50.7335 154.088 50.7346C154.086 50.737 154.084 50.7393 154.081 50.7416C154.077 50.7462 154.072 50.7508 154.067 50.7554C154.058 50.7646 154.049 50.7739 154.039 50.7831C154.02 50.8016 154 50.8202 153.981 50.8388C153.941 50.876 153.9 50.9134 153.857 50.9509C153.771 51.0258 153.678 51.1018 153.578 51.1771C153.378 51.3273 153.141 51.4795 152.868 51.6162C152.305 51.8979 151.616 52.096 150.848 52.096V42.096ZM153.825 42.1036C152.824 42.0823 151.613 42.0539 150.61 42.1017L151.086 52.0903C151.668 52.0626 152.488 52.0774 153.612 52.1014L153.825 42.1036ZM157.629 42.0503C156.905 42.1537 155.631 42.1421 153.825 42.1036L153.612 52.1014C155.087 52.1328 157.32 52.1958 159.043 51.9497L157.629 42.0503ZM157.928 41.752C157.726 41.9037 157.574 41.9951 157.468 42.0479C157.366 42.099 157.331 42.102 157.355 42.0971L159.317 51.9029C161.271 51.5121 162.821 50.582 163.928 49.752L157.928 41.752ZM157.369 41.7954C157.323 42.0278 157.288 42.1944 157.25 42.3451C157.213 42.4938 157.187 42.5734 157.175 42.605C157.162 42.6398 157.185 42.5665 157.27 42.4334C157.359 42.2961 157.542 42.0516 157.858 41.8052L163.998 49.6988C165.465 48.5575 166.174 47.0796 166.529 46.139C166.896 45.169 167.082 44.2201 167.175 43.7566L157.369 41.7954ZM157.56 39.992C157.56 41.0189 157.531 41.1786 157.483 41.3393L167.061 44.2127C167.589 42.4534 167.56 40.885 167.56 39.992H157.56ZM157.648 40.146C157.597 40.0638 157.572 39.9921 157.562 39.9532C157.553 39.9189 157.56 39.928 157.56 39.992H167.56C167.56 38.3916 167.201 36.5632 166.128 34.846L157.648 40.146ZM157.259 40.0949C157.478 40.1386 157.644 40.1822 157.766 40.2223C157.889 40.2628 157.934 40.2883 157.924 40.2828C157.911 40.2756 157.821 40.2237 157.701 40.1045C157.575 39.9781 157.45 39.8092 157.357 39.6104L166.419 35.3816C164.654 31.5986 160.881 30.6211 159.221 30.2891L157.259 40.0949ZM155.325 39.8537C156.049 39.9572 156.863 40.0588 157.62 40.1534L158.86 30.2306C158.081 30.1332 157.359 30.0428 156.739 29.9542L155.325 39.8537ZM154.258 39.7395C154.525 39.7822 155.227 39.904 156.032 39.904V29.904C156.104 29.904 156.138 29.9094 156.109 29.906C156.095 29.9043 156.068 29.9009 156.023 29.8941C155.974 29.8869 155.922 29.8785 155.841 29.8654L154.258 39.7395ZM154.208 39.712C154.144 39.712 154.095 39.7094 154.065 39.7073C154.035 39.7052 154.021 39.7033 154.026 39.704C154.032 39.7047 154.051 39.7072 154.092 39.7132C154.111 39.7162 154.134 39.7198 154.163 39.7242C154.191 39.7288 154.221 39.7335 154.258 39.7395L155.841 29.8654C155.627 29.8312 154.952 29.712 154.208 29.712V39.712ZM97.8847 71.8719L114.589 71.7759L114.531 61.7761L97.8273 61.8721L97.8847 71.8719ZM92.8718 64.5411C92.8635 65.4978 92.856 66.3462 92.856 66.872H102.856C102.856 66.4014 102.863 65.6089 102.871 64.6283L92.8718 64.5411ZM92.8622 57.2337C92.9226 58.4399 92.8952 61.8589 92.8718 64.5411L102.871 64.6283C102.893 62.1549 102.929 58.3193 102.85 56.7343L92.8622 57.2337ZM92.8385 53.8879C92.8479 55.1324 92.856 56.2165 92.856 56.984H102.856C102.856 56.1699 102.847 55.0411 102.838 53.8128L92.8385 53.8879ZM92.8592 45.0935C92.7865 47.1279 92.8167 50.9833 92.8385 53.8879L102.838 53.8128C102.816 50.7843 102.79 47.2106 102.853 45.4505L92.8592 45.0935ZM114.435 40.1761L97.8271 40.2721L97.8849 50.2719L114.493 50.1759L114.435 40.1761ZM119.56 66.7538L119.464 45.1538L109.464 45.1982L109.56 66.7982L119.56 66.7538ZM202.887 70.72C203.647 70.72 204.268 70.7651 204.764 70.8491C205.264 70.934 205.522 71.0398 205.624 71.0934C205.695 71.1307 205.628 71.1069 205.557 71.0028C205.489 70.9026 205.56 70.9365 205.601 71.2895L215.534 70.1345C215.107 66.4598 213.157 63.7564 210.279 62.2426C207.787 60.9322 204.986 60.72 202.887 60.72V70.72ZM183.172 69.9977C183.819 70.0901 186.781 70.2654 190.252 70.4153C193.902 70.573 198.565 70.72 202.887 70.72V60.72C198.762 60.72 194.257 60.579 190.683 60.4247C188.901 60.3477 187.363 60.2679 186.237 60.202C184.959 60.1273 184.491 60.0846 184.587 60.0983L183.172 69.9977ZM174.943 60.728C174.943 62.4735 175.254 64.893 176.885 66.94C178.694 69.2104 181.319 70.048 183.88 70.048V60.048C183.636 60.048 183.693 60.0097 183.918 60.1026C184.176 60.2094 184.472 60.4143 184.706 60.708C184.92 60.9768 184.976 61.1848 184.977 61.1911C184.978 61.1947 184.969 61.16 184.96 61.0784C184.951 60.9972 184.943 60.8817 184.943 60.728H174.943ZM174.56 27.5698L174.944 60.7858L184.943 60.6702L184.559 27.4542L174.56 27.5698ZM174.559 27.416V27.512H184.559V27.416H174.559ZM179.155 16.3758C177.114 17.2352 176.049 18.8739 175.524 20.0046C174.987 21.1612 174.742 22.3519 174.617 23.2784C174.366 25.1353 174.461 27.0074 174.603 28.0768L184.516 26.7552C184.498 26.6201 184.467 26.2883 184.462 25.8501C184.456 25.4159 184.477 24.9821 184.526 24.6176C184.581 24.212 184.642 24.1128 184.594 24.2164C184.558 24.2941 184.165 25.1168 183.036 25.5922L179.155 16.3758ZM185.896 15.504C184.959 15.504 183.826 15.5294 182.762 15.6168C181.94 15.6844 180.37 15.835 179.065 16.4149L183.126 25.5531C182.792 25.7017 182.626 25.7082 182.839 25.6703C182.991 25.6435 183.236 25.6116 183.581 25.5832C184.269 25.5266 185.104 25.504 185.896 25.504V15.504ZM199.209 15.5834C197.553 15.5552 194.528 15.504 185.896 15.504V25.504C194.479 25.504 197.446 25.5548 199.038 25.5819L199.209 15.5834ZM200.583 15.6C200.192 15.6 199.822 15.5938 199.209 15.5834L199.038 25.5819C199.632 25.5921 200.091 25.6 200.583 25.6V15.6ZM204.843 15.2693C204.262 15.4144 202.902 15.6 200.583 15.6V25.6C203.257 25.6 205.545 25.4016 207.268 24.9707L204.843 15.2693ZM204.085 15.9637C204.425 15.3513 204.868 15.2611 204.74 15.2962L207.371 24.9438C209.355 24.4028 211.526 23.1607 212.826 20.8203L204.085 15.9637ZM203.904 14.0212C203.867 13.9109 203.866 13.8771 203.88 13.9517C203.891 14.0166 203.907 14.1267 203.922 14.2829C203.951 14.5998 203.962 14.9955 203.95 15.407C203.937 15.8238 203.902 16.1701 203.864 16.397C203.845 16.509 203.834 16.5437 203.842 16.5155C203.843 16.5124 203.9 16.3029 204.066 15.9978L212.845 20.7862C213.402 19.7658 213.622 18.675 213.728 18.041C213.855 17.2779 213.922 16.4722 213.945 15.713C213.986 14.3751 213.916 12.4345 213.391 10.8588L203.904 14.0212ZM199.107 13.6944C199.507 13.6879 201.135 13.6694 202.692 13.9987C203.474 14.1641 203.958 14.3622 204.187 14.4998C204.378 14.615 204.041 14.4663 203.871 13.9184L213.424 10.9616C212.654 8.47344 210.927 6.88466 209.343 5.9317C207.796 5.00095 206.12 4.50264 204.761 4.21508C202.034 3.6383 199.451 3.68754 198.946 3.69567L199.107 13.6944ZM198.952 13.696C199.017 13.696 199.097 13.6945 199.107 13.6944L198.946 3.69567C198.937 3.69581 198.93 3.69593 198.924 3.69602C198.918 3.69612 198.914 3.69617 198.912 3.6962C198.91 3.69623 198.912 3.69619 198.917 3.69615C198.919 3.69612 198.924 3.69609 198.929 3.69606C198.934 3.69603 198.942 3.696 198.952 3.696V13.696ZM176.488 13.696H198.952V3.696H176.488V13.696ZM171.161 14.0749C170.762 14.733 170.37 14.7504 170.913 14.5228C171.349 14.3401 172.024 14.1561 172.888 14.0089C174.6 13.7169 176.275 13.696 176.488 13.696V3.696C176.028 3.696 173.719 3.72304 171.207 4.15109C169.959 4.36386 168.462 4.70787 167.05 5.29917C165.745 5.84556 163.829 6.88296 162.614 8.8851L171.161 14.0749ZM170.685 21.4288C170.688 21.4458 170.638 21.042 170.596 20.3366C170.556 19.6612 170.528 18.796 170.554 17.8813C170.579 16.9537 170.657 16.0632 170.798 15.3093C170.949 14.5042 171.121 14.1411 171.163 14.0715L162.612 8.88849C160.911 11.6939 160.619 15.3804 160.557 17.6067C160.489 20.0869 160.7 22.2416 160.786 22.8432L170.685 21.4288ZM170.736 62.936V22.136H160.736V62.936H170.736ZM170.729 63.2431C170.73 63.2241 170.736 63.0562 170.736 62.936H160.736C160.736 62.9221 160.736 62.9103 160.736 62.9014C160.736 62.8923 160.736 62.8848 160.736 62.8789C160.736 62.8677 160.736 62.8595 160.736 62.8559C160.736 62.852 160.736 62.8499 160.736 62.8504C160.736 62.8508 160.736 62.8525 160.736 62.8559C160.736 62.8629 160.736 62.8732 160.735 62.8883C160.735 62.9034 160.734 62.9203 160.734 62.9412L170.729 63.2431ZM171.258 69.9147C171.217 69.8233 171.099 69.4798 170.984 68.8001C170.877 68.1643 170.805 67.4243 170.761 66.6536C170.673 65.1121 170.715 63.719 170.729 63.2435L160.734 62.9408C160.718 63.4704 160.664 65.2234 160.777 67.2207C160.879 69.0119 161.145 71.8013 162.133 74.0053L171.258 69.9147ZM173.061 71.7604C172.642 71.6407 171.714 70.9633 171.281 69.9664L162.11 73.9536C163.597 77.3727 166.701 80.3433 170.314 81.3756L173.061 71.7604ZM179.975 72.5003C177.185 72.4192 174.937 72.3226 173.124 71.7789L170.251 81.3571C173.557 82.349 177.186 82.4234 179.684 82.4961L179.975 72.5003ZM180.974 72.5308C180.641 72.5197 180.304 72.5099 179.975 72.5003L179.684 82.4961C180.017 82.5058 180.333 82.5149 180.641 82.5252L180.974 72.5308ZM181.576 72.528H180.807V82.528H181.576V72.528ZM188.986 72.5478C186.217 72.5377 183.564 72.528 181.576 72.528V82.528C183.541 82.528 186.173 82.5376 188.949 82.5477L188.986 72.5478ZM203.189 72.5312C201.482 72.5922 195.051 72.5699 188.986 72.5478L188.95 82.5477C194.84 82.5692 201.581 82.595 203.546 82.5248L203.189 72.5312ZM205.601 71.2895C205.608 71.3538 205.603 71.3764 205.604 71.3702C205.605 71.3648 205.607 71.363 205.602 71.3725C205.592 71.3953 205.521 71.5273 205.284 71.7204C205.045 71.9154 204.701 72.1177 204.274 72.2766C203.847 72.4354 203.429 72.5169 203.09 72.5357L203.645 82.5203C206.332 82.371 209.285 81.3608 211.603 79.4716C214.033 77.4909 216.015 74.2684 215.534 70.1345L205.601 71.2895ZM227.982 39.6925L235.566 40.3645L236.449 30.4035L228.865 29.7315L227.982 39.6925ZM222.672 13.2336C223.233 20.055 223.424 27.4906 223.424 34.712H233.424C233.424 27.3414 233.23 19.609 232.639 12.4144L222.672 13.2336ZM222.647 12.9476C222.656 13.053 222.666 13.1643 222.676 13.2768L232.635 12.3712C232.626 12.2709 232.617 12.1699 232.607 12.0635L222.647 12.9476ZM222.01 10.3107C222.206 10.5182 222.296 10.6888 222.375 10.965C222.491 11.3719 222.551 11.8663 222.647 12.9479L232.607 12.0632C232.439 10.171 232.24 6.56887 229.269 3.43326L222.01 10.3107ZM222.088 10.432C222.113 10.432 222.128 10.4345 222.135 10.4358C222.142 10.4373 222.145 10.4384 222.143 10.4379C222.142 10.4375 222.139 10.4358 222.133 10.4317C222.127 10.4277 222.117 10.4203 222.104 10.4075L229.175 3.33647C227.399 1.56008 224.889 0.431997 222.088 0.431997V10.432ZM221.303 10.3115C221.153 10.4614 221.028 10.5543 220.957 10.6023C220.885 10.6514 220.842 10.6727 220.841 10.6736C220.837 10.6752 220.858 10.6649 220.906 10.6469C220.952 10.6291 221.016 10.6076 221.095 10.5849C221.257 10.5381 221.447 10.4972 221.641 10.4691C221.838 10.4407 221.994 10.432 222.088 10.432V0.431997C220.878 0.431997 219.548 0.623906 218.328 0.975134C217.242 1.2879 215.554 1.91854 214.232 3.24047L221.303 10.3115ZM220.751 13.8153C220.75 13.7002 220.743 12.7907 220.917 11.7654C221.003 11.2561 221.116 10.8305 221.238 10.5187C221.369 10.1864 221.432 10.1826 221.303 10.3115L214.232 3.24046C212.045 5.42701 211.339 8.4303 211.057 10.0954C210.736 11.9913 210.749 13.5933 210.752 13.8957L220.751 13.8153ZM220.751 13.88C220.751 13.8499 220.751 13.8182 220.751 13.8148L210.752 13.8962C210.752 13.9017 210.752 13.903 210.752 13.9027C210.752 13.9024 210.752 13.9004 210.752 13.8973C210.752 13.8944 210.751 13.8882 210.751 13.88H220.751ZM220.751 72.824V13.88H210.751V72.824H220.751ZM222.164 77.6254C221.453 77.6692 221.343 77.514 221.467 77.5925C221.565 77.655 221.485 77.6638 221.328 77.3173C221.157 76.9387 220.992 76.3408 220.885 75.4872C220.78 74.6519 220.751 73.7498 220.751 72.824H210.751C210.751 74.8329 210.827 78.363 212.215 81.4347C212.958 83.0802 214.168 84.805 216.111 86.0375C218.08 87.286 220.37 87.7548 222.779 87.6066L222.164 77.6254ZM223.232 71.768C223.232 73.5236 223.173 75.3735 222.722 76.7574C222.514 77.3939 222.322 77.6021 222.3 77.6228C222.297 77.6256 222.302 77.6204 222.315 77.6121C222.327 77.6036 222.339 77.5975 222.346 77.5944C222.368 77.5848 222.314 77.6152 222.133 77.6274L222.81 87.6045C225.362 87.4315 227.545 86.4482 229.222 84.8402C230.811 83.3159 231.705 81.4661 232.229 79.8586C233.242 76.7545 233.232 73.3724 233.232 71.768H223.232ZM223.19 63.4172C223.211 66.3195 223.232 69.1649 223.232 71.768H233.232C233.232 69.1216 233.211 66.2383 233.189 63.3445L223.19 63.4172ZM223.234 46.8551C223.102 51.4084 223.147 57.5522 223.19 63.4172L233.189 63.3445C233.146 57.4103 233.104 51.4755 233.229 47.1449L223.234 46.8551ZM236.043 41.9044L228.171 42.0004L228.292 51.9996L236.164 51.9036L236.043 41.9044ZM235.12 42.0736C235.079 42.3019 235.03 42.4448 235 42.5133C234.971 42.5817 234.982 42.5285 235.08 42.4178C235.189 42.295 235.37 42.1418 235.618 42.0295C235.868 41.9168 236.055 41.904 236.104 41.904V51.904C238.743 51.904 240.993 50.8286 242.575 49.0382C244.018 47.4042 244.669 45.4547 244.959 43.8624L235.12 42.0736ZM235.327 40.184C235.327 41.2109 235.299 41.3706 235.25 41.5313L244.829 44.4047C245.356 42.6454 245.327 41.077 245.327 40.184H235.327ZM234.988 40.2789C235.191 40.3212 235.338 40.377 235.429 40.4224C235.519 40.4671 235.529 40.4882 235.496 40.4555C235.456 40.416 235.399 40.3407 235.357 40.241C235.339 40.1958 235.33 40.1614 235.327 40.1443C235.324 40.1278 235.327 40.1389 235.327 40.184H245.327C245.327 37.465 244.296 35.1135 242.567 33.3845C240.929 31.746 238.887 30.8765 237.027 30.4891L234.988 40.2789ZM300.314 76.6571C300.412 76.6375 300.221 76.674 299.49 76.7147C298.86 76.75 298.024 76.7792 297.005 76.8019C294.971 76.8472 292.334 76.864 289.395 76.8622C283.522 76.8587 276.564 76.7814 271.056 76.7202L270.945 86.7196C276.44 86.7806 283.453 86.8587 289.389 86.8622C292.354 86.864 295.08 86.8473 297.228 86.7994C299.138 86.7569 301.156 86.6869 302.276 86.4629L300.314 76.6571ZM303.042 76.506C302.415 76.5156 301.663 76.5259 300.973 76.5704L301.617 86.5496C302.012 86.5241 302.499 86.5154 303.195 86.5048L303.042 76.506ZM307.427 76.1638C307.656 75.8263 307.789 76.0321 306.804 76.2403C305.826 76.447 304.623 76.4818 303.043 76.506L303.195 86.5048C304.584 86.4836 306.781 86.4663 308.872 86.024C310.957 85.5833 313.83 84.5431 315.707 81.7722L307.427 76.1638ZM308.207 74.4666C308.189 74.7843 308.142 74.9197 308.094 75.035C308.013 75.2288 307.855 75.5219 307.407 76.1945L315.727 81.7415C316.859 80.0438 318.021 78.0833 318.191 75.0214L308.207 74.4666ZM308.467 64.2674C308.51 67.7994 308.544 70.9963 308.223 74.2546L318.175 75.2334C318.558 71.3395 318.508 67.5991 318.466 64.1462L308.467 64.2674ZM308.49 57.3002C308.411 59.7104 308.44 62.0577 308.467 64.2674L318.466 64.1462C318.439 61.9027 318.414 59.7775 318.484 57.6278L308.49 57.3002ZM308.503 56.5861C308.497 56.8203 308.487 57.1387 308.487 57.464H318.487C318.487 57.3078 318.492 57.1351 318.499 56.8748L308.503 56.5861ZM309.136 56.722C308.938 56.5397 308.774 56.3166 308.658 56.0851C308.549 55.8672 308.514 55.7057 308.506 55.6621C308.5 55.6273 308.511 55.6688 308.514 55.8409C308.518 56.0239 308.514 56.2318 308.503 56.5864L318.499 56.8745C318.523 56.0401 318.911 52.1366 315.918 49.374L309.136 56.722ZM307.125 57.0767C307.558 56.9857 308.308 56.9209 309.007 56.9839C309.341 57.0139 309.551 57.0636 309.643 57.0932C309.755 57.1292 309.556 57.0893 309.252 56.8264L315.802 49.2696C313.875 47.5994 311.422 47.1608 309.903 47.0241C308.202 46.8711 306.456 46.9983 305.065 47.2912L307.125 57.0767ZM308.019 56.5202C308.034 56.1459 308.068 55.9708 308.079 55.9248C308.088 55.8889 308.052 56.0629 307.88 56.318C307.691 56.5999 307.432 56.8377 307.162 56.9937C306.921 57.1336 306.795 57.1363 306.917 57.116L305.273 47.252C303.12 47.6109 300.997 48.6331 299.582 50.738C298.335 52.5919 298.088 54.6561 298.027 56.1038L308.019 56.5202ZM308.023 59.192V56.312H298.023V59.192H308.023ZM264.047 64.192H303.023V54.192H264.047V64.192ZM263.36 64.1887C263.617 64.1783 263.679 64.1787 263.735 64.1823L264.359 54.2017C263.731 54.1625 263.203 54.1869 262.954 54.197L263.36 64.1887ZM256.768 58.2495C256.82 58.7754 256.919 59.4866 257.168 60.2184C257.428 60.9865 257.956 62.0804 259.065 62.9612C260.19 63.8541 261.366 64.0933 262.069 64.1661C262.666 64.2279 263.253 64.1931 263.36 64.1887L262.954 54.197C262.619 54.2106 262.828 54.1912 263.1 54.2193C263.478 54.2586 264.384 54.415 265.284 55.1297C266.169 55.8324 266.518 56.6526 266.637 57.005C266.745 57.3212 266.74 57.4747 266.718 57.2545L256.768 58.2495ZM256.743 55.256V57.752H266.743V55.256H256.743ZM256.584 57.1793C256.886 57.1662 257.154 57.179 257.368 57.2093C257.588 57.2406 257.667 57.2788 257.642 57.2675C257.607 57.2514 257.411 57.1545 257.199 56.9049C257.095 56.7815 257.006 56.6435 256.939 56.5005C256.872 56.3584 256.84 56.2406 256.827 56.1664L266.659 54.3456C266.07 51.1606 263.983 49.1605 261.764 48.1565C259.764 47.252 257.663 47.1229 256.15 47.1887L256.584 57.1793ZM256.733 57.1713L256.819 57.1635L255.915 47.2045L255.829 47.2122L256.733 57.1713ZM255.326 57.3291C255.191 57.3887 255.208 57.3567 255.522 57.3056C255.828 57.2556 256.184 57.2211 256.733 57.1713L255.83 47.2122C255.048 47.2831 253.016 47.4123 251.264 48.1909L255.326 57.3291ZM255.991 57.08C255.991 56.8815 256.007 56.746 256.022 56.668C256.036 56.5901 256.044 56.6018 256.009 56.6737C255.972 56.7522 255.892 56.8865 255.75 57.0291C255.604 57.1762 255.449 57.2744 255.326 57.3291L251.264 48.1909C246.872 50.1429 245.991 54.4317 245.991 57.08H255.991ZM250.895 71.864C255.895 71.8973 255.895 71.8973 255.895 71.8972C255.895 71.8971 255.895 71.8969 255.895 71.8967C255.895 71.8962 255.895 71.8956 255.895 71.8947C255.895 71.893 255.895 71.8903 255.895 71.8869C255.895 71.88 255.895 71.8696 255.895 71.856C255.895 71.8287 255.896 71.7883 255.896 71.7355C255.897 71.6299 255.898 71.475 255.899 71.2778C255.902 70.8832 255.905 70.3192 255.91 69.6412C255.919 68.2851 255.931 66.473 255.943 64.6489C255.967 61.0206 255.991 57.2939 255.991 57.08H245.991C245.991 57.078 245.991 57.0913 245.991 57.1326C245.991 57.1691 245.99 57.2188 245.99 57.2815C245.989 57.4067 245.988 57.5801 245.987 57.795C245.984 58.2247 245.981 58.8181 245.976 59.52C245.967 60.9235 245.955 62.7592 245.943 64.5831C245.931 66.407 245.919 68.2189 245.91 69.5748C245.906 70.2528 245.902 70.8168 245.899 71.2112C245.898 71.4085 245.897 71.5633 245.896 71.6689C245.896 71.7217 245.896 71.7621 245.895 71.7894C245.895 71.803 245.895 71.8133 245.895 71.8202C245.895 71.8237 245.895 71.8263 245.895 71.828C245.895 71.8289 245.895 71.8296 245.895 71.83C245.895 71.8302 245.895 71.8304 245.895 71.8305C245.895 71.8306 245.895 71.8307 250.895 71.864ZM255.919 71.7814C255.911 71.692 255.898 71.552 255.884 71.4314C255.877 71.3712 255.864 71.2637 255.845 71.1403C255.839 71.1028 255.785 70.7243 255.639 70.2837L246.151 73.4443C246.105 73.3057 246.073 73.1893 246.053 73.109C246.032 73.026 246.016 72.9557 246.005 72.9038C245.984 72.8032 245.971 72.7245 245.965 72.6837C245.958 72.639 245.954 72.6055 245.951 72.5889C245.949 72.5711 245.948 72.5601 245.948 72.5584C245.947 72.557 245.949 72.5686 245.952 72.6034C245.956 72.6373 245.959 72.6774 245.965 72.7333L255.919 71.7814ZM257.009 75.864C257.037 75.8852 256.701 75.5749 256.375 74.4468C256.086 73.4447 255.982 72.433 255.919 71.7813L245.965 72.7335C246.031 73.4249 246.198 75.2489 246.768 77.2225C247.302 79.0701 248.415 81.8756 250.925 83.8L257.009 75.864ZM261.743 76.656C259.103 76.656 257.69 76.366 256.939 75.8111L250.995 83.8529C254.66 86.562 259.199 86.656 261.743 86.656V76.656ZM271.056 76.7202C266.446 76.6689 262.648 76.6253 261.587 76.6584L261.899 86.6536C262.681 86.6291 266.13 86.666 270.945 86.7196L271.056 76.7202ZM276.135 20.8365L275.943 39.4605L285.943 39.5635L286.135 20.9395L276.135 20.8365ZM276.192 18.7928C276.166 19.4234 276.135 20.165 276.135 20.888H286.135C286.135 20.4078 286.156 19.8782 286.184 19.2034L276.192 18.7928ZM275.653 14.1534C275.8 14.2481 275.96 14.3466 276.099 15.0091C276.284 15.8898 276.266 17.0066 276.192 18.7929L286.184 19.2033C286.246 17.6845 286.373 15.2763 285.886 12.9573C285.355 10.4201 284.028 7.64413 281.049 5.73461L275.653 14.1534ZM269.903 13.12C272.602 13.12 274.568 13.4592 275.656 14.1554L281.046 5.73262C277.334 3.35676 272.772 3.12 269.903 3.12V13.12ZM254.927 13.12H269.903V3.12H254.927V13.12ZM250.212 13.4601C250.724 13.3918 251.885 13.3048 253.088 13.2305C253.652 13.1955 254.175 13.1663 254.557 13.1458C254.748 13.1356 254.903 13.1276 255.009 13.1221C255.063 13.1194 255.104 13.1174 255.131 13.116C255.145 13.1153 255.155 13.1148 255.162 13.1145C255.165 13.1143 255.167 13.1142 255.169 13.1141C255.17 13.1141 255.17 13.1141 255.171 13.1141C255.171 13.1141 255.171 13.1141 255.171 13.1141C255.171 13.1141 255.171 13.1141 255.171 13.1141C255.171 13.1141 255.171 13.1141 254.927 8.12C254.683 3.12594 254.683 3.12594 254.683 3.12594C254.683 3.12595 254.683 3.12595 254.683 3.12596C254.683 3.12597 254.682 3.12598 254.682 3.126C254.681 3.12603 254.68 3.12608 254.679 3.12613C254.677 3.12625 254.674 3.12641 254.67 3.12661C254.661 3.12702 254.649 3.12762 254.634 3.12839C254.603 3.12993 254.558 3.13218 254.501 3.13509C254.386 3.14092 254.222 3.14941 254.022 3.16017C253.621 3.18167 253.07 3.21246 252.47 3.24953C251.345 3.31915 249.818 3.42418 248.89 3.54786L250.212 13.4601ZM249.65 14.0539C250.011 13.4838 250.128 13.4579 250.025 13.5287C249.917 13.6029 249.945 13.5243 250.532 13.4069L248.57 3.60109C247.237 3.86769 245.777 4.31709 244.373 5.27934C242.974 6.23806 241.987 7.46024 241.196 8.71404L249.65 14.0539ZM249.463 17.432C249.463 17.0703 249.465 16.1489 249.559 15.1839C249.607 14.7003 249.669 14.2975 249.737 14.0044C249.821 13.6437 249.848 13.7376 249.663 14.034L241.183 8.73399C240.518 9.79836 240.185 10.9363 239.999 11.7336C239.797 12.5985 239.679 13.4677 239.607 14.2081C239.461 15.6911 239.463 17.0257 239.463 17.432H249.463ZM249.366 24.9281C249.414 22.6033 249.439 20.7362 249.451 19.4472C249.457 18.8026 249.46 18.3024 249.461 17.9615C249.462 17.7911 249.463 17.6605 249.463 17.5716C249.463 17.5272 249.463 17.4932 249.463 17.4698C249.463 17.4582 249.463 17.4491 249.463 17.4428C249.463 17.4397 249.463 17.4372 249.463 17.4354C249.463 17.4345 249.463 17.4337 249.463 17.4332C249.463 17.4329 249.463 17.4327 249.463 17.4325C249.463 17.4324 249.463 17.4322 249.463 17.4322C249.463 17.4321 249.463 17.432 244.463 17.432C239.463 17.432 239.463 17.4319 239.463 17.4319C239.463 17.4319 239.463 17.4318 239.463 17.4318C239.463 17.4318 239.463 17.4318 239.463 17.4318C239.463 17.4319 239.463 17.4322 239.463 17.4327C239.463 17.4336 239.463 17.4352 239.463 17.4374C239.463 17.4419 239.463 17.4491 239.463 17.4589C239.463 17.4786 239.463 17.5089 239.463 17.5496C239.463 17.631 239.462 17.7539 239.462 17.9165C239.46 18.2416 239.457 18.7254 239.451 19.3528C239.439 20.6078 239.416 22.4367 239.368 24.7199L249.366 24.9281ZM244.271 34.232C249.271 34.232 249.271 34.232 249.271 34.232C249.271 34.232 249.271 34.232 249.271 34.232C249.271 34.2319 249.271 34.2317 249.271 34.2314C249.271 34.2309 249.271 34.2301 249.271 34.229C249.271 34.2268 249.271 34.2234 249.271 34.2188C249.271 34.2095 249.271 34.1955 249.271 34.1769C249.271 34.1396 249.271 34.0839 249.271 34.0113C249.271 33.866 249.272 33.6529 249.272 33.3833C249.274 32.844 249.277 32.0795 249.283 31.1811C249.295 29.3803 249.319 27.0576 249.366 24.9351L239.368 24.7129C239.319 26.9104 239.295 29.2917 239.283 31.1149C239.277 32.0285 239.274 32.806 239.273 33.3557C239.272 33.6306 239.271 33.8487 239.271 33.9986C239.271 34.0735 239.271 34.1314 239.271 34.1707C239.271 34.1904 239.271 34.2055 239.271 34.2158C239.271 34.2209 239.271 34.2248 239.271 34.2276C239.271 34.2289 239.271 34.23 239.271 34.2307C239.271 34.2311 239.271 34.2314 239.271 34.2316C239.271 34.2317 239.271 34.2318 239.271 34.2318C239.271 34.2319 239.271 34.232 244.271 34.232ZM249.261 34.589C249.263 34.5529 249.265 34.5086 249.266 34.4713C249.266 34.4674 249.271 34.3525 249.271 34.232H239.271C239.271 34.2107 239.271 34.1928 239.271 34.1795C239.271 34.1659 239.272 34.1544 239.272 34.1457C239.272 34.1286 239.272 34.1158 239.273 34.1093C239.273 34.1023 239.273 34.0978 239.273 34.0965C239.273 34.0951 239.273 34.0953 239.273 34.0976C239.273 34.1025 239.272 34.1111 239.272 34.1254C239.271 34.1395 239.271 34.1557 239.27 34.1763L249.261 34.589ZM250.178 42.7181C250.107 42.6108 249.91 42.2187 249.715 41.4038C249.531 40.6349 249.403 39.7247 249.325 38.7652C249.17 36.8452 249.24 35.1099 249.261 34.5888L239.27 34.1765C239.245 34.7819 239.151 37.0188 239.358 39.5737C239.544 41.8636 240.035 45.4923 241.82 48.2099L250.178 42.7181ZM256.913 43.3442C254.598 43.3457 252.851 43.3303 251.458 43.0714C250.077 42.815 250.022 42.4884 250.139 42.6597L241.859 48.2683C243.931 51.3256 247.14 52.4404 249.632 52.9033C252.111 53.3638 254.846 53.3455 256.92 53.3442L256.913 43.3442ZM257.327 43.344C257.189 43.344 257.05 43.3441 256.913 43.3442L256.92 53.3442C257.057 53.3441 257.192 53.344 257.327 53.344V43.344ZM257.423 43.344H257.327V53.344H257.423V43.344ZM261.71 43.367C260.136 43.3362 258.325 43.2978 257.196 43.3492L257.65 53.3388C258.368 53.3062 259.761 53.3307 261.514 53.3651L261.71 43.367ZM266.5 43.3715C265.871 43.4376 264.059 43.4131 261.71 43.367L261.514 53.3651C263.448 53.403 266.122 53.4665 267.546 53.3165L266.5 43.3715ZM269.012 43.3703C268.389 43.3578 267.708 43.344 267.023 43.344V53.344C267.591 53.344 268.171 53.3555 268.811 53.3683L269.012 43.3703ZM275.534 42.7416C273.877 43.4046 272.026 43.4307 269.012 43.3703L268.811 53.3683C271.497 53.4222 275.404 53.5638 279.248 52.0264L275.534 42.7416ZM275.943 39.512C275.943 40.6449 275.83 41.6912 275.583 42.42C275.348 43.1148 275.246 42.8485 275.635 42.7024L279.147 52.0656C282.608 50.7675 284.282 47.9092 285.055 45.628C285.816 43.3808 285.943 41.0671 285.943 39.512H275.943ZM293.332 43.0917C293.246 44.2971 293.101 44.9469 292.851 45.415L301.675 50.121C302.961 47.7091 303.2 45.2869 303.306 43.8043L293.332 43.0917ZM293.319 32.792V43.448H303.319V32.792H293.319ZM302.639 27.792H298.319V37.792H302.639V27.792ZM307.639 38.744V32.792H297.639V38.744H307.639ZM307.635 39.5624C307.637 39.2866 307.639 39.0044 307.639 38.744H297.639C297.639 38.9577 297.637 39.1983 297.635 39.4842L307.635 39.5624ZM308.11 45.4406C308.139 45.4911 308.061 45.3669 307.962 44.9523C307.868 44.56 307.789 44.0512 307.733 43.4311C307.618 42.1696 307.625 40.8178 307.635 39.5621L297.635 39.4845C297.626 40.6773 297.608 42.5103 297.774 44.3383C297.927 46.0164 298.286 48.4467 299.472 50.4794L308.11 45.4406ZM308.329 45.8113C308.338 45.8177 308.326 45.8102 308.305 45.7857C308.285 45.7615 308.27 45.7382 308.263 45.7241L299.319 50.1959C300.063 51.6841 301.173 52.9886 302.517 53.9487L308.329 45.8113ZM308.591 45.84C308.51 45.84 308.442 45.8349 308.387 45.8277C308.333 45.8205 308.299 45.8121 308.287 45.8084C308.257 45.7997 308.347 45.8202 308.493 45.9333L302.353 53.8267C304.349 55.3793 306.699 55.84 308.591 55.84V45.84ZM308.149 45.928C307.983 46.0317 308.049 45.9709 308.249 45.9087C308.348 45.878 308.442 45.8586 308.519 45.8481C308.591 45.8383 308.622 45.84 308.591 45.84V55.84C310.536 55.84 312.018 55.3022 313.449 54.408L308.149 45.928ZM308.487 44.984C308.487 44.8741 308.491 44.836 308.489 44.8679C308.488 44.8857 308.484 44.9342 308.474 45.0047C308.455 45.1541 308.418 45.3474 308.356 45.5385C308.293 45.7335 308.229 45.8505 308.193 45.9034C308.167 45.9417 308.184 45.9055 308.25 45.8666L313.348 54.4694C316.089 52.845 317.322 50.3183 317.874 48.6055C318.429 46.8843 318.487 45.4215 318.487 44.984H308.487ZM308.487 12.824V44.984H318.487V12.824H308.487ZM308.247 10.2601C308.208 10.1816 308.249 10.2443 308.313 10.514C308.371 10.7588 308.422 11.0609 308.459 11.386C308.496 11.7083 308.512 11.9959 308.517 12.1939C308.519 12.2937 308.517 12.3419 308.517 12.3407C308.517 12.3399 308.518 12.3053 308.524 12.2449C308.528 12.2011 308.543 12.0502 308.584 11.8433L318.39 13.8047C318.534 13.0818 318.521 12.3101 318.514 11.9811C318.504 11.4741 318.466 10.8797 318.395 10.254C318.269 9.14765 317.976 7.35844 317.191 5.78791L308.247 10.2601ZM308.483 10.4668C308.589 10.4835 308.616 10.4991 308.589 10.4878C308.559 10.4754 308.495 10.4441 308.419 10.3854C308.342 10.3269 308.28 10.2622 308.235 10.204C308.192 10.1481 308.177 10.1139 308.179 10.1193L317.259 5.92874C316.003 3.20681 313.562 1.14484 310.043 0.589182L308.483 10.4668ZM308.714 10.1125C308.697 10.1352 308.642 10.1988 308.545 10.2713C308.445 10.3455 308.339 10.3995 308.247 10.4321C308.063 10.4976 308.113 10.4174 308.587 10.4821L309.939 0.573846C306.439 0.096591 303.06 1.06126 300.788 4.01546L308.714 10.1125ZM307.812 11.3807C307.836 11.3016 307.96 10.9725 308.467 10.4089L301.035 3.71914C299.814 5.0755 298.786 6.66643 298.234 8.50728L307.812 11.3807ZM307.722 13.7157C307.639 12.5534 307.689 11.8122 307.831 11.3176L298.215 8.57038C297.589 10.7638 297.639 12.9026 297.748 14.4283L307.722 13.7157ZM307.639 22.3861L307.735 14.1301L297.735 14.0139L297.639 22.2699L307.639 22.3861ZM301.489 27.2727C301.786 27.2887 302.078 27.3045 302.362 27.3203L302.916 17.3357C302.624 17.3195 302.324 17.3033 302.029 17.2873L301.489 27.2727ZM297.497 26.972C298.336 27.1118 300.241 27.2052 301.489 27.2727L302.029 17.2873C301.281 17.2468 300.571 17.2084 299.989 17.1705C299.698 17.1516 299.462 17.1344 299.285 17.1189C299.071 17.1002 299.055 17.0936 299.141 17.108L297.497 26.972ZM298.415 9.36C296.673 9.36 295.487 10.2292 294.918 10.7854C294.369 11.322 294.075 11.8583 293.951 12.1035C293.693 12.612 293.584 13.0488 293.554 13.1697C293.474 13.4922 293.442 13.7594 293.434 13.8324C293.409 14.0409 293.397 14.2356 293.391 14.343C293.377 14.5924 293.368 14.8972 293.361 15.2016C293.346 15.8283 293.337 16.659 293.331 17.5168C293.319 19.2409 293.319 21.1778 293.319 22.04H303.319C303.319 21.1742 303.319 19.2711 303.331 17.5872C303.337 16.7409 303.346 15.9757 303.358 15.4324C303.365 15.1518 303.371 14.9781 303.376 14.8952C303.379 14.8365 303.377 14.9017 303.363 15.0221C303.359 15.0511 303.333 15.2847 303.258 15.5846C303.231 15.6942 303.125 16.1224 302.87 16.6251C302.747 16.8675 302.455 17.4016 301.908 17.9368C301.34 18.4915 300.156 19.36 298.415 19.36V9.36ZM293.252 11.7024C293.372 12.0916 293.415 12.8162 293.415 14.36H303.415C303.415 13.2158 303.458 10.8684 302.81 8.76156L293.252 11.7024ZM293.031 10.8556C293.074 11.0309 293.135 11.2821 293.207 11.5472L302.855 8.91677C302.824 8.80181 302.793 8.67908 302.746 8.48562L293.031 10.8556ZM293.067 10.6008C293.038 10.5692 292.999 10.5195 292.96 10.4556C292.922 10.3925 292.899 10.3425 292.891 10.3215C292.884 10.3055 292.894 10.3255 292.919 10.4134C292.931 10.4574 292.946 10.5128 292.965 10.5878C292.985 10.6652 293.005 10.7471 293.031 10.8559L302.746 8.48527C302.542 7.65077 302.132 5.72474 300.499 3.91118L293.067 10.6008ZM292.947 10.7701C293.185 10.7376 293.316 10.7414 293.361 10.7447C293.401 10.7476 293.37 10.7494 293.295 10.7237C293.26 10.7116 293.223 10.696 293.186 10.6773C293.149 10.6586 293.119 10.6399 293.096 10.6241C293.049 10.5919 293.05 10.5836 293.097 10.6346L300.469 3.87738C299.486 2.80522 298.209 1.83922 296.551 1.26831C294.917 0.706007 293.237 0.638046 291.595 0.861848L292.947 10.7701ZM292.875 10.2153C292.755 10.4748 292.615 10.6507 292.513 10.7544C292.414 10.8562 292.345 10.8962 292.34 10.8991C292.334 10.9027 292.369 10.8817 292.454 10.8555C292.537 10.8295 292.652 10.8035 292.794 10.7885L291.748 0.84347C288.971 1.13569 285.394 2.56125 283.795 6.02465L292.875 10.2153ZM292.499 12.2902C292.54 12.5343 292.54 12.6769 292.538 12.6104C292.537 12.5876 292.535 12.519 292.538 12.405C292.542 12.1771 292.56 11.8638 292.597 11.5215C292.635 11.1754 292.687 10.8578 292.747 10.6031C292.813 10.3205 292.853 10.2635 292.807 10.3561L283.863 5.88391C283.068 7.4727 282.78 9.30477 282.657 10.4305C282.54 11.494 282.468 12.9312 282.635 13.9338L292.499 12.2902ZM292.567 44.696V13.112H282.567V44.696H292.567ZM293.067 45.6217C293.115 45.6512 293.091 45.6526 293.016 45.5471C292.935 45.434 292.839 45.2568 292.748 45.017C292.659 44.7817 292.602 44.5545 292.569 44.3904C292.553 44.3112 292.546 44.2622 292.545 44.2532C292.544 44.2479 292.546 44.2634 292.55 44.2989C292.551 44.3161 292.554 44.3496 292.557 44.3956C292.559 44.4192 292.567 44.538 292.567 44.696H282.567C282.567 45.2584 282.674 45.9085 282.763 46.3516C282.88 46.9375 283.075 47.7063 283.394 48.551C283.998 50.1503 285.255 52.5558 287.827 54.1383L293.067 45.6217ZM293.135 45.648C293.147 45.648 293.161 45.649 293.175 45.6511C293.188 45.653 293.191 45.6545 293.18 45.6513C293.157 45.6444 293.062 45.6131 292.875 45.5092L288.019 54.2508C289.398 55.0169 291.098 55.648 293.135 55.648V45.648ZM292.531 45.6689C292.42 45.7548 292.343 45.8146 292.274 45.8676C292.206 45.9188 292.168 45.9466 292.147 45.9615C292.105 45.991 292.176 45.9364 292.324 45.8662C292.487 45.788 292.675 45.7232 292.864 45.6838C293.04 45.6472 293.145 45.648 293.135 45.648V55.648C294.324 55.648 295.486 55.4377 296.632 54.8903C297.584 54.4359 298.359 53.8049 298.671 53.562L292.531 45.6689ZM292.561 45.6456L292.531 45.6691L298.671 53.5618L298.701 53.5384L292.561 45.6456ZM292.791 45.5319C292.781 45.5513 292.78 45.5447 292.81 45.5112C292.837 45.4811 292.939 45.3715 293.15 45.2508L298.112 53.9332C299.832 52.9504 301.019 51.4354 301.735 50.0041L292.791 45.5319ZM274.686 22.5024C274.687 22.5121 274.683 22.4775 274.682 22.3692C274.68 22.2557 274.681 22.1274 274.684 21.9188L264.684 21.8043C264.681 22.1356 264.667 22.8106 264.736 23.4976L274.686 22.5024ZM274.567 28.6436C274.582 27.4079 274.597 26.2398 274.618 25.2807C274.628 24.8017 274.64 24.3946 274.653 24.0704C274.659 23.9089 274.666 23.7788 274.672 23.6778C274.675 23.6278 274.678 23.5894 274.68 23.5612C274.683 23.5323 274.684 23.5207 274.684 23.5234L264.738 22.4766C264.622 23.5823 264.596 26.2525 264.568 28.5201L274.567 28.6436ZM274.216 36.8156C274.349 36.1962 274.394 35.4737 274.419 35.0555C274.45 34.5133 274.473 33.8703 274.491 33.1929C274.528 31.8352 274.548 30.1868 274.567 28.6435L264.568 28.5202C264.548 30.0855 264.529 31.6548 264.495 32.9254C264.478 33.5621 264.458 34.0858 264.435 34.4756C264.406 34.9896 264.386 34.9644 264.438 34.7204L274.216 36.8156ZM274.231 36.7881C274.245 36.6901 274.258 36.6005 274.272 36.5098L264.382 35.0262C264.365 35.1396 264.349 35.2485 264.336 35.3438L274.231 36.7881ZM266.543 43.648C268.043 43.648 270.686 43.4385 272.548 41.2012C273.383 40.1977 273.741 39.1419 273.92 38.4552C274.088 37.8116 274.18 37.1369 274.231 36.7878L264.335 35.3441C264.302 35.5729 264.281 35.7128 264.261 35.8311C264.242 35.9456 264.235 35.9664 264.243 35.936C264.253 35.8948 264.385 35.3769 264.862 34.8037C265.4 34.1576 266.037 33.8393 266.456 33.7096C266.778 33.61 266.884 33.648 266.543 33.648V43.648ZM260.7 43.5513L266.46 43.6473L266.626 33.6487L260.866 33.5527L260.7 43.5513ZM252.934 40.5337C253.864 41.6333 255.113 42.7237 257.017 43.2288C258.386 43.5922 259.915 43.552 260.783 43.552V33.552C260.489 33.552 260.253 33.5519 260.042 33.5498C259.833 33.5477 259.684 33.5438 259.571 33.5383C259.516 33.5357 259.477 33.533 259.45 33.5308C259.422 33.5285 259.411 33.527 259.411 33.5271C259.412 33.5272 259.476 33.5353 259.581 33.5632C259.691 33.5923 259.831 33.6391 259.986 33.7111C260.143 33.7836 260.28 33.8658 260.395 33.9468C260.61 34.0995 260.676 34.2018 260.568 34.0743L252.934 40.5337ZM250.793 32.3528C250.783 32.6111 250.738 33.7561 250.885 35.1014C251.003 36.1821 251.341 38.5453 252.847 40.4275L260.655 34.1805C260.807 34.3703 260.884 34.5193 260.913 34.5802C260.943 34.6431 260.944 34.6605 260.931 34.6157C260.901 34.5139 260.858 34.314 260.826 34.0178C260.761 33.4226 260.781 32.8701 260.786 32.736L250.793 32.3528ZM250.791 32.504C250.791 32.464 250.791 32.4324 250.792 32.4159C250.792 32.3975 250.792 32.3829 250.793 32.3739C250.793 32.3567 250.794 32.3443 250.794 32.3419C250.794 32.3378 250.794 32.3361 250.793 32.351L260.786 32.7378C260.786 32.731 260.787 32.7116 260.788 32.694C260.788 32.6849 260.788 32.6667 260.789 32.6449C260.789 32.6336 260.79 32.6168 260.79 32.5967C260.79 32.5784 260.791 32.5453 260.791 32.504H250.791ZM250.894 25.1372C250.839 26.183 250.815 28.0781 250.803 29.5972C250.797 30.3816 250.794 31.1072 250.793 31.6362C250.792 31.9009 250.791 32.117 250.791 32.2672C250.791 32.3424 250.791 32.4011 250.791 32.4413C250.791 32.4613 250.791 32.4768 250.791 32.4873C250.791 32.4926 250.791 32.4967 250.791 32.4994C250.791 32.5008 250.791 32.5019 250.791 32.5027C250.791 32.5031 250.791 32.5034 250.791 32.5036C250.791 32.5037 250.791 32.5038 250.791 32.5038C250.791 32.5039 250.791 32.504 255.791 32.504C260.791 32.504 260.791 32.504 260.791 32.504C260.791 32.504 260.791 32.504 260.791 32.5039C260.791 32.5038 260.791 32.5037 260.791 32.5034C260.791 32.5029 260.791 32.502 260.791 32.5009C260.791 32.4986 260.791 32.495 260.791 32.4903C260.791 32.4807 260.791 32.4663 260.791 32.4473C260.791 32.4092 260.791 32.3527 260.791 32.2799C260.791 32.1343 260.792 31.9236 260.792 31.6648C260.794 31.1468 260.797 30.4384 260.803 29.6748C260.815 28.0979 260.839 26.441 260.88 25.6628L250.894 25.1372ZM250.887 22.328V25.4H260.887V22.328H250.887ZM252.298 16.8298C251.679 17.6974 251.396 18.5804 251.26 19.0903C251.107 19.6616 251.026 20.2002 250.979 20.6114C250.885 21.4354 250.887 22.1509 250.887 22.328H260.887C260.887 22.274 260.887 22.1908 260.891 22.0797C260.895 21.9628 260.903 21.8435 260.915 21.7406C260.921 21.691 260.926 21.6577 260.929 21.6401C260.932 21.6209 260.931 21.6354 260.919 21.6777C260.909 21.7165 260.88 21.8185 260.819 21.9628C260.761 22.1007 260.645 22.3492 260.436 22.6422L252.298 16.8298ZM258.122 13.6045C257.219 13.6867 256.106 13.8897 254.966 14.5006C253.855 15.0956 253.1 15.8767 252.604 16.4435L260.13 23.0285C260.306 22.8273 260.127 23.0804 259.688 23.3154C259.22 23.5663 258.875 23.5773 259.028 23.5635L258.122 13.6045ZM261.263 13.392C260.274 13.392 258.844 13.3628 257.362 13.7333L259.788 23.4347C259.788 23.4346 259.791 23.4339 259.797 23.4328C259.803 23.4317 259.814 23.4297 259.833 23.4271C259.87 23.422 259.938 23.4147 260.052 23.4083C260.317 23.3936 260.647 23.392 261.263 23.392V13.392ZM266.725 13.5873L261.445 13.3953L261.081 23.3887L266.361 23.5807L266.725 13.5873ZM274.228 18.2463C273.373 15.8544 271.548 14.5315 269.768 13.9777C268.369 13.5423 266.943 13.584 266.543 13.584V23.584C266.861 23.584 266.983 23.5861 267.072 23.5924C267.153 23.5982 267.028 23.598 266.798 23.5263C266.545 23.4478 266.117 23.2678 265.682 22.8793C265.227 22.4728 264.951 22.0032 264.81 21.6097L274.228 18.2463ZM274.684 21.9187C274.689 21.4345 274.748 19.9567 274.308 18.4912L264.73 21.3648C264.698 21.2598 264.685 21.1862 264.681 21.1569C264.676 21.1282 264.678 21.1301 264.681 21.1744C264.684 21.2193 264.686 21.2889 264.687 21.3981C264.688 21.5116 264.686 21.6328 264.684 21.8044L274.684 21.9187ZM267.607 62.836C267.422 62.8286 267.229 62.8191 267.005 62.808L266.512 72.7959C266.727 72.8065 266.968 72.8184 267.207 72.828L267.607 62.836ZM276.928 62.8612C271.663 62.8449 267.488 62.832 267.407 62.832V72.832C267.406 72.832 267.466 72.8322 267.605 72.8326C267.735 72.8329 267.924 72.8335 268.165 72.8342C268.647 72.8357 269.339 72.8378 270.193 72.8404C271.901 72.8457 274.26 72.853 276.897 72.8611L276.928 62.8612ZM298.895 62.928C298.54 62.928 286.075 62.8895 276.928 62.8612L276.897 72.8611C286.024 72.8894 298.52 72.928 298.895 72.928V62.928ZM306.221 65.6258C304.823 63.9176 303.032 63.2267 301.557 62.9908C300.272 62.7853 299.024 62.9033 298.512 62.9427L299.278 72.9133C299.608 72.8879 299.786 72.8759 299.935 72.8731C300.075 72.8704 300.069 72.8799 299.977 72.8652C299.875 72.8489 299.631 72.7973 299.326 72.6398C299.003 72.4726 298.708 72.2358 298.481 71.9582L306.221 65.6258ZM307.756 71.215C307.778 71.0091 307.912 70.045 307.753 68.9867C307.562 67.7106 307.011 66.5089 306.088 65.4701L298.614 72.1139C298.468 71.9495 298.293 71.7087 298.143 71.3896C297.992 71.0667 297.906 70.7488 297.864 70.4698C297.824 70.2072 297.83 70.0194 297.833 69.968C297.834 69.9395 297.836 69.9392 297.815 70.1319L307.756 71.215ZM307.735 71.384C307.735 71.4307 307.733 71.4494 307.735 71.4218C307.736 71.408 307.738 71.3864 307.741 71.3514C307.745 71.3144 307.749 71.2749 307.756 71.2152L297.815 70.1317C297.794 70.3256 297.735 70.8231 297.735 71.384H307.735ZM298.987 77.9385C299.411 77.9784 301.213 78.2116 302.907 77.7558C303.899 77.489 305.233 76.9009 306.291 75.6022C307.379 74.2668 307.735 72.7231 307.735 71.384H297.735C297.735 70.9875 297.852 70.1283 298.539 69.2853C299.196 68.479 299.966 68.1914 300.309 68.0991C300.621 68.0151 300.776 68.0365 300.619 68.0341C300.478 68.032 300.297 68.0176 299.925 67.9825L298.987 77.9385ZM298.635 77.9073C298.712 77.9128 298.81 77.9217 298.987 77.9385L299.925 67.9825C299.774 67.9683 299.559 67.9478 299.347 67.9327L298.635 77.9073ZM288.406 78.0155C290.941 77.9795 293.463 77.9436 295.417 77.9227C296.396 77.9123 297.219 77.9057 297.824 77.9046C298.585 77.9033 298.699 77.9141 298.538 77.8995L299.444 67.9405C299.019 67.9019 298.302 67.9037 297.806 67.9046C297.156 67.9058 296.297 67.9127 295.311 67.9233C293.335 67.9444 290.793 67.9805 288.264 68.0165L288.406 78.0155ZM277.226 78.0915C277.651 78.1301 278.368 78.1283 278.864 78.1274C279.514 78.1262 280.373 78.1193 281.359 78.1087C283.335 78.0876 285.877 78.0515 288.406 78.0155L288.264 68.0165C285.729 68.0525 283.207 68.0884 281.253 68.1093C280.274 68.1197 279.451 68.1263 278.846 68.1274C278.085 68.1287 277.971 68.1179 278.132 68.1325L277.226 78.0915ZM265.775 77.92C269.258 77.92 273.715 78.0145 277.554 78.1104L277.804 68.1136C273.963 68.0175 269.396 67.92 265.775 67.92V77.92ZM265.638 77.9426C265.82 77.9283 265.948 77.9185 266.069 77.9114L265.481 67.9286C265.247 67.9424 265.022 67.9603 264.855 67.9733L265.638 77.9426ZM257.207 72.6036C257.795 74.7588 259.198 76.735 261.647 77.5909C263.402 78.2041 265.236 77.9742 265.638 77.9426L264.855 67.9733C264.449 68.0052 264.337 68.0102 264.28 68.0094C264.239 68.0089 264.524 68.0032 264.946 68.1508C265.44 68.3234 265.961 68.649 266.37 69.133C266.741 69.5732 266.846 69.9384 266.855 69.9724L257.207 72.6036ZM256.935 69.752C256.935 70.3465 256.919 71.2245 257.128 72.2687L266.934 70.3074C266.936 70.3165 266.939 70.3334 266.941 70.352C266.943 70.3689 266.942 70.3695 266.941 70.3423C266.939 70.311 266.937 70.2555 266.936 70.1536C266.935 70.0481 266.935 69.927 266.935 69.752H256.935ZM267.005 62.808C266.117 62.7642 264.084 62.6183 262.295 63.0606C261.306 63.3052 259.892 63.8366 258.716 65.0946C257.438 66.463 256.935 68.1559 256.935 69.752H266.935C266.935 69.9654 266.903 70.3141 266.752 70.7328C266.596 71.165 266.347 71.5747 266.023 71.9222C265.397 72.5919 264.763 72.7516 264.696 72.7682C264.617 72.7876 264.712 72.756 265.106 72.7513C265.485 72.7468 265.915 72.7664 266.512 72.7959L267.005 62.808ZM58.3357 18.4185L43.3141 62.5087L52.7798 65.7337L67.8014 21.6435L58.3357 18.4185ZM20.5006 50.389L65.5691 24.3608L60.568 15.7012L15.4994 41.7294L20.5006 50.389ZM40.4443 41.5636L18.1126 41.0605L17.8874 51.0579L40.2191 51.561L40.4443 41.5636ZM52.6245 62.1099L44.9093 44.551L35.7541 48.5737L43.4693 66.1326L52.6245 62.1099Z" fill="#0C0C32" mask="url(#path-1-outside-1_5_4)"/>
</svg>
